<?xml version="1.0" encoding="utf-8"?>
<!-- Generator: Adobe Illustrator 22.1.0, SVG Export Plug-In . SVG Version: 6.00 Build 0)  -->
<svg version="1.1" id="Layer_1" xmlns="http://www.w3.org/2000/svg" xmlns:xlink="http://www.w3.org/1999/xlink" x="0px" y="0px"
	 viewBox="0 0 826.8 677.8" style="enable-background:new 0 0 826.8 677.8;" xml:space="preserve">
<style type="text/css">
	.st0{fill:none;}
	.st1{fill:#9BD9E1;}
	.st2{fill:#FFFFFF;}
	.st3{fill:#F26862;}
</style>
<rect x="-86.6" y="-158.1" class="st0" width="1000" height="1000"/>
<rect x="-86.6" y="-158.1" class="st0" width="1000" height="1000"/>
<rect x="-86.6" y="-158.1" class="st0" width="1000" height="1000"/>
<rect y="6.1" class="st0" width="826.8" height="671.7"/>
<g>
	<path class="st1" d="M225.9,57.3c-0.5,0.3-0.9,0.7-1.3,1.1c-3.2,4-4.7,3.9-6.7-0.9c-2.8-6.8-4.5-13.7-1.7-21
		c2.1-5.4,4.7-7.2,10.2-5.6s9.5-0.4,13.1-4.3c5-5.4,10.1-10.7,12-18.2c0.3-1.1,2.9-2.3,4.4-2.3c2.7,0.1,5.5,1,8.2,1.6
		c5.8,1.2,5.8,1.2,5.4,7.3c-0.3,2.1-0.3,4.3-0.2,6.4c0.3,2.8,2.3,3.8,5,3.1c1.2-0.3,2.4-0.8,3.4-1.6c3-3,7.2-4.5,11.4-4.2
		c1.5,0.1,3.1-1.4,4.6-2.3s2.5-2,4.4-3.6c0.3,2.7,0.5,4.6,0.6,6.4c0.4,9.2,9.5,19.5,18.6,20.8c2.6,0.4,4.1,1.3,4.4,4.2
		c0.4,4.2,3.2,7,6.3,9.6c4.5,3.9,8.7,7.8,8,14.6c-0.3,2.8,2.1,3.2,4.3,2.7c1.6-0.5,3.1-1.2,4.5-1.9c4.3-1.9,9.5,0.7,10,5.4
		c0.4,3.8,1.7,6.7,5,8.8c1.2,0.7,2.5,2.4,2.5,3.6c0,3.6,2.2,5.7,4,8.3c1.6,2.4,2.3,5.4,2.9,8.3c0.4,1.7-0.3,3.5-0.4,5.3
		c-0.3,7.6,0.7,9.2,7.8,11.8c0.6,0.2,1.4,0.3,1.7,0.7c7.1,7.6,16.9,7.1,26,8.5c2.2,0.2,4,1.7,4.5,3.9c1.3,4.1,3.7,5.3,7.8,3.9
		c1-0.3,1.9-0.7,2.7-1.3c3.5-2.7,7.2-2.5,10.6-0.1c9.5,6.7,19.6,4.6,29.6,1.9c5.2-1.4,6.1-4,3.8-8.8c-2.6-5.5-2.4-6.6,2.8-9.7
		c2.4-1.5,2.6-3.5,2.6-5.8c0-4.9,1-5.7,5.6-4.5s4.9,0.6,6.1-3.8c1.5-5.1,3.2-10.1,5.3-15c1-2.5,3.3-4.3,6-4.6
		c4.1-0.7,8.1-2,12.2-2.9c4.7-1,8.9-3.8,11.6-7.8c2-2.6,4.8-4.3,8-5.1c8.3-1.7,12.2-7.1,13.9-14.7c0.7-3.2,1.2-6.5,2.3-9.6
		c1.1-2.9,2.4-6.3,4.6-8.1c6.5-5,9.6-12,13-18.9c0.6-1.3,1.3-2.6,2.1-4.1c6.2,4.3,12.4,7.7,15.8,14.7c2.3,4.8,6.6,8.6,9.8,13
		c1.1,1.5,1.9,3.3,2.2,5.2c0.5,4.9,3.3,8.2,6.4,11.7s5.3,7.6,7.9,11.4c1.8,2.6,3.6,5.1,5.6,7.5c1.4,1.6,3.3,2.9,4.4,4.6
		c2.8,4.3,5.4,8.6,9.9,11.7c2.4,1.6,3.2,5.6,4.8,8.4c2.1,3.4,3.8,7.2,6.6,10c5.1,5.1,7.5,10.5,7.4,18.1c-0.1,7-0.4,14.9,5.2,21.1
		c1,1.3,1.1,3.9,1.1,5.9c-0.1,5.6,2,10.2,5.5,14.5c5.4,6.5,10.4,13.4,15.7,20c0.8,1,1.7,1.9,2.5,2.9c2.2,2.5,4.8,4.9,6.5,7.7
		c1.9,3,4.1,4.6,7.7,4.7c6.9,0.1,11.2,4.5,14.4,9.8c0.9,1.5,0.2,4.1-0.2,6.1c-0.2,1.1-1.4,2.1-2.1,3.1c-3.8,5.4-3.7,7.6,0.6,12.8
		c4.3,5.2,9.2,9,16.6,9.5c3,0.2,5.8,3.1,8.7,4.8c1,0.6,2,1.6,3.1,1.8c4.1,0.8,8.2,1.4,12.3,2.1c4.9,0.9,9.6,0.9,14.1-1.4
		c5.5-2.8,11-4.2,17.1-2.1c1.8,0.6,4,0.1,5.8,0.1c1.7,2.8,3.3,5.6,5.2,8.3c1.9,2.9,5.1,4.7,8.6,4.8c4,0.3,7.9,1.4,11.5,3.1
		c1.8,0.9,3.3,3.5,3.9,5.6c0.9,3.3,3.3,6.1,6.4,7.5c8.1,4.3,12.3,11.1,12.6,20.2c0.2,4.9,0.3,9.6,3.8,13.6c0.6,0.7,0,2.5-0.1,3.7
		c-1.2-0.3-2.9-0.3-3.5-1.1c-1.8-2.2-3.2-4.5-4.4-7.1c-3.7-8.5-10.6-11.6-19.2-12.5c-2.6-0.2-5.1-0.9-7.5-1.9
		c-2.7-1.3-5-0.9-7.6,0.2c-2.3,0.9-4.8,1.2-7.2,1.8c-1.7,0.4-3.6,0.6-4.9,1.5c-2.7,1.9-5.2,1.8-7.7,0c-1.2-0.8-2.2-1.7-3.4-2.5
		c-6-3.9-9.9-3.7-14.6,1.3c-0.9,0.9-1,2.8-1.1,4.2c-0.5,5.6-3.3,8.5-8.8,9.2c-1.3,0.3-2.6,0.8-3.7,1.5c-0.6,0.3-1,0.9-1.5,1.1
		c-7.1,2.7-14.2,5.6-21.4,7.9c-8.5,2.7-15.9,12.7-15.3,21.6c0.2,2.7-0.3,4.4-3.3,5.4c-2.4,0.8-4.4,2.9-6.3,4.7
		c-0.4,0.8-0.4,1.7,0,2.5c1.9,3.1,4,6.1,6.4,8.9c2.3,2.6,2.7,5.2-0.3,7c-6.1,3.5-6.7,8.2-4.5,14.2c1.1,2.7,0.5,5.8-1.7,7.7
		c-0.7,1-0.8,2.3-0.3,3.5c1.1,2.5,1.3,4.8-0.7,6.7c-3.1,2.8-2.6,5.8-0.8,8.9c0.6,1.1,1.5,2.1,2.2,3.1c3.1,4.7,2.3,5.7-2.2,8.8
		c-6.3,4.5-11.5,10.2-12.3,18.6c-0.1,1.3-0.3,2.5-0.7,3.7c-0.8,2.9-1.9,5.7-3.1,8.4c-3.3,6.3-0.7,10.5,4.4,14.2
		c4.2,3.1,8.3,6.3,12.4,9.5c2.5,2,3.3,4.2,1.2,7.2c-0.8,1.2-0.7,3.1-0.8,4.7c0,1.6,0.1,3.2,0.3,4.8l-4.1-3.7l4,10l-1.2,0.9
		c-2.2-1.5-4.3-3.2-6.3-5c-2.8-2.8-5.4-6.5-9.8-5c-4.7,1.6-6.5,6.2-6.6,10.7c-0.2,6.7,0.7,13.4,0.8,20.1c0,2.7-0.1,5.7-1.3,8
		c-2.8,5.9-4.5,11.9-3.9,18.3c0.3,3.8-1.8,6.3-4.3,8c-4.1,2.5-8.4,4.6-12.8,6.3c-2.6,1.1-4.6-0.4-5-3.1s-1.3-6.2,2.8-6.8
		c5.8-0.8,8.7-4.8,11.1-9.4c2.2-4.1,0.5-6.7-4.2-6.7c-1.4,0-2.8,0-4.2-0.1c-5.1-0.5-5.9-1.9-4.6-6.9c0.3-1.3,0.3-2.7-0.2-4
		c-1.3-3.5-5.1-5-10.3-4.6c-3.8,0.4-5,2.7-6.1,6.1c-1.4,4.3-2,8.8-2,13.3c0,3.3,0.1,6.4,2.2,9.4c0.9,1.3,0.5,3.9,0,5.7
		c-1.9,6.5-4.2,12.9-6,19.4c-1.2,4.3-3.7,6.7-8,7.5c-5.2,1-5.6,1.3-4.7,6.6c0.5,3.1,1.5,6.6,3.5,8.9c3,3.2,4.1,7.7,2.9,11.9
		c-1,3.7-0.4,7.7,1.7,10.9c1,1.9,1.5,4,1.5,6.2c0.2,10,0.1,20,0.1,29.9c0,1.8,0.2,3.5,0.4,5.8c-2.7,0-5.4,0.2-8.1,0
		c-5.5-0.4-9.8,1.5-13.5,5.5c-3.9,4.2-9.2,5-14.6,4.6c-4.3-0.3-5.5-4.1-7.5-6.8c-3.6-4.8-7.1-9.8-10.6-14.8
		c-1.7-2.5-3.1-5.2-4.8-7.7c-0.6-0.8-1.5-1.8-2.3-1.9c-3.3-0.3-4.1-2.4-4.2-5.3c-0.2-6.5-3.4-8.4-9.4-5.4c-0.9,0.4-1.8,1-2.7,1.4
		c-4.3,1.8-7,1.2-9.3-2.8c-1.4-2.7-3.9-4.7-6.8-5.5c-3.1-0.8-3.5-3.1-2.8-6c1.7-6.6,0.8-8.8-5.1-12.1c-5.8-3.2-11.9-5.7-17.6-8.9
		c-6-3.4-10.8-8-12.2-15.3c-0.9-4.9,0.2-6.8,5.2-7.9c2.6-0.6,4.3-1.4,3.5-4.5c-0.5-2,0.3-3.1,2.4-3.4c7.5-1.1,15-2,22.4-3.7
		c4-0.9,7.7-2.7,11-5.3c4-3.3,3.9-8,1-12.4c-1.2-1.6-2-3.5-2.3-5.5c0.1-3.2-2.1-6-5.1-6.8c-5.5-1.8-10-4.6-12.6-10.1
		c-0.8-1.6-3.3-2.3-4.7-3.6s-3.2-2.9-3.5-4.6c-1-5.9-0.3-11.6,3.2-16.7c3-4.3,7.5-5.5,12.3-5.8c4.3,0,8.5-1.9,11.3-5.2
		c1.7-1.9,5.1-2.2,8.1-3.5c-0.1-3.8-2-7.3-5.2-9.4c-12-8-19.8-19.9-29.2-30.3c-6-6.7-12.1-13.3-18.3-19.8c-3.6-3.9-6.2-3.9-9.5,0
		c-2,2.6-5.3,4-8.7,3.5c-1.6-0.2-3.3-0.1-4.9-0.3c-4.8-0.6-8.5,1-10.4,5.7c-1.8,4.5-5.4,7-9.6,8.7c-10.2,4.1-19.5,10.3-27.3,18
		c-1.2,1.2-2.8,1.9-4.5,2.1c-10.7,1-19.2,5.7-24.9,14.7c-5.5,8.9-13.9,13.5-23.3,16.6c-12.2,4.1-18.7,13-21.6,25.1
		c-0.1,0.5-0.1,1-0.2,1.5c-0.9,2.5-12.9,8.1-15.4,7.2c-9.5-3.3-13.1-2-18.3,6.4c-0.3,0.6-0.7,1.1-1.2,1.5c-4.5,3.1-7.9,6.8-7.9,12.9
		c0,1.2-2.7,3.2-4.4,3.6c-6.6,1.5-10.5,5.2-12.6,11.7c-2.1,6.2-8.7,12.7-14.2,15.2c-3.5-7.3-7.4-14.1-5.4-23.2
		c1.3-6-0.2-12.8-1.1-19.2c-0.3-1.8-2.8-3.4-4.5-4.8c-3.6-2.9-7.4-5.7-7.4-10.9c0-2,0.9-5.3,2-5.5c2.6-0.6,5.5,0.1,8.3,0.5
		c1.5,0.4,3,0.9,4.4,1.7c0.6,0.2,1.1,0.5,1.5,1c1.7,3.6,3.4,2.1,5.5,0.3s4.8-3.2,8.1-5.2c0.3-2-2.2-3.3-4-4.8s-4-2.4-5.5-4.1
		c-2-2.3-4.2-4.9-5-7.8c-0.8-3.5-3.2-6.4-6.6-7.7c-3-1.3-6.1-2.6-9-4c-5.2-2.5-6.6-8-3.2-12.3c0.5-0.6,1.3-1.6,1.6-1.4
		c5,1.5,8-3.8,12.9-3.3c5.3,0.5,6.6-2.1,4.3-6.8c-1.1-2.2-0.2-3.4,1.8-4.1c3.1-1.1,4.6-3.2,4-6.4s-3.1-4.5-6.1-4.7
		c-4.3-0.3-8.6-0.6-12.9-0.6c-2.6,0-4.5-0.7-6-3.1c-3.3-5-6.7-5.8-12-3.1c-1.5,0.7-2.9,1.6-4.3,2.4c-5.5,3.2-9.8,1.8-12.4-4
		c-0.9-2-1.5-4.2-2.8-5.7s-3.6-3.4-5.7-3.8c-8.2-1.5-13.5-6-14.4-14.1c-0.5-4.6-3-6.9-6.9-7.1c-11.7-0.6-17.8-8.5-23.5-17.1
		c-1.6-2.4-2.3-5.3-3.2-8.1c-2.2-7.1-4.5-9.1-11.8-9.7c-3.9-0.2-7.8-0.7-11.6-1.5c-1.9-0.4-4.4-1.8-4.9-3.4s0.7-4.3,2.1-5.5
		c2-1.7,4.4-2.8,7-3.2c9.5-1.1,19.1-0.2,28.3,2.6c7,2.3,10.3-0.3,10-7.5c-0.3-6.5-0.1-6.3,5.5-9.3c1.7-1.1,2.9-2.9,3.4-4.8
		c1-3.9,1-8,2-11.9c1.4-5.4-0.3-9.7-3.8-13.6c-1.7-1.9-3.7-2.1-6.2-1.4c-5.3,1.6-7,0.6-10.1-3.9c-1.6-2.1-3.6-3.9-5.9-5.1
		c-10.8-5.8-21.7-11.5-30.9-20c-4.6-4.2-8.4-8.8-9.8-15c-0.8-3.5-2.5-6.2-6.3-7.4c-1-0.3-2.2-2.9-1.9-4.1c0.9-3.8-0.7-5.9-3-8.7
		c-3.1-3.6-5.1-8.1-7.6-12.2c-0.2-0.3-0.4-0.9-0.2-1.1c3.2-4.8,1.7-12.4,8.9-14.8c5.3-1.7,10.5-3.7,15.8-5.3
		c8.5-2.5,10.3-9,9.5-17.5c-0.5-1.4-1.7-2.5-3.2-2.9c-5.8,0.1-8.6-3.5-11.1-7.9c-2-3.4-3.4-7.4-8.9-6.8c-2.4,0.3-3.4-3.1-2.2-6.1
		c0.8-2,2.8-3.9,0.4-6.1s-4.9-1.8-7.4-0.6c-4.6,2.2-9.1,3-13.6-0.2c-0.7-0.5-1.6-0.7-2.5-0.6c-5.6,1.2-8.6-2.6-11.8-6.1
		c-2-2.1-3.7-4.5-5.7-6.6c-1.7-1.8-2.8-1.3-3.3,1c-0.9,3.9-2.6,4.5-5.8,2.1c-2.3-1.5-3.3-4.5-2.3-7.1c0.8-3,3.6-4.9,6.7-4.6
		c2.1,0.2,4.2,1.3,6.3,1.2s4.4-1.2,6.6-1.8c-0.6-2-0.8-4.3-2-6c-4.1-5.8-9.3-9.4-17.1-8.2c-3.6,0.5-4.4-0.9-3-4.3
		c1.2-2.3,0.7-5.2-1.3-6.9c-2.9-3-2.7-6.5-0.3-9.3c3.6-4.2,7.3-8.6,11.7-11.9c7.7-5.7,15.8-11,24.1-15.8c5.1-3,7.7-2,11.8,2.2
		c4,4,6.1,4.6,11.1,2.1c3.4-1.6,6.1-0.8,8,2c2.8,4.4,6.8,6.5,11.6,7.8c3.1,0.9,6,2.8,8.8,4.4c4.1,2.4,8.3,4.1,13.3,3.6
		c3.9-0.3,5.7,1.5,5.9,5.1l-6.9,1.2c-3.3,0.6-3.3,2.9-2.3,5.1c0.8,1.7,2.5,3.1,3.9,4.5c12.3,11.9,27.5,17.3,44.1,18.9
		c2.6,0.3,5.8-1,8-2.5c6.3-4.1,16.4-3.8,21.8,1.5c3.8,3.7,7.5,7.6,11.2,11.4c3.9,4,8.3,7,14.3,6.9c1,0,2.3,1.2,3.1,2.1
		c1.2,1.3,1.9,3,3.1,4.2c2.9,2.7,6.1,1.7,7.3-2.1c0.1-0.4,0.1-0.8,0.2-1.1c1.8-7.9,3.2-8.5,10.6-5.3c1,0.4,3.3-0.1,3.7-0.9
		c1.2-2.8,2.2-5.8,3-8.8c0.3-1.1,0.2-2.5,0.8-3.2c1.6-1.7,1.8-3.3,1.1-5.5c-0.4-1.1,0.4-3,1.2-4c1.9-2.5,4.8-4.3,4-8.1
		c0-0.2,0-0.6,0.2-0.7c4.9-3.3,1.1-5.4-1-8c-1.2-1.5-1.6-3.8-2.9-5.3c-2.9-3.6-6.2-7-9.6-10.2c-1.7-1.5-4.3-2.2-6.6-2.8
		c-6.7-1.6-12.7-5.3-17-10.6c-1.4-1.6-4-2.2-6-3.3c-3.7-2-7.6-3.6-9.1-8c-0.2-0.5-0.3-1.2-0.6-1.4c-4.4-2-3.1-5.7-3-9.2
		c-0.1-1.5-0.4-2.9-1.1-4.3c-1.1-2.3-2.4-4.5-3.8-7.1 M117.4,238.1c-1.6,0-2.4,0-3.1,0c-3.5,0.3-6,3.3-5.4,6.3
		c0.6,3,3.5,4.9,6.5,4.4c0.3-0.1,0.5-0.1,0.8-0.2c2-0.7,3.9-1.8,5.4-3.3c1-1,2.2-3,1.8-4.1c-0.5-1.3-2.4-2.2-3.8-3
		C118.8,238,118.1,237.9,117.4,238.1"/>
	<path class="st1" d="M203.3,591.7c-1.2-0.4-2.3-0.8-3.5-1.3c-5.3-2.1-10.4-5.2-15.8-6c-7.1-1.1-14.4-4.5-21.8-0.9
		c-1.3,0.5-2.7,0.3-3.8-0.5c-6-6.4-14.4-7.8-22.1-10.5c-10.7-3.8-21.7-6.7-32.6-9.9c-7.7-2.3-10.9-6-11.7-13.9
		c-0.4-1.7-1.1-3.3-2.1-4.7c-3.5-5.4-7.1-10.7-10.8-16c-1.6-2.4-3.4-4.8-5.3-7c-0.6-0.6-2.2-0.5-3.3-0.3c-6.6,0.9-11.8-2.2-16.8-5.8
		c-1-0.9-1.7-2.2-2-3.5c-3.5-13.3-10.4-24.4-21.3-32.8c-6.4-4.9-8.7-11.9-10.4-19.3c-1.2-4.9-2.4-9.8-3.6-14.8
		c-1.3-5.3-3.1-6.7-8.5-8c-1.6-0.4-3.4-2.6-4-4.3c-1.7-4.6-2.8-9.3-4-13.4c2.8-0.6,6.2-1.6,9.7-2.1c2.4-0.3,4.8-0.3,7.1,0.1
		c4.7,0.8,8.7,0.1,12.2-3.4c2-2,4.1-3.8,6.3-5.5c2.8-2.1,6-2.3,8.2,0.3c5,5.6,9.5,11.5,13.6,17.7c1.4,2.2,0.4,6,0.2,9.1
		c-0.1,1.7-1.5,3.4-1.4,5.1c0.1,2.1,0.5,5.2,1.8,5.9c1.7,0.9,4.5,0.1,6.6-0.6c1.2-0.3,2-1.9,2.9-2.9c3.2-3.3,6.7-3.1,8.9,1
		c1,2.2,1.7,4.5,2,6.9c0.7,3.8,2.9,5.7,6.8,5.8c2,0,4.2-0.2,6,0.4c2.2,0.6,4.3,1.8,5.9,3.5c3.5,4.2,6.8,4.8,11.2,1.3
		c2.5-2,4.9-4,7.3-6.1c3.3-3.1,7.8-4.5,12.3-4c4.1,0.5,7.8,0.1,11.3-2.9s12.7,2.6,13.2,7.9c0.6,5.3,0.7,10.6,0.5,15.9
		c-0.1,2.3-2,4.5-3.2,6.7c-0.8,1.5-2.1,2.9-2.7,4.5c-1.3,3.3-0.4,5.2,3.1,6.4c1.6,0.5,3.1,1,4.7,1.4c2.8,0.7,4.5,2.3,6.1,5
		s4.3,4.4,6.9,6.1c2.6,1.7,5.7,2.7,8.5,4.3c4.4,2.6,4.9,6.1,1,9.1c-6.2,4.9-5.5,11.6-1.5,16.5c7.1,9,11.9,19.6,14,30.8
		c1.4,7.3,5,13.2,9.4,18.8c1.5,1.9,2.9,3.9,4.1,5.9c0.5,1,0.9,2.1,1.1,3.3L203.3,591.7"/>
</g>
<path class="st2" d="M535.6,73.3c-1,0-1.8-0.7-2-1.6c-0.6-3.2-0.8-5-0.8-5c-0.1-1.1,0.6-2.1,1.7-2.3c1.1-0.1,2.1,0.6,2.3,1.7
	c0,0,0.2,1.7,0.8,4.8c0.2,1.1-0.5,2.1-1.6,2.3c0,0,0,0,0,0C535.9,73.3,535.7,73.3,535.6,73.3z"/>
<path class="st2" d="M729.6,278.7c-0.2,0-0.4,0-0.6-0.1c-3.1-1-6.3-2-9.5-3.1c-1-0.4-1.6-1.5-1.2-2.6c0.4-1,1.5-1.6,2.6-1.2
	c3.1,1.1,6.3,2.2,9.3,3.1c1.1,0.3,1.6,1.5,1.3,2.5C731.2,278.1,730.4,278.7,729.6,278.7z M710.9,272.1c-0.2,0-0.5,0-0.7-0.1
	c-3.1-1.2-6.2-2.4-9.2-3.7c-1-0.5-1.4-1.7-1-2.7c0.4-0.9,1.5-1.4,2.5-1c3,1.3,6.1,2.5,9.1,3.7c1,0.4,1.5,1.6,1.1,2.6
	C712.4,271.6,711.7,272.1,710.9,272.1L710.9,272.1z M692.7,264.5c-0.3,0-0.6-0.1-0.8-0.2c-3-1.4-6-2.8-9-4.3c-1-0.5-1.4-1.7-0.9-2.7
	c0.5-1,1.7-1.4,2.7-0.9l0,0c2.9,1.4,5.9,2.9,8.9,4.2c1,0.5,1.4,1.6,1,2.6C694.1,264,693.4,264.5,692.7,264.5L692.7,264.5z
	 M674.9,255.7c-0.3,0-0.6-0.1-0.9-0.2c-2.9-1.6-5.8-3.2-8.7-4.8c-1-0.6-1.3-1.8-0.7-2.7c0.6-1,1.8-1.3,2.7-0.7
	c2.8,1.6,5.7,3.2,8.6,4.7c1,0.5,1.4,1.7,0.8,2.7C676.4,255.3,675.7,255.7,674.9,255.7L674.9,255.7z M657.8,245.9
	c-0.4,0-0.7-0.1-1-0.3c-2.8-1.7-5.7-3.5-8.4-5.4c-0.9-0.6-1.2-1.8-0.7-2.7c0.6-0.9,1.8-1.2,2.7-0.7c0,0,0.1,0.1,0.1,0.1
	c2.7,1.8,5.5,3.6,8.3,5.3c0.9,0.6,1.2,1.8,0.7,2.7C659.2,245.5,658.5,245.9,657.8,245.9L657.8,245.9z M641.3,234.9
	c-0.4,0-0.8-0.1-1.2-0.4c-2.7-1.9-5.4-3.9-8-5.9c-0.9-0.7-1-1.9-0.4-2.8s1.9-1,2.8-0.4c2.6,2,5.2,3.9,7.9,5.8
	c0.9,0.6,1.1,1.9,0.5,2.8C642.5,234.6,641.9,235,641.3,234.9L641.3,234.9z M625.6,222.9c-0.5,0-0.9-0.2-1.3-0.5
	c-2.6-2.1-5.1-4.3-7.6-6.5c-0.8-0.7-0.9-2-0.2-2.8s2-0.9,2.8-0.2c2.4,2.1,4.9,4.3,7.4,6.4c0.9,0.7,1,2,0.3,2.8
	C626.8,222.7,626.2,223,625.6,222.9z M610.9,209.8c-0.5,0-1-0.2-1.4-0.6c-1.7-1.6-3.4-3.3-5-5l-2-2c-0.8-0.8-0.7-2.1,0.1-2.8
	c0.8-0.8,2.1-0.7,2.8,0.1l1.9,2c1.6,1.7,3.3,3.3,5,4.9c0.8,0.8,0.8,2,0,2.8c0,0,0,0,0,0C611.9,209.6,611.4,209.8,610.9,209.8
	L610.9,209.8z M597.2,195.5c-0.6,0-1.1-0.2-1.5-0.7c-2.2-2.5-4.4-5-6.5-7.6c-0.7-0.9-0.6-2.1,0.3-2.8c0.9-0.7,2.1-0.6,2.8,0.3
	c2.1,2.5,4.2,5,6.4,7.5c0.7,0.8,0.7,2.1-0.2,2.8C598.2,195.3,597.7,195.5,597.2,195.5L597.2,195.5z M584.7,180.2
	c-0.6,0-1.2-0.3-1.6-0.8c-2-2.6-4-5.3-5.9-8c-0.7-0.9-0.5-2.1,0.4-2.8c0.9-0.7,2.1-0.5,2.8,0.4c0,0,0.1,0.1,0.1,0.1
	c1.9,2.7,3.8,5.3,5.8,7.9c0.7,0.9,0.5,2.1-0.4,2.8C585.5,180.1,585.1,180.2,584.7,180.2L584.7,180.2z M573.3,164.1
	c-0.7,0-1.3-0.3-1.7-0.9c-1.8-2.8-3.6-5.6-5.3-8.4c-0.6-0.9-0.3-2.2,0.7-2.7s2.2-0.3,2.7,0.7c1.7,2.8,3.4,5.6,5.2,8.3
	c0.6,0.9,0.3,2.2-0.6,2.8c0,0,0,0,0,0C574,164,573.7,164.1,573.3,164.1L573.3,164.1z M563.1,147.1c-0.7,0-1.4-0.4-1.8-1
	c-1.6-2.9-3.2-5.9-4.7-8.8c-0.5-1-0.2-2.2,0.8-2.7c1-0.5,2.2-0.2,2.7,0.8c0,0,0,0.1,0.1,0.1c1.5,2.9,3,5.8,4.6,8.7
	c0.5,1,0.2,2.2-0.8,2.7C563.8,147,563.4,147.1,563.1,147.1z M554.2,129.5c-0.8,0-1.5-0.5-1.8-1.2c-1.4-3-2.7-6.1-4-9.1
	c-0.5-1,0-2.2,1-2.6c1-0.5,2.2,0,2.6,1c0,0,0,0.1,0,0.1c1.3,3,2.6,6,4,9c0.5,1,0,2.2-1,2.6c0,0,0,0,0,0
	C554.8,129.4,554.5,129.5,554.2,129.5L554.2,129.5z M546.6,111.2c-0.8,0-1.6-0.5-1.9-1.3c-1.2-3.1-2.3-6.3-3.3-9.4
	c-0.4-1,0.1-2.2,1.1-2.6c1-0.4,2.2,0.1,2.6,1.1c0,0.1,0.1,0.1,0.1,0.2c1,3.1,2.1,6.2,3.3,9.3c0.4,1-0.1,2.2-1.2,2.6
	C547,111.2,546.8,111.2,546.6,111.2L546.6,111.2z M540.3,92.5c-0.9,0-1.7-0.6-1.9-1.4c-0.9-3.2-1.8-6.5-2.6-9.6
	c-0.3-1.1,0.4-2.2,1.5-2.4c1.1-0.3,2.2,0.4,2.4,1.5c0.8,3.1,1.6,6.3,2.5,9.5c0.3,1.1-0.3,2.2-1.4,2.5
	C540.7,92.4,540.5,92.5,540.3,92.5L540.3,92.5z"/>
<path class="st2" d="M743.8,282.7c-0.1,0-0.3,0-0.4,0c-0.1,0-1.8-0.4-4.9-1.2c-1.1-0.3-1.7-1.4-1.3-2.5c0.3-1,1.3-1.6,2.3-1.4
	c3,0.8,4.7,1.2,4.8,1.2c1.1,0.1,1.9,1.1,1.8,2.2C745.9,282.1,744.9,282.9,743.8,282.7L743.8,282.7z"/>
<path class="st2" d="M739.4,303.6c-1.1,0-2-0.9-2-2c0-0.7,0.4-1.4,1.1-1.8c2.9-1.5,4.5-2.3,4.5-2.3c1-0.5,2.2,0,2.6,1
	c0.4,1,0,2.1-0.9,2.6c0,0-1.6,0.8-4.4,2.2C740.1,303.5,739.7,303.6,739.4,303.6z"/>
<path class="st2" d="M533.2,624.5H533c-1.1-0.1-1.9-1.1-1.8-2.2c0,0,0,0,0,0c0.3-3.2,0.8-6.6,1.2-10c0.1-1.1,1.2-1.9,2.3-1.7
	c1.1,0.1,1.9,1.2,1.7,2.3c-0.4,3.3-0.8,6.7-1.2,9.9C535.1,623.7,534.3,624.5,533.2,624.5z M535.8,604.7h-0.3
	c-1.1-0.2-1.8-1.2-1.7-2.3c0.5-3.3,1-6.6,1.6-9.9c0.2-1.1,1.3-1.8,2.4-1.6c1,0.2,1.7,1.2,1.6,2.2c-0.6,3.3-1.1,6.6-1.6,9.8
	C537.7,603.9,536.8,604.7,535.8,604.7z M539.2,585h-0.4c-1.1-0.2-1.8-1.3-1.6-2.3c0.6-3.3,1.3-6.6,2-9.8c0.2-1.1,1.3-1.8,2.4-1.5
	c1.1,0.2,1.8,1.3,1.5,2.4c-0.7,3.2-1.3,6.5-2,9.8C541,584.3,540.2,585,539.2,585z M543.4,565.5c-0.1,0-0.3,0-0.5,0
	c-1.1-0.2-1.7-1.3-1.5-2.4c0.7-3.3,1.5-6.5,2.3-9.7c0.3-1.1,1.4-1.7,2.4-1.4s1.7,1.4,1.4,2.4c-0.8,3.2-1.6,6.4-2.3,9.7
	C545.1,564.9,544.3,565.5,543.4,565.5z M548.2,546.1c-0.2,0-0.4,0-0.5-0.1c-1.1-0.3-1.7-1.4-1.4-2.5c0.9-3.2,1.8-6.5,2.7-9.7
	c0.3-1,1.5-1.6,2.5-1.3c1,0.3,1.6,1.4,1.3,2.4c-0.9,3.2-1.8,6.4-2.7,9.6C549.9,545.5,549.1,546.1,548.2,546.1L548.2,546.1z
	 M553.7,527c-0.2,0-0.4,0-0.6-0.1c-1.1-0.3-1.6-1.4-1.3-2.5c1-3.2,2-6.4,3.1-9.5c0.3-1,1.5-1.6,2.5-1.3c1,0.3,1.6,1.5,1.3,2.5
	c-1,3.1-2,6.3-3,9.5C555.4,526.4,554.6,527,553.7,527z M560,508c-0.2,0-0.4,0-0.7-0.1c-1-0.4-1.6-1.5-1.2-2.5
	c1.1-3.2,2.3-6.3,3.4-9.4c0.4-1,1.5-1.6,2.6-1.2c1,0.4,1.6,1.5,1.2,2.6l0,0c-1.2,3.1-2.3,6.2-3.4,9.3C561.6,507.4,560.8,508,560,508
	z M567,489.3c-0.3,0-0.5,0-0.7-0.1c-1-0.4-1.5-1.6-1.1-2.6c0,0,0,0,0,0c1.3-3.1,2.5-6.2,3.8-9.3c0.4-1,1.6-1.5,2.6-1.1
	c1,0.4,1.5,1.6,1.1,2.6l0,0c-1.3,3-2.6,6.1-3.8,9.2C568.6,488.8,567.8,489.3,567,489.3L567,489.3z M574.9,471
	c-0.3,0-0.6-0.1-0.8-0.2c-1-0.5-1.5-1.6-1-2.6c1.4-3,2.8-6.1,4.2-9.1c0.4-1,1.6-1.5,2.6-1.1c1,0.4,1.5,1.6,1.1,2.6
	c0,0.1-0.1,0.1-0.1,0.2c-1.4,3-2.8,6-4.2,9C576.4,470.5,575.6,470.9,574.9,471z M583.5,453c-0.3,0-0.6-0.1-0.9-0.2
	c-1-0.5-1.4-1.7-0.9-2.7c1.5-3,3.1-6,4.7-8.9c0.6-0.9,1.8-1.2,2.7-0.7c0.9,0.5,1.2,1.7,0.8,2.6c-1.6,2.9-3.1,5.8-4.6,8.8
	C585,452.5,584.3,453,583.5,453L583.5,453z M593.1,435.4c-1.1,0-2-0.9-2-2c0-0.4,0.1-0.7,0.3-1c1.7-2.9,3.4-5.8,5.1-8.6
	c0.6-0.9,1.8-1.2,2.8-0.6c0.9,0.6,1.2,1.8,0.6,2.7c-1.7,2.8-3.4,5.7-5.1,8.5C594.4,435.1,593.8,435.5,593.1,435.4L593.1,435.4z
	 M603.6,418.4c-1.1,0-2-0.9-2-2c0-0.4,0.1-0.8,0.3-1.1c1.8-2.7,3.8-5.5,5.8-8.2c0.7-0.9,1.9-1,2.8-0.3c0.8,0.7,1,1.8,0.4,2.7
	c-2,2.7-3.9,5.4-5.7,8.1C604.9,418.1,604.2,418.5,603.6,418.4L603.6,418.4z M615.4,402.5c-0.5,0-0.9-0.2-1.3-0.4
	c-0.9-0.7-1-1.9-0.3-2.8c2.1-2.6,4.2-5.2,6.4-7.7c0.6-0.9,1.9-1.1,2.8-0.5c0.9,0.6,1.1,1.9,0.5,2.8c-0.1,0.1-0.2,0.2-0.3,0.3
	c-2.2,2.5-4.3,5.1-6.3,7.6C616.6,402.2,616,402.5,615.4,402.5z M628.4,387.4c-1.1,0-2-0.9-2-2c0-0.5,0.2-1,0.5-1.4
	c2.2-2.4,4.6-4.9,6.9-7.3c0.7-0.8,2-0.9,2.8-0.2c0.8,0.7,0.9,2,0.2,2.8c0,0-0.1,0.1-0.1,0.1c-2.3,2.4-4.6,4.8-6.8,7.2
	C629.5,387.1,629,387.3,628.4,387.4z M642.4,373.1c-0.5,0-1.1-0.2-1.4-0.6c-0.8-0.8-0.7-2.1,0.1-2.8c0,0,0,0,0,0
	c2.4-2.3,4.8-4.6,7.3-6.9c0.8-0.7,2.1-0.7,2.8,0.2c0.7,0.8,0.7,2.1-0.2,2.8l0,0c-2.5,2.2-4.9,4.5-7.2,6.8
	C643.4,372.9,642.8,373.1,642.4,373.1L642.4,373.1z M657.1,359.7c-1.1,0-2-0.9-2-2c0-0.6,0.3-1.1,0.7-1.5c2.5-2.2,5.1-4.3,7.7-6.5
	c0.8-0.7,2.1-0.6,2.8,0.3c0.7,0.8,0.6,2.1-0.3,2.8c0,0,0,0,0,0c-2.6,2.1-5.1,4.3-7.6,6.4C658,359.5,657.6,359.7,657.1,359.7
	L657.1,359.7z M672.5,347c-0.6,0-1.2-0.3-1.6-0.8c-0.7-0.9-0.5-2.1,0.3-2.8c0,0,0,0,0,0c2.6-2,5.3-4.1,8-6.1
	c0.9-0.7,2.1-0.5,2.8,0.4c0.7,0.9,0.5,2.1-0.4,2.8c-2.7,2-5.3,4-7.9,6C673.4,346.8,673,347,672.5,347L672.5,347z M688.5,335.1
	c-1.1,0-2-0.9-2-2c0-0.6,0.3-1.3,0.8-1.6c2.7-1.9,5.5-3.8,8.2-5.7c0.9-0.6,2.2-0.4,2.8,0.5c0.6,0.9,0.4,2.2-0.5,2.8l0,0
	c-2.7,1.9-5.5,3.8-8.2,5.7C689.4,334.9,688.9,335.1,688.5,335.1L688.5,335.1z M705.1,323.8c-1.1,0-2-0.9-2-2c0-0.7,0.3-1.3,0.9-1.7
	c2.8-1.8,5.6-3.6,8.5-5.4c0.9-0.6,2.2-0.3,2.8,0.6c0.6,0.9,0.3,2.2-0.6,2.8c0,0,0,0,0,0c-2.8,1.7-5.6,3.5-8.4,5.3
	C705.8,323.7,705.4,323.9,705.1,323.8L705.1,323.8z M722.1,313.3c-1.1,0-2-0.9-2-2c0-0.7,0.4-1.3,1-1.7c2.9-1.7,5.8-3.4,8.7-5
	c1-0.6,2.2-0.2,2.7,0.7c0.6,1,0.2,2.2-0.7,2.7c-2.8,1.6-5.7,3.2-8.6,5C722.8,313.3,722.4,313.4,722.1,313.3L722.1,313.3z"/>
<path class="st2" d="M531.9,639.2L531.9,639.2c-1.2-0.1-2.1-1-2-2.1c0,0,0,0,0,0c0-0.1,0.1-1.8,0.3-5c0.1-1.1,1.1-1.9,2.2-1.8
	c1.1,0.1,1.9,1.1,1.8,2.2l0,0c-0.3,3.2-0.3,4.9-0.3,4.9C533.9,638.4,533,639.2,531.9,639.2z"/>
<path class="st2" d="M736,295.8c-1.1,0-2-0.9-2-2c0-1.1,0.9-2,2-2l5-0.1c1.1,0,2,0.9,2,2c0,1.1-0.8,2-1.9,2c0,0,0,0,0,0L736,295.8
	L736,295.8z"/>
<path class="st2" d="M715.7,296c-1.1,0-2-0.9-2-2c0-1.1,0.9-2,2-2h10.1l0,0c1.1,0,2,0.9,2,2c0,1.1-0.9,2-2,2H715.7L715.7,296z
	 M705.6,296L705.6,296l-10.1-0.1c-1.1,0-2-0.9-2-2c0-1.1,0.9-2,2-2l10.1,0.1c1.1,0,2,0.9,2,2C707.6,295,706.7,295.9,705.6,296
	L705.6,296z M685.3,295.8L685.3,295.8l-10.2-0.1c-1.1,0-2-0.9-2-2c0-1.1,0.9-2,2-2l10.1,0.1c1.1,0,2,0.9,2,2
	C687.2,294.9,686.3,295.8,685.3,295.8L685.3,295.8z M665,295.4L665,295.4l-10.2-0.2c-1.1,0-2-0.9-2-2c0,0,0,0,0-0.1c0-1.1,0.9-2,2-2
	c0,0,0,0,0,0l10.1,0.2c1.1,0,2,0.9,2,2C667,294.5,666.1,295.4,665,295.4L665,295.4z M644.7,295L644.7,295l-10.2-0.3
	c-1.1,0-2-1-1.9-2.1c0-1.1,1-2,2.1-1.9l10.1,0.3c1.1,0,2,0.9,2,2C646.7,294.1,645.8,295,644.7,295z M624.4,294.3L624.4,294.3
	l-10.2-0.4c-1.1,0-2-1-1.9-2.1c0-1.1,1-2,2.1-1.9l10.1,0.4c1.1,0,2,0.9,2,2C626.4,293.4,625.5,294.3,624.4,294.3L624.4,294.3z
	 M604.1,293.4L604.1,293.4l-10.2-0.5c-1.1-0.1-1.9-1-1.9-2.1c0.1-1.1,1-2,2.1-1.9c0,0,0,0,0,0c3.4,0.2,6.8,0.3,10.1,0.5
	c1.1,0,2,0.9,2,2C606.1,292.5,605.2,293.4,604.1,293.4L604.1,293.4z M583.9,292.3h-0.1l-10.1-0.6c-1.1-0.1-1.9-1-1.9-2.1
	c0.1-1.1,1-1.9,2.1-1.9l10.1,0.6c1.1,0,2,1,1.9,2.1C585.9,291.4,585,292.3,583.9,292.3L583.9,292.3z M563.6,291h-0.1l-10.1-0.7
	c-1.1-0.1-1.9-1-1.8-2.1c0.1-1.1,1-1.9,2.2-1.9l10.1,0.7c1.1,0,2,1,1.9,2.1C565.6,290.1,564.7,291,563.6,291L563.6,291z
	 M543.4,289.5h-0.2c-3.4-0.3-6.7-0.5-10.1-0.8c-1.1-0.1-1.9-1.1-1.8-2.2c0.1-1.1,1.1-1.9,2.2-1.8c3.4,0.3,6.7,0.6,10.1,0.8
	c1.1,0,2,1,1.9,2.1C545.4,288.7,544.5,289.5,543.4,289.5z M523.2,287.8H523c-3.4-0.3-6.7-0.6-10.1-0.9c-1.1-0.1-1.9-1.1-1.8-2.2
	c0.1-1.1,1.1-1.9,2.2-1.8l0,0c3.4,0.3,6.7,0.6,10.1,0.9c1.1,0,2,1,1.9,2.1C525.2,287,524.3,287.8,523.2,287.8L523.2,287.8z
	 M503,285.8h-0.2c-3.4-0.4-6.7-0.7-10.1-1.1c-1.1-0.1-1.9-1.1-1.8-2.2c0.1-1.1,1.1-1.9,2.2-1.8c3.3,0.4,6.7,0.7,10.1,1.1
	c1.1,0.1,2,1,1.9,2.1C505.1,285,504.1,285.9,503,285.8L503,285.8z M482.9,283.6h-0.2c-3.3-0.4-6.7-0.8-10.1-1.2
	c-1.1-0.1-1.9-1.1-1.8-2.3c0.1-1.1,1.1-1.9,2.3-1.8c3.3,0.4,6.7,0.8,10.1,1.2c1.1,0.1,1.9,1,1.9,2.1
	C484.9,282.8,484,283.7,482.9,283.6z M462.7,281.1h-0.3c-3.4-0.4-6.7-0.9-10.1-1.4c-1.1-0.2-1.9-1.2-1.7-2.3
	c0.2-1.1,1.2-1.9,2.3-1.7c3.3,0.5,6.7,0.9,10.1,1.4c1.1,0.1,1.9,1,1.9,2.1C464.7,280.4,463.8,281.2,462.7,281.1L462.7,281.1z
	 M442.6,278.3h-0.3c-3.3-0.5-6.7-1-10-1.5c-1.1-0.2-1.8-1.2-1.6-2.3c0.2-1.1,1.2-1.8,2.3-1.7c3.3,0.5,6.7,1,10,1.5
	c1.1,0.1,1.9,1,1.9,2.1C444.7,277.6,443.8,278.4,442.6,278.3L442.6,278.3z M422.6,275.1c-0.1,0-0.2,0-0.3,0c-3.3-0.6-6.7-1.2-10-1.8
	c-1.1-0.2-1.8-1.2-1.6-2.3c0.2-1.1,1.2-1.8,2.3-1.6c3.3,0.6,6.6,1.2,10,1.8c1.1,0.1,1.9,1.1,1.8,2.2
	C424.7,274.4,423.8,275.2,422.6,275.1L422.6,275.1z M402.6,271.5c-0.1,0-0.3,0-0.4,0c-3.3-0.6-6.7-1.3-10-2
	c-1.1-0.2-1.8-1.3-1.6-2.4c0.2-1.1,1.3-1.8,2.4-1.6c3.3,0.7,6.6,1.3,9.9,2c1.1,0.1,1.9,1.1,1.8,2.2
	C404.7,270.8,403.7,271.6,402.6,271.5L402.6,271.5L402.6,271.5z M382.8,267.4c-0.1,0-0.3,0-0.4,0h-0.1c-3.3-0.7-6.5-1.4-9.8-2.2
	c-1.1-0.2-1.8-1.3-1.5-2.4c0.2-1.1,1.3-1.8,2.4-1.5c3.2,0.7,6.5,1.5,9.7,2.2h0.1c1.1,0.1,1.9,1.1,1.8,2.2
	C384.8,266.7,383.9,267.5,382.8,267.4L382.8,267.4z M363,262.9c-0.2,0-0.3,0-0.5-0.1c-3.3-0.8-6.6-1.6-9.9-2.4
	c-1.1-0.3-1.7-1.4-1.4-2.4c0.3-1.1,1.4-1.7,2.4-1.4c3.2,0.8,6.4,1.6,9.8,2.4c1.1,0.2,1.8,1.3,1.5,2.4
	C364.7,262.3,363.9,262.9,363,262.9L363,262.9z M343.3,258c-0.2,0-0.3,0-0.5-0.1c-3.3-0.8-6.6-1.7-9.8-2.5c-1.1-0.3-1.7-1.4-1.3-2.5
	c0.3-1,1.3-1.6,2.3-1.4c3.2,0.9,6.5,1.7,9.8,2.5c1.1,0.3,1.7,1.4,1.4,2.5C344.9,257.4,344.2,258,343.3,258L343.3,258z M323.7,252.9
	c-0.2,0-0.4,0-0.5-0.1c-3.3-0.9-6.5-1.8-9.8-2.7c-1.1-0.2-1.7-1.3-1.5-2.4c0.2-1.1,1.3-1.7,2.4-1.5c0.1,0,0.1,0,0.2,0.1
	c3.2,0.9,6.5,1.8,9.7,2.7c1.1,0.3,1.7,1.4,1.4,2.5C325.4,252.3,324.6,252.9,323.7,252.9z M304.2,247.3c-0.2,0-0.4,0-0.6-0.1
	c-3.3-1-6.5-1.9-9.7-2.9c-1.1-0.3-1.7-1.4-1.4-2.4s1.4-1.7,2.4-1.4c0.1,0,0.1,0,0.2,0.1c3.2,1,6.4,1.9,9.7,2.9
	c1.1,0.3,1.6,1.4,1.3,2.5C305.8,246.7,305.1,247.3,304.2,247.3L304.2,247.3z M284.8,241.3c-0.2,0-0.4,0-0.6-0.1
	c-3.3-1-6.5-2.1-9.7-3.1c-1-0.3-1.6-1.5-1.3-2.5s1.5-1.6,2.5-1.3c3.2,1.1,6.4,2.1,9.6,3.1c1,0.3,1.6,1.5,1.3,2.5
	C286.4,240.7,285.7,241.3,284.8,241.3L284.8,241.3z M265.6,234.9c-0.2,0-0.4,0-0.6-0.1c-3.2-1.1-6.4-2.2-9.6-3.4
	c-1-0.4-1.6-1.5-1.2-2.6s1.5-1.6,2.6-1.2c3.1,1.1,6.3,2.2,9.5,3.4c1,0.4,1.6,1.5,1.2,2.5C267.2,234.4,266.4,234.9,265.6,234.9
	L265.6,234.9z M246.5,228.1c-0.2,0-0.5,0-0.7-0.1c-3.2-1.2-6.4-2.4-9.5-3.6c-1-0.4-1.5-1.6-1.1-2.6c0.4-1,1.6-1.5,2.6-1.1
	c3.1,1.2,6.2,2.4,9.5,3.6c1,0.4,1.6,1.5,1.2,2.6C248.1,227.6,247.3,228.1,246.5,228.1z M227.6,220.8c-0.3,0-0.5,0-0.8-0.1
	c-3.2-1.3-6.4-2.6-9.4-3.9c-1-0.4-1.5-1.6-1.1-2.6s1.6-1.5,2.6-1.1c3,1.3,6.2,2.6,9.4,3.9c1,0.4,1.5,1.6,1.1,2.6
	C229.1,220.3,228.4,220.8,227.6,220.8z M208.9,212.9c-0.3,0-0.5-0.1-0.8-0.2c-3.1-1.4-6.2-2.8-9.3-4.1c-1-0.5-1.4-1.6-1-2.6
	c0.5-1,1.6-1.4,2.6-1c3,1.4,6.1,2.8,9.2,4.1c1,0.4,1.5,1.6,1.1,2.6C210.4,212.5,209.7,213,208.9,212.9L208.9,212.9z M190.4,204.6
	c-0.3,0-0.6-0.1-0.9-0.2c-3.1-1.5-6.2-3-9.1-4.5c-1-0.5-1.3-1.7-0.8-2.7c0.5-0.9,1.6-1.3,2.6-0.9c3,1.5,6,3,9.1,4.4
	c1,0.5,1.4,1.7,1,2.7C191.9,204.1,191.2,204.6,190.4,204.6z M172.3,195.6c-0.3,0-0.6-0.1-0.9-0.2c-3-1.6-6-3.2-9-4.8
	c-1-0.5-1.3-1.7-0.8-2.7c0.5-1,1.7-1.3,2.7-0.8c2.9,1.6,5.9,3.2,8.9,4.8c1,0.5,1.4,1.7,0.8,2.7C173.7,195.1,173,195.5,172.3,195.6
	L172.3,195.6z M154.5,185.8c-0.4,0-0.7-0.1-1-0.3c-3-1.7-5.9-3.4-8.8-5.1c-0.9-0.6-1.3-1.8-0.7-2.7s1.8-1.3,2.7-0.7l0,0
	c2.9,1.7,5.8,3.4,8.7,5.1c1,0.5,1.3,1.8,0.8,2.7C155.9,185.5,155.2,185.8,154.5,185.8L154.5,185.8z M137.1,175.4
	c-0.4,0-0.7-0.1-1.1-0.3c-2.9-1.8-5.8-3.7-8.5-5.6c-1-0.6-1.3-1.8-0.7-2.7c0.6-1,1.8-1.3,2.7-0.7c0.1,0,0.1,0.1,0.2,0.1
	c2.7,1.8,5.6,3.7,8.4,5.5c0.9,0.6,1.2,1.8,0.6,2.8C138.4,175,137.8,175.4,137.1,175.4L137.1,175.4z M120.3,164.1
	c-0.4,0-0.8-0.1-1.1-0.4c-2.8-2-5.6-4-8.2-6c-0.9-0.7-1.1-1.9-0.4-2.8c0.7-0.9,1.9-1.1,2.8-0.4c2.6,2,5.4,4,8.1,5.9
	c0.9,0.6,1.1,1.9,0.5,2.8C121.6,163.8,121,164.1,120.3,164.1L120.3,164.1z M104.1,151.9c-0.5,0-0.9-0.2-1.3-0.4
	c-2.7-2.2-5.3-4.4-7.8-6.5c-0.8-0.7-0.9-2-0.2-2.8c0,0,0,0,0,0c0.7-0.8,2-0.9,2.8-0.2c0,0,0,0,0,0c2.5,2.1,5.1,4.3,7.7,6.4
	c0.9,0.7,1,1.9,0.3,2.8C105.3,151.6,104.7,151.9,104.1,151.9L104.1,151.9z M88.8,138.7c-0.5,0-1-0.2-1.4-0.5c-2.5-2.4-5-4.8-7.3-7.1
	c-0.7-0.8-0.7-2.1,0.2-2.8c0.8-0.7,1.9-0.7,2.7,0c2.3,2.3,4.7,4.7,7.2,7c0.8,0.7,0.9,2,0.1,2.8C89.9,138.4,89.3,138.7,88.8,138.7
	L88.8,138.7z M74.6,124.2c-0.6,0-1.1-0.2-1.5-0.7c-2.4-2.6-4.6-5.3-6.6-7.9c-0.7-0.9-0.5-2.1,0.3-2.8s2.1-0.5,2.8,0.3
	c2,2.5,4.1,5.1,6.4,7.7c0.7,0.8,0.7,2.1-0.2,2.8C75.5,124,75.1,124.2,74.6,124.2L74.6,124.2z"/>
<path class="st2" d="M62.2,108.3c-0.7,0-1.3-0.3-1.7-0.9c-1-1.4-1.9-2.9-2.7-4.5c-0.5-1,0-2.2,1-2.7c1-0.4,2.1-0.1,2.6,0.9
	c0.7,1.4,1.6,2.8,2.4,4.1c0.6,0.9,0.3,2.2-0.6,2.8c0,0,0,0,0,0C62.9,108.2,62.6,108.3,62.2,108.3z"/>
<path class="st3" d="M242,32.9c-0.7,0-1.4-0.4-1.7-1c-1.7-2.9-2.5-4.4-2.5-4.5c-0.5-1-0.2-2.2,0.8-2.7c1-0.5,2.2-0.2,2.7,0.8
	c0,0,0,0.1,0.1,0.1c0,0,0.8,1.5,2.4,4.3c0.6,1,0.2,2.2-0.7,2.7c0,0,0,0,0,0C242.7,32.8,242.3,32.9,242,32.9z"/>
<path class="st3" d="M725,287.2h-0.3c-2.9-0.4-6.3-1-9.9-1.5c-1.1-0.2-1.8-1.2-1.7-2.3c0.2-1.1,1.2-1.8,2.3-1.7c0,0,0,0,0,0
	c3.7,0.6,7,1.1,9.9,1.5c1.1,0.1,1.9,1,1.9,2.1C727.1,286.5,726.1,287.3,725,287.2L725,287.2z M705.2,284h-0.3
	c-3.1-0.5-6.4-1.1-9.9-1.7c-1.1-0.1-1.9-1.1-1.8-2.2s1.1-1.9,2.2-1.8c0.1,0,0.2,0,0.3,0c3.5,0.6,6.8,1.2,9.9,1.7
	c1.1,0.1,1.9,1.1,1.8,2.2C707.3,283.4,706.3,284.2,705.2,284L705.2,284z M685.4,280.5c-0.1,0-0.2,0-0.4,0c-3.2-0.6-6.5-1.2-9.9-1.9
	c-1.1-0.2-1.8-1.3-1.6-2.4c0.2-1.1,1.3-1.8,2.4-1.6c3.4,0.7,6.7,1.3,9.8,1.9c1.1,0.1,1.9,1.1,1.8,2.2
	C687.5,279.9,686.5,280.7,685.4,280.5L685.4,280.5z M665.7,276.7c-0.1,0-0.3,0-0.4,0c-3.2-0.7-6.5-1.3-9.8-2.1
	c-1.1-0.2-1.8-1.3-1.6-2.3s1.3-1.8,2.3-1.6c0,0,0.1,0,0.1,0c3.3,0.7,6.6,1.4,9.8,2c1.1,0.1,1.9,1.1,1.8,2.2
	C667.8,276,666.8,276.8,665.7,276.7L665.7,276.7z M646.1,272.5c-0.1,0-0.3,0-0.4,0c-3.2-0.7-6.5-1.4-9.8-2.2
	c-1.1-0.2-1.8-1.2-1.6-2.3c0.2-1.1,1.2-1.8,2.3-1.6c0.1,0,0.2,0,0.2,0.1c3.3,0.8,6.6,1.5,9.8,2.2c1.1,0.2,1.8,1.3,1.5,2.4
	C647.8,271.8,647,272.5,646.1,272.5L646.1,272.5z M626.6,268c-0.2,0-0.3,0-0.5,0c-3.2-0.8-6.5-1.6-9.8-2.4c-1.1-0.3-1.7-1.4-1.4-2.4
	c0.3-1.1,1.4-1.7,2.4-1.4c3.3,0.8,6.5,1.6,9.7,2.4c1.1,0.3,1.7,1.4,1.5,2.4C628.3,267.3,627.5,267.9,626.6,268L626.6,268z
	 M607.1,263.1c-0.2,0-0.3,0-0.5-0.1c-3.2-0.8-6.4-1.7-9.7-2.6c-1-0.4-1.6-1.5-1.2-2.5c0.3-0.9,1.3-1.5,2.2-1.3
	c3.3,0.9,6.5,1.7,9.7,2.5c1.1,0.3,1.7,1.4,1.5,2.4C608.8,262.5,608,263.1,607.1,263.1L607.1,263.1z M587.7,257.9
	c-0.2,0-0.4,0-0.5-0.1c-3.2-0.9-6.4-1.8-9.7-2.7c-1.1-0.3-1.7-1.4-1.4-2.5c0.3-1.1,1.4-1.7,2.5-1.4l0,0c3.2,0.9,6.4,1.9,9.6,2.7
	c1.1,0.3,1.7,1.4,1.4,2.5C589.4,257.3,588.6,257.9,587.7,257.9z M568.4,252.3c-0.2,0-0.4,0-0.6-0.1c-3.2-1-6.4-1.9-9.6-2.9
	c-1.1-0.3-1.7-1.4-1.4-2.5s1.4-1.7,2.5-1.4c0,0,0.1,0,0.1,0c3.2,1,6.4,2,9.6,2.9c1.1,0.3,1.7,1.4,1.4,2.5
	C570.1,251.7,569.3,252.3,568.4,252.3L568.4,252.3z M549.3,246.3c-0.2,0-0.4,0-0.6-0.1c-3.2-1-6.4-2.1-9.6-3.1
	c-1-0.4-1.6-1.5-1.3-2.5c0.4-1,1.5-1.6,2.5-1.3c3.2,1.1,6.3,2.1,9.5,3.1c1.1,0.3,1.6,1.4,1.3,2.5
	C550.9,245.7,550.1,246.3,549.3,246.3L549.3,246.3z M530.3,239.9c-0.2,0-0.4,0-0.7-0.1c-3.2-1.1-6.3-2.2-9.5-3.4
	c-1-0.4-1.6-1.5-1.2-2.6s1.5-1.6,2.6-1.2c3.1,1.1,6.3,2.3,9.4,3.4c1,0.4,1.6,1.5,1.2,2.5C531.9,239.4,531.1,239.9,530.3,239.9
	L530.3,239.9z M511.4,233c-0.2,0-0.5,0-0.7-0.1c-3.2-1.2-6.3-2.4-9.4-3.6c-1-0.4-1.5-1.6-1.1-2.6c0.4-1,1.6-1.5,2.6-1.1c0,0,0,0,0,0
	c3,1.2,6.2,2.4,9.3,3.6c1,0.4,1.6,1.5,1.2,2.6C513,232.5,512.2,233,511.4,233L511.4,233z M492.7,225.7c-0.3,0-0.5-0.1-0.8-0.1
	c-3.1-1.3-6.2-2.6-9.3-3.9c-1-0.4-1.5-1.6-1-2.6s1.6-1.5,2.6-1c3,1.3,6.1,2.6,9.2,3.9c1,0.4,1.5,1.6,1.1,2.6
	C494.3,225.2,493.6,225.7,492.7,225.7L492.7,225.7z M474.3,217.7c-0.3,0-0.6-0.1-0.8-0.2c-3.1-1.4-6.1-2.8-9.1-4.2
	c-1-0.5-1.4-1.7-0.9-2.7c0.5-1,1.6-1.4,2.6-0.9c3,1.4,6,2.8,9.1,4.2c1,0.5,1.4,1.6,1,2.6C475.8,217.3,475.1,217.7,474.3,217.7z
	 M456.2,209.2c-0.3,0-0.6-0.1-0.9-0.2c-3-1.5-6-3-8.9-4.5l-0.1-0.1c-1-0.5-1.3-1.7-0.8-2.7c0.5-0.9,1.6-1.3,2.6-0.9l0.2,0.1
	c2.9,1.5,5.8,3,8.8,4.4c1,0.5,1.4,1.7,0.9,2.7C457.7,208.8,457,209.2,456.2,209.2z M438.4,200.1c-0.3,0-0.7-0.1-0.9-0.2
	c-3-1.6-5.9-3.2-8.8-4.8c-1-0.5-1.3-1.7-0.8-2.7c0.5-1,1.7-1.3,2.7-0.8c2.9,1.6,5.8,3.2,8.8,4.8c1,0.5,1.3,1.7,0.8,2.7
	C439.8,199.7,439.1,200.1,438.4,200.1L438.4,200.1z M420.8,190.4c-0.4,0-0.7-0.1-1-0.3c-2.9-1.6-5.9-3.3-8.7-5
	c-1-0.5-1.4-1.7-0.9-2.7c0.5-1,1.7-1.4,2.7-0.9c0.1,0,0.2,0.1,0.3,0.2c2.9,1.7,5.8,3.3,8.7,5c1,0.5,1.3,1.8,0.8,2.7
	C422.1,190.1,421.5,190.5,420.8,190.4L420.8,190.4z M403.5,180.3c-0.4,0-0.7-0.1-1-0.3c-2.9-1.7-5.8-3.5-8.6-5.3
	c-0.9-0.6-1.2-1.8-0.6-2.8c0.6-0.9,1.8-1.2,2.8-0.6l0,0c2.8,1.7,5.7,3.5,8.5,5.2c0.9,0.6,1.2,1.8,0.7,2.7
	C404.8,179.9,404.2,180.3,403.5,180.3L403.5,180.3z M386.5,169.7c-0.4,0-0.8-0.1-1.1-0.3c-2.8-1.8-5.6-3.7-8.4-5.5
	c-0.9-0.6-1.2-1.9-0.6-2.8s1.9-1.2,2.8-0.6l0,0c2.8,1.8,5.6,3.7,8.4,5.5c0.9,0.6,1.2,1.8,0.6,2.8
	C387.8,169.4,387.2,169.7,386.5,169.7z M369.7,158.7c-0.4,0-0.8-0.1-1.1-0.4c-2.8-1.9-5.5-3.8-8.3-5.8c-0.9-0.6-1.1-1.9-0.5-2.8
	c0.6-0.9,1.9-1.1,2.8-0.5c2.7,1.9,5.5,3.8,8.2,5.7c0.9,0.6,1.1,1.9,0.5,2.8C371,158.3,370.4,158.6,369.7,158.7z M353.4,147.1
	c-0.4,0-0.8-0.1-1.2-0.4c-2.7-2-5.4-4-8.1-6c-0.8-0.7-1-2-0.3-2.8c0.7-0.8,1.8-1,2.7-0.4c2.6,2,5.3,4,8,6c0.9,0.7,1,1.9,0.3,2.8
	C354.5,146.8,354,147,353.4,147.1z M337.4,134.9c-0.4,0-0.9-0.2-1.2-0.4c-2.6-2.1-5.3-4.2-7.9-6.3c-0.9-0.7-1.1-1.9-0.4-2.8
	c0.7-0.9,1.9-1.1,2.8-0.4c0.1,0,0.1,0.1,0.2,0.1c2.6,2.1,5.2,4.2,7.8,6.2c0.9,0.7,1,1.9,0.3,2.8C338.6,134.7,338,134.9,337.4,134.9z
	 M321.9,122.3c-0.5,0-0.9-0.2-1.3-0.5c-2.6-2.2-5.1-4.4-7.6-6.6c-0.8-0.7-0.9-2-0.2-2.8c0.7-0.8,2-0.9,2.8-0.2
	c2.5,2.2,5,4.4,7.6,6.5c0.8,0.7,1,2,0.2,2.8C323,122,322.5,122.3,321.9,122.3z M306.9,109c-0.5,0-1-0.2-1.4-0.5
	c-2.5-2.3-5-4.6-7.4-6.9c-0.8-0.8-0.8-2-0.1-2.8c0.8-0.8,2-0.8,2.8-0.1l0,0c2.4,2.3,4.8,4.6,7.3,6.8c0.8,0.7,0.9,2,0.1,2.8
	C308,108.8,307.4,109,306.9,109L306.9,109z M292.4,95.2c-0.5,0-1-0.2-1.4-0.6c-2.4-2.4-4.8-4.8-7.1-7.2c-0.8-0.8-0.8-2-0.1-2.8
	c0.8-0.8,2-0.8,2.8-0.1c0,0,0.1,0.1,0.1,0.1c2.3,2.4,4.6,4.8,7,7.1c0.8,0.8,0.8,2,0,2.8C293.4,95,292.9,95.2,292.4,95.2z
	 M278.4,80.7c-0.6,0-1.1-0.2-1.5-0.6c-2.3-2.5-4.5-5-6.7-7.5c-0.8-0.8-0.8-2,0-2.8s2-0.8,2.8,0c0.1,0.1,0.1,0.1,0.2,0.2
	c2.1,2.5,4.4,5,6.6,7.4c0.7,0.8,0.7,2.1-0.1,2.8c0,0,0,0,0,0C279.4,80.5,278.9,80.7,278.4,80.7z M265.3,65.6c-0.6,0-1.2-0.3-1.5-0.7
	c-2.2-2.6-4.3-5.3-6.3-7.9c-0.7-0.9-0.5-2.1,0.4-2.8c0.9-0.6,2.1-0.5,2.7,0.3c2,2.6,4.1,5.2,6.2,7.8c0.7,0.9,0.6,2.1-0.3,2.8
	C266.2,65.4,265.7,65.6,265.3,65.6z M253,49.7c-0.6,0-1.2-0.3-1.6-0.8c-2-2.8-4-5.6-5.8-8.3c-0.6-0.9-0.4-2.2,0.6-2.8
	c0.9-0.6,2.2-0.4,2.8,0.6c1.8,2.6,3.7,5.4,5.7,8.2c0.6,0.9,0.4,2.1-0.5,2.8C253.8,49.6,253.4,49.7,253,49.7z"/>
<path class="st3" d="M739.7,289.3h-0.2c0,0-1.7-0.2-5-0.7c-1.1-0.1-1.9-1.2-1.7-2.3c0.1-1.1,1.2-1.9,2.3-1.7
	c3.2,0.4,4.9,0.6,4.9,0.6c1.1,0.1,1.9,1,1.9,2.1C741.7,288.5,740.8,289.3,739.7,289.3L739.7,289.3z"/>
<path class="st3" d="M769.7,289c0,8.6-7,15.6-15.6,15.6c-8.6,0-15.6-7-15.6-15.6c0-8.6,7-15.6,15.6-15.6c0,0,0,0,0,0
	C762.7,273.4,769.7,280.4,769.7,289C769.7,289,769.7,289,769.7,289"/>
<path class="st3" d="M288.9,77.9c0,5.7-4.6,10.4-10.4,10.4c-5.7,0-10.4-4.6-10.4-10.4c0-5.7,4.6-10.4,10.4-10.4
	C284.2,67.6,288.9,72.2,288.9,77.9C288.9,77.9,288.9,77.9,288.9,77.9"/>
<path class="st3" d="M302.8,21.4c-0.2-2.4-0.8-4.7-1.8-6.9c-1-2.1-2.4-4.1-4-5.9c-5.7-6.6-14.5-9.7-23.1-8.2
	c-3.2,0.6-6.3,1.8-9.1,3.6c-6.5,4.1-10.4,11.2-10.6,18.8c-0.1,2,0,4,0.2,6c0.4,2.4,1,4.8,1.9,7.1c1.6,3.8,3.5,7.4,5.8,10.7
	c2.5,3.8,5.3,7.3,8,10.9c2.6,3.5,5.4,6.9,8.5,10c0,0,0-0.1,0.1-0.1c2.3-2.8,4.7-5.4,6.8-8.3c3.5-4.6,6.9-9.2,9.9-14.1
	c2.4-3.8,4.3-7.8,5.8-12C302.5,29.3,303.1,25.3,302.8,21.4"/>
</svg>
