<?xml version="1.0" encoding="utf-8"?>
<!-- Generator: Adobe Illustrator 22.1.0, SVG Export Plug-In . SVG Version: 6.00 Build 0)  -->
<svg version="1.1" id="Layer_1" xmlns="http://www.w3.org/2000/svg" xmlns:xlink="http://www.w3.org/1999/xlink" x="0px" y="0px"
	 viewBox="0 0 826.5 742.5" style="enable-background:new 0 0 826.5 742.5;" xml:space="preserve">
<style type="text/css">
	.st0{fill:#9BD9E1;}
	.st1{fill:#F26862;}
	.st2{fill:#EF746D;}
	.st3{fill:#5C5D5F;}
	.st4{fill:#FDFDFE;}
	.st5{fill:#F8F7FB;}
	.st6{fill:#F9F8FC;}
	.st7{fill:#F9F9FC;}
	.st8{fill:#F8F8FC;}
	.st9{fill:#F8F8FB;}
	.st10{fill:#FAFAFC;}
	.st11{fill:#EE7069;}
	.st12{fill:#EF6F68;}
	.st13{fill:#FAF9FC;}
	.st14{fill:#EF6D67;}
	.st15{fill:#EF6E67;}
	.st16{fill:#EF6E68;}
	.st17{fill:#EE6F69;}
	.st18{fill:#FAFAFD;}
	.st19{fill:#FBFAFD;}
</style>
<path class="st0" d="M529.7,703c-3.1,0.4-6.1-1.1-7.6-3.9c-1.6-2.6-4-4.6-6.9-5.6c-2.7-0.9-3.5-2.4-3-5c0.3-2.2,0.4-4.4,0.4-6.7
	c0.1-1.6-0.7-3.2-2.1-4.1c-1.8-1.2-3.8-2.4-5.7-3.4c-4.5-2.3-9.1-4.5-13.7-6.9c-3.1-1.6-6-3.7-8.5-6.1c-2.7-2.7-4.6-6.2-5.4-9.9
	c-1.1-4.1,0.6-6.6,4.8-7.8c0.5-0.1,0.9-0.2,1.4-0.4c2.2-0.8,2.5-1.1,2.3-3.8c-0.3-1.6,0.7-3.2,2.3-3.7c0.7-0.3,1.5-0.6,2.3-0.7
	c4.8-0.3,9.4-1.2,14.1-2c1.9-0.2,3.7-0.8,5.3-1.8c1.7-0.3,2.2,1.1,2.8,2.2c4.2,8,10,14.8,15.6,21.8c3.5,4.4,3.5,4.8-1.4,7.9
	c-5.9,3.7-5.9,12.8,0.3,15.9c3.2,1.6,5.3,3.3,5.6,7.3c0.8-4.3,3.8-7.1,6.1-10.3c2.2-3,1.7-6.7,0.3-10.1c-2.9-6.6-3.8-12.8,1.7-19
	c4.4-5.1,7.9-10.9,10.5-17.1c3.6-8,5.3-16.1,0.2-24.3c-0.7-1.1-1-2.4-1-3.7c0-0.6,0-1.6-0.5-1.7c-7.1-1.5-13-7.2-20.8-5.9
	c-4.7,0.8-9,2.2-12.6,5.4c-1.1,0.9-2,2.7-4,1.6c-3.9-2-7.1-4.9-9.4-8.6c-0.8-1.2-1.9-2.2-3.2-2.9c-1.3-0.9-2.5-2-3.6-3.1
	c-1-0.9-1.6-2-1.8-3.3c-0.8-6.4-0.1-12.4,4.3-17.6c2.8-3.3,6.7-4.2,10.7-4.5c4.1-0.3,7.8-1.3,10.8-4.4c1.5-1.6,3.5-2.3,5.3-3.1
	c0.9-0.4,1.8-0.6,2.7-1c0.8-0.3,1.2-1.1,1-1.9c-0.6-3.2-2.4-6-5.1-7.8c-7.2-4.7-12.9-10.9-18.2-17.5c-2.5-3.1-5.5-5.8-7.8-9.1
	c-3.8-5.2-8.8-9.2-12.7-14.3c-3-3.9-6.8-7.2-10.4-10.6c-2.1-2.1-3.6-2-5.8,0c-0.5,0.4-0.9,0.9-1.4,1.3c-3.2,3.5-8.2,4.8-12.7,3.5
	c-1.7-0.5-3.5-0.5-5.2,0c-2.8,0.7-5.2,2.7-6.4,5.3c-1.7,3.6-4.6,6.5-8.2,8.3c-1.1,0.6-2.3,1.2-3.5,1.6c-7.7,3.2-14.7,7.7-20.8,13.3
	c-1.8,1.6-3.6,3.1-5.5,4.6c-1.7,1.2-3.7,1.8-5.8,1.9c-7.2,0.7-13.9,4-18.8,9.4c-1.2,1.3-2.2,2.7-3.2,4.2c-3.3,5.1-7.7,9.4-12.9,12.6
	c-3.4,2.1-7.1,3.7-11,4.7c-4.2,1.4-8.2,3.7-11.5,6.6c-4.1,3.3-6.4,7.9-8.2,12.7c-0.7,1.6-1.3,3.3-1.7,5c-0.4,2.1-1.7,3.9-3.5,4.9
	c-3.5,2.2-7.1,4.3-11.5,4.3c-1.3,0-2.6-0.2-3.8-0.6c-2.2-0.8-4.5-0.5-6.7-0.4c-3.1,0.2-5.3,2.4-6.8,4.8c-1.5,2.4-3.4,4.6-5.6,6.4
	c-3,2.2-5,5.6-5.5,9.3c-0.5,3.1-2.1,4.7-5.1,5.5c-4.6,1-8.5,4.2-10.4,8.5c-0.6,1.1-1.1,2.3-1.6,3.5c-1,2.9-2.7,5.5-4.9,7.5
	c-1.6,1.6-3.2,3.2-4.8,4.7c-0.8,0.6-1.6,1.1-2.5,1.4c-0.8,0.5-1.9,0.2-2.3-0.6c0-0.1-0.1-0.1-0.1-0.2c-2.8-5.1-5.4-10.2-4.9-16.3
	c0.3-3.2-0.3-6.4,0.8-9.5c0.1-0.5,0.2-0.9,0.1-1.4c-0.6-4.1-1.2-8.2-1.8-12.3c-0.2-1.1-0.7-2.1-1.6-2.9c-1.6-1.8-3.4-3.4-5.4-4.8
	c-2.6-1.7-4.4-4.3-5-7.3c-0.3-1.1-0.3-2.2,0-3.3c1.1-4.6,3.6-5.3,7-4.2c2.3,0.7,4.8,0.3,6.9,1.9c0.8,0.6,1.6,1,2.4,1.5
	c2.6,2,3,2.1,5.3,0.3s4.4-3.1,6.7-4.7c0.8-0.4,1-1.3,0.7-2.1c-0.1-0.1-0.2-0.3-0.3-0.4c-1-1.2-2.2-2.3-3.5-3.3
	c-1.8-1.3-3.5-2.7-5.1-4.3c-2.4-2.1-4.2-4.9-5.1-8c-1-3.4-3.6-6.2-7-7.3c-2.7-1-5.2-2.4-7.9-3.5c-1.4-0.7-2.7-1.7-3.7-3
	c-2.5-2.7-2.4-6.9,0.3-9.4c0,0,0,0,0.1-0.1c0.7-0.9,1.9-1.4,3-1.3c1.6,0,3.2-0.5,4.5-1.4c2.7-1.4,5.5-2.6,8.6-2.5
	c0.6,0,1.3-0.2,1.8-0.5c1.4-0.6,2-2.2,1.5-3.6c-0.3-0.9-0.6-1.8-0.9-2.7c-0.6-2.1-0.4-2.7,1.6-3.8c1.2-0.7,2.6-1.2,3.5-2.5
	c1.6-2.5,0.8-5.8-1.7-7.3c-0.6-0.4-1.2-0.6-1.9-0.7c-3.4-0.8-6.9-1.1-10.4-1c-1.6,0.1-3.2,0.1-4.8,0c-1.9-0.1-3.8-1-5-2.5
	c-0.4-0.5-0.7-1.1-1.1-1.6c-2.9-3.8-6.2-4.6-10.5-2.5c-1.6,0.7-3.1,1.6-4.7,2.5c-0.7,0.4-1.3,0.9-2.1,1.2c-4.5,1.9-6.8,0.9-9.9-3
	c-0.6-0.8-1-1.6-1.3-2.6c-0.6-2.8-2.4-4.8-4.4-6.7c-1.2-1.1-2.6-1.8-4.2-2.2c-3.6-0.9-7-2.1-9.7-4.9c-2.2-2.1-3.6-4.9-4.1-7.9
	c-0.1-2.1-0.8-4.1-2-5.8c-1-1.4-2.7-2.3-4.5-2.4c-8.3-0.5-14.7-4.3-19.8-10.9c-3.6-4.5-6.3-9.6-7.9-15.1c-0.3-1.2-0.8-2.4-1.4-3.6
	c-1.1-2.4-3.2-4.1-5.8-4.6c-3-0.5-5.9-1.6-9-1.2c-2.6,0.3-5-0.9-7.5-1.2c-0.5-0.1-0.9-0.3-1.3-0.6c-4.4-2.1-3.7-5.2-1.3-7.5
	c2.5-2.5,5.9-4,9.4-4.1c4.2-0.3,8.3-0.3,12.5,0c3.9,0.6,7.8,1.3,11.7,2.3c1.6,0.3,3.1,0.9,4.6,1.2c3.8,0.8,6.6-1.4,6.9-5.3
	c0.1-1.4,0.1-2.9,0-4.3c-0.2-2.3,0.8-4.5,2.6-5.8c0.7-0.6,1.5-1.1,2.3-1.7c2.6-1.7,4.3-4.3,4.8-7.4c0.7-3.4,0.9-6.9,1.6-10.4
	c1.2-5-0.6-10.2-4.5-13.4c-1.3-1.2-2.7-1.8-4.4-1.2c-1.1,0.4-2.1,0.6-3.3,0.7c-3.1,0.3-5.5-0.5-7.3-3.4s-4.5-4.8-7.5-6.5
	c-6.7-3.7-13.5-7.3-19.9-11.5c-5.5-3.9-10.5-8.3-15-13.3c-1.8-1.9-3-4.1-3.8-6.6c-0.4-1.4-1-2.7-1.3-4.1c-0.5-2.7-2.4-5-5-6
	c-2.3-0.9-3-2.7-2.8-5c0.3-2.9-0.8-5.2-2.6-7.4c-2.8-3.5-5.2-7.3-7.1-11.3c-0.8-1.4-0.9-3.1-0.3-4.6c0.8-1.9,1.4-3.9,2-5.9
	c1-3.6,3.8-6.5,7.4-7.5l14.1-4.7c1-0.4,2.1-0.8,3.1-1.2c2.7-1.1,4.8-3.3,5.8-6c1.3-3.4,1-6.9,0.5-10.4c-0.3-1.5-1.6-2.6-3.1-2.6
	c-5.2-0.2-7.9-3.6-10.4-7.5c-0.6-0.9-1.2-1.9-1.7-2.9c-1.4-2.8-3.4-4.4-6.8-4.3c-2.8,0.1-4.2-2.5-3.3-5.1c0.4-1.2,1.1-2.3,1.4-3.6
	c0.6-2.2-0.6-4.6-2.9-5.2c-0.8-0.2-1.7-0.2-2.5,0.1c-1.1,0.3-2.1,0.6-3.1,1.1c-3.9,2.1-8.5,2.1-12.4,0c-1.2-0.5-2.5-0.7-3.8-0.6
	c-3.1,0.1-6.1-1.2-8.1-3.5c-2.3-2.6-5.2-4.8-7-7.8c-0.6-0.8-1.2-1.5-2-2.1c-1.2-1.1-2.5-0.7-3,0.8c-0.2,0.9-0.5,1.8-0.8,2.7
	c-0.4,0.9-1.5,1.4-2.4,1.1c-2.9-0.6-5.6-3.7-5.6-6.5s2.5-5.8,5.5-6.6c1.1-0.2,2.2-0.1,3.3,0.3c3.3,0.9,6.7,0.7,9.9-0.5
	c0.8-0.2,1.2-1,1-1.8c0,0,0,0,0,0c-1-6.9-8.8-13.1-14.8-12.6c-1.8,0.1-3.5,0.1-5.3,0c-1.8-0.1-2.4-1.2-2-3c0.1-0.5,0.2-0.9,0.4-1.4
	c1.3-2.7,0.4-4.8-1.3-7c-2.3-2.6-2.4-6.5-0.2-9.2c2.8-3.3,6-6.2,9-9.3c0.4-0.4,1.1-0.4,1.5,0.1c0,0.1,0.1,0.1,0.1,0.2
	c0.7,0.9,1.3,1.8,2,2.7c0.4,0.7,1.3,1,2.1,0.6c0,0,0,0,0,0c0.7-0.4,1.2-1.2,1-2c-0.3-1.1-0.7-2.1-1.2-3.1c-0.8-1.9-0.6-2.6,0.9-3.7
	c6.6-4.8,13.4-9.2,20.5-13.2c0.8-0.5,1.7-0.9,2.6-1.2c2-0.5,4-0.6,5.9,0.8c1.6,1.1,3.1,2.3,4.4,3.6c0.9,1,1.9,1.7,3.1,2.2
	c1,0.5,2.2,0.6,3.2,0.2c1.5-0.6,3-1,4.5-1.7c1.9-1.1,4.3-0.6,5.6,1.1c1.2,1.3,2.5,2.5,3.7,3.8c2.1,2.4,4.9,4.1,8,5
	c3.4,1,6.6,2.5,9.5,4.4c4.3,2.9,9.3,4.4,14.5,4.2c1.6-0.2,3.2,0.4,4.3,1.6c1.3,1.6,0.8,3.6-1.3,4c-1.7,0.3-3.5,0-5.1,0.9
	c-2.5,1.3-3.1,3.4-1.3,5.4c4.7,5.5,10.3,10.1,16.6,13.6c7.4,4.1,15.5,6.8,23.9,8.1c1.4,0.2,2.8,0.7,4.2,0.9c4,0.6,8.1-0.3,11.5-2.5
	c5.1-3.1,10.6-2.7,16.2-1.3c2,0.6,3.8,1.7,5.2,3.2c3.8,3.9,7.7,7.7,11.5,11.6c3.6,3.6,7.6,6.4,12.9,6.4c1.1,0.1,2.2,0.7,2.9,1.6
	c1.6,1.6,3.1,3.3,4.7,4.8c2.2,2.1,5,1.6,6.3-1.2c0.5-1.3,0.9-2.7,1.3-4.1c0.1-0.6,0.3-1.2,0.5-1.8c1.4-2.7,3.4-3.5,6.3-2.6
	c1.1,0.3,2.1,0.8,3.2,1.1c2.4,0.7,3.5,0.1,4.4-2.3c1-2.7,1.9-5.4,2.7-8.2c0.2-1.3,0.7-2.5,1.4-3.5c0.8-0.9,0.9-2.1,0.5-3.2
	c-0.9-2.1,0.1-3.7,1.3-5.2c1-1.3,2-2.5,2.8-3.9c0.5-0.6,0.7-1.4,0.8-2.2c0-1.4,0.5-2.8,1.4-4c1.1-1.3,0.9-3.3-0.5-4.3
	c-1.8-1.6-3.1-3.7-3.8-6c-0.4-1.1-1.1-2-2-2.7c-2.2-2.3-4.6-4.5-6.7-6.9c-2.1-2.5-4.9-4.1-8.1-4.7c-6.8-1.1-11.9-5.2-16.7-9.6
	c-1.7-1.6-3.7-3-5.9-3.9c-2.2-1-4.3-2.2-6.2-3.6c-1.1-0.6-2-1.6-2.6-2.7c-0.7-1.9-1.9-3.7-3.5-5.1c-0.8-0.8-1.2-2-1-3.1
	c0.8-5.1-1.5-9.3-3.8-13.6c-0.1-0.1-0.1-0.3-0.2-0.4c-0.7-1.2-1.3-1.3-2.3-0.5s-1.6,1.5-2.5,2.2c-0.5,0.4-1.3,0.4-1.8-0.1
	c-0.7-0.6-1.4-1.3-1.9-2.2c-2.4-4.7-4.1-9.7-3.9-15.1c0.1-3.5,1.1-7,2.9-10c0.9-1.9,3-3.1,5.1-2.8c1.3,0.1,2.7-0.3,3.8,0.2
	c3.5,1.4,6.6,0.3,9.6-1.2c0.3-0.1,0.6-0.3,0.9-0.4c0.8-0.3,1.6-0.1,2.1,0.7c0.5,0.8,1.1,1.6,1.7,2.3c0.8,0.7,1.9,0.6,2.6-0.1
	c0.7-0.5,0.9-1.4,0.4-2.1c-0.3-0.6-0.7-1.1-1.1-1.6c-1.3-1.9-1.4-3.5,0.3-5.6c3.3-4,6.6-8.1,8.3-13.3c0.9-2.9,3.4-3.9,6.5-3.2
	c2.2,0.5,4.4,0.9,6.5,1.4c0.9,0.2,1.8,0.5,2.7,0.8c1.4,0.4,2.4,1.8,2.3,3.3c0,2.4,0,4.8,0,7.2c0,1,0,1.9,0.1,2.9
	c0.3,1.7,2,2.9,3.7,2.5c0.1,0,0.1,0,0.2,0c1.9-0.3,3.7-1,5.2-2.2c2.5-2.3,5.8-3.6,9.1-3.8c2.9-0.1,5.6-1.3,7.6-3.5
	c0.3-0.4,0.7-0.7,1.1-0.9c0.6-0.3,1.4-0.4,1.5,0.4c0.6,1.8,0.9,3.7,1.1,5.6c0.2,4.4,2.2,7.9,4.9,11.2c1.3,1.6,2.9,3,4.4,4.4
	c1.9,1.7,4.2,3,6.6,3.7c1.1,0.4,2.1,0.7,3.2,0.8c1.8,0.2,3.3,1.6,3.5,3.4c0.5,4.2,3.1,6.9,5.9,9.5c1.3,1.2,2.5,2.5,3.8,3.7
	c2.7,2.7,4.6,5.8,4.2,9.8c-0.4,4.3,2.3,5.2,5.8,3.9c0.9-0.3,1.8-0.7,2.6-1.2c2.3-1.3,4.7-0.7,7,0.1c2.1,0.7,3.5,2.6,3.6,4.7
	c0.1,4,2.3,6.5,4.9,8.9c1.7,1.5,3.1,3.1,3,5.7c-0.1,1.6,1,3,2,4.3c3.4,4.3,5.1,9.7,4.5,15.2c-0.1,1.4,0.1,2.9,0,4.3
	c-0.4,2.7,1,5.2,3.5,6.3c3.7,1.8,7.3,3.9,10.6,6.3c3,2.2,6.8,3,10.4,3.4c3,0.4,5.9,1.3,9,1.2c2.8-0.2,4.5,1.4,5.8,3.5
	c0.5,0.8,0.8,1.8,1.3,2.6c1.5,2.5,3.4,3.2,6.1,2.2c1.4-0.5,2.7-1.1,3.9-1.9c3.5-2.5,6.9-2.1,10.2,0.2c2.2,1.6,4.7,2.7,7.3,3.4
	c0.9,0.3,1.9,0.5,2.8,0.6c6.5,0.5,13.1-0.2,19.4-2c0.6-0.2,1.2-0.4,1.8-0.8c3-1.5,3.8-3.6,2.6-6.7c-0.5-1.2-1.1-2.3-1.6-3.5
	c-1.2-2.8-1-3.8,1.4-5.9c0.7-0.6,1.5-1.2,2.3-1.6c1.6-0.9,2.5-2.6,2.3-4.4c-0.1-1.4,0.1-2.9,0.6-4.2c1-2.1,1.7-2.6,4.1-2
	c1.2,0.3,2.5,0.5,3.8,0.4c1.3,0.1,2.5-0.8,2.9-2.1c0.3-0.7,0.5-1.5,0.8-2.3c0.9-5.1,3.3-9.6,5.1-14.4c1-2.8,3.5-4.8,6.4-5.1
	c4.4-0.7,8.6-2.1,13-3c2.8-0.6,5.4-2.1,7.4-4.2c1.6-1.8,3.4-3.4,5.1-5.1c1.5-1.6,3.6-2.7,5.8-3.2c8.5-1.7,12.6-7.5,14.2-15.5
	c0.7-3.8,1.7-7.4,3-11.1c0.5-1.8,1.6-3.5,3-4.8c6.1-5.4,10.3-12.2,13.6-19.5c0.4-0.9,0.8-1.7,1.3-2.6c0.7-1.3,1.7-1.6,2.8-0.9
	c4.3,2.5,8.2,5.7,11.5,9.3c0.7,0.8,1.3,1.8,1.8,2.8c1.8,3.8,4.5,6.9,7.2,10.1s5.5,6.6,5.8,11.3c0.2,2.2,1.5,4.2,2.9,6
	c0.6,0.8,1.2,1.5,1.8,2.2c4.8,5.4,8.1,11.8,12.5,17.5c0.3,0.5,0.7,1.1,1.2,1.5c4.3,3.9,7.3,8.8,10.8,13.4c1,1.4,2.3,2.7,3.7,3.7
	c1.6,1.1,2.8,2.6,3.6,4.3c1.8,3.5,3.7,7.1,5.7,10.5c1.3,2.4,3,4.6,5,6.4c3.9,3.6,5.2,8.3,5.6,13.3c0.1,2.2,0.1,4.5,0,6.7
	c-0.2,3.4,0.8,6.6,1.5,9.9c0.4,2.4,1.6,4.6,3.2,6.3c1.4,1.3,2.2,3.3,2,5.2c-0.8,7.3,2.7,12.9,7.1,18.2c4.5,5.6,8.8,11.3,13.3,16.9
	c2.3,2.9,4.7,5.6,7.2,8.4c1.3,1.4,2.5,2.9,3.6,4.4c1.2,2,3.3,3.1,5.6,3.1c2.1,0.1,4.1,0.6,6,1.3c4.6,1.5,7.3,5,9.3,9.1
	c1.4,2.7-0.2,5-1.3,7.2c-0.8,1.4-1.7,2.7-2.7,4c-1.7,2.4-1.6,5.7,0.2,8c2.4,3.6,5.5,6.6,9.1,9.1c2,1.4,4.3,2.2,6.7,2.4
	c3.2,0.2,6.3,1.4,8.8,3.4c2.6,1.9,5.3,3.6,8.5,4.2c2,0.4,4.1,0.6,6.1,0.9c2.4,0.3,4.7,1,7.1,1.2c3.5,0.4,7.1-0.3,10.2-2
	c5.4-3,11.7-3.7,17.6-2c0.6,0.2,1.3,0.3,1.9,0.2c3.1-0.6,4.7,1.3,6,3.6c1.3,2.4,2.9,4.6,4.9,6.5c1.4,1.3,3.2,2.2,5.1,2.5
	c3.3,0.4,6.6,1.1,9.8,2.1c3.6,1.3,6.5,3.3,7.4,7.4c0.7,3.1,3.1,5.1,5.7,6.8c2.1,1.2,4,2.6,5.8,4.3c3.8,3.5,6.2,8.2,6.8,13.3
	c0.4,2.7,0.7,5.4,0.7,8.1c-0.1,2.2,0.9,4,1.9,5.9c0.5,1,1.3,1.8,1.7,2.9c0.5,0.9,0.3,2-0.5,2.6c-0.8,0.6-1.9,0.6-2.7,0
	c-0.8-0.5-1.5-1.2-2-2c-1.4-2.1-2.7-4.3-3.8-6.6c-1.6-3.7-4.5-6.7-8.2-8.3c-3.2-1.5-6.4-2.8-10-2.9c-2.6,0-5.1-0.6-7.4-1.8
	c-2.2-1.1-4.7-1.2-6.9-0.2c-2.7,1-5.5,1.7-8.3,2c-1.4,0.1-2.8,0.5-4.1,1.3c-2.7,1.9-5.3,1.9-8.2,0.7c-0.6-0.2-1.2-0.3-1.9-0.3
	c-0.4-1.9,1.1-2.9,2-4.1c4.4-5.7,4.6-13.3,0.4-18.5c-4-4.9-12-6.3-17.9-3.3s-8.7,9.8-6.7,16.8c0.8,2.8,1.3,5.2-0.6,7.5
	c1.8,1.6,4.7-2,5.6,1.7c0,1.3,0,2.6-0.1,3.8c-0.6,3.9-3.5,7-7.4,7.7c-1.4,0.2-2.8,0.7-4,1.5c-3.5,2.4-7.5,3.4-11.3,5
	c-4,1.7-8.1,2.9-12.2,4.3c-8.8,3.1-13.5,9.7-15.8,18.4c-0.2,0.9-0.3,1.9-0.1,2.9c0.4,3.1-0.7,5.3-3.8,6.3c-0.6,0.2-1.2,0.5-1.7,0.9
	c-0.8,0.5-1.6,1.1-2.3,1.7c-2.3,2.1-2.4,3.2-0.7,5.8c1.5,2.4,3.2,4.7,5.1,6.9c2.9,3.3,2.9,5.7-1.1,8.1c-4.6,2.8-4.9,7.2-3.8,11.8
	c0.5,1.9,0.6,3.8,0.6,5.7c0,0.8-0.2,1.6-0.6,2.3c-1.4,1.6-1.5,3.5-1.3,5.4c0.4,2.5-0.3,5.1-1.8,7.2c-1.9,2.5-1.5,5.5,0.2,8.1
	c0.8,1.2,1.8,2.2,2.5,3.5c1.8,2.9,1.3,5.7-1.5,7.5c-1.3,0.8-2.5,1.9-3.8,2.9c-4.6,3.3-7.8,8.1-9,13.6c-0.6,2.6-1.2,5.3-1.8,7.9
	c-0.7,2.6-1.7,5.1-2.9,7.6c-2,4.2-1.3,7.5,1.8,11c2.3,2.5,5.2,4.2,7.8,6.3c2.7,1.9,5.3,4,7.8,6.3c1.8,1.8,2.3,3.9,1.2,6.1
	c-1.1,2.2-1.6,4.6-1.4,7c0,0.7,0.4,1.7-0.7,2c-0.5,0.1-1.1-0.3-1.7-0.5c-0.2,1.8,1.1,3,1.5,4.5c0.2,0.9,0.7,1.8,0.8,2.7
	c0,0.5-0.2,0.9-0.6,1.2c-0.3,0.1-0.6,0.1-0.9,0c-2-1.5-4-3.1-6-4.7c-1-0.8-1.9-1.7-2.7-2.7c-3.6-4.1-8.2-2.2-10.7,0.8
	c-0.7,0.7-1.1,1.5-1.4,2.5c-0.8,3.2-2.1,6.5-1.3,9.8c0.9,4,0.6,7.9,0.8,11.9c0,1.1,0,2.3,0,3.4c0.3,3.8-0.5,7.7-2.2,11.1
	c-2.1,3.8-3,8.2-2.7,12.5c0.1,1.3,0.1,2.6,0,3.8c-0.3,2.9-1.3,5.4-4.1,7.2c-3.7,2.2-7.5,4.2-11.5,6c-0.9,0.4-1.8,0.5-2.8,0.5
	c-2.4,0.1-3-0.4-3.8-2.8c-0.2-0.5-0.3-0.9-0.5-1.4c-0.7-2.7,0-4.3,2.5-5.4c0.4-0.2,0.9-0.3,1.4-0.4c5.3-1.6,8.4-5.5,10.6-10.3
	c1.3-2.9-0.4-5.4-3.7-5.6c-1.6-0.1-3.2,0-4.8-0.1c-0.8,0-1.6,0-2.4-0.2c-1.9-0.5-3.2-2.4-2.9-4.3c0.1-0.6,0.3-1.2,0.5-1.8
	c1.3-3.9-1.9-8.8-6.8-9c-0.8,0-1.6,0.1-2.4,0c-3.4-0.4-5.4,1.3-6.6,4.3c-1.3,2.9-2.1,6-2.2,9.2c0,2.9,0,5.8,0,8.6
	c0,2.1,0.1,4,1.4,5.9s0.8,4,0.3,6.1c-0.8,3.2-1.9,6.4-2.9,9.6c-0.9,2.9-1.8,5.8-2.7,8.7c-0.3,0.9-0.7,1.8-1,2.7
	c-1.1,3.3-3.9,5.6-7.4,6.1c-5.7,0.8-5.3,2.5-4.7,7.8c0.2,2.9,1.4,5.6,3.4,7.8c3.7,3.7,3.7,8.2,2.8,12.5c-0.6,3.1-0.1,6.4,1.4,9.2
	c1.2,2.3,1.8,4.8,1.8,7.3c0,10.6,0,21.1,0,31.7c0,0.6,0,1.3,0,1.9c0,0.8-0.6,1.6-1.4,1.7c-1.4,0.3-2.8,0.4-4.3,0.3
	c-5.5-0.9-11,1.1-14.7,5.2c-4.2,4.3-9.5,5.6-15.4,5.1c-2.1-0.2-4-1.3-5.1-3.2c-5.4-8.3-11.8-15.8-16.7-24.5c-0.9-1.9-2.5-3.3-4.5-4
	c-2.3-0.7-3.3-2.4-3.2-4.8c0-0.3,0-0.7,0-1c-0.3-5.4-3.1-6.7-7.6-5.2c-0.6,0.2-1.2,0.3-1.8,0.5c-1.2-0.5-0.8-2.3-2.1-2.8
	C530.4,699.1,531.8,701.7,529.7,703z"/>
<path class="st0" d="M15.3,481.4c1.4,0,2.9-0.1,4.3,0c3.6,0.2,7-1.2,9.5-3.8c2.1-2,4-4.1,6.5-5.6c3.1-1.8,4.6-1.8,7.2,0.8
	c5.2,5.4,9.8,11.4,13.8,17.7c1.6,2.4,1,4.9,0.7,7.4c-0.2,1.6-0.6,3.1-1.2,4.6c-0.5,1.5-0.6,3.2-0.4,4.7c0.1,2.1,1.8,3.8,4,3.8
	c0.3,0,0.7-0.1,1-0.2c2.4-0.5,4.5-1.8,6-3.7c1-1.3,2.6-2,4.2-2c2-0.2,3.9,0.9,4.7,2.7c0.9,1.9,1.6,3.8,2,5.9
	c1.2,5.8,2.3,6.8,8.3,6.9c1.8,0,3.5,0.2,5.2,0.8c2.2,0.6,4.1,1.8,5.7,3.4c0.1,0.1,0.2,0.2,0.3,0.3c3.7,3.9,6.7,4,10.8,0.5
	c1.9-1.7,3.9-3.2,5.8-4.9c3.6-3.2,7.6-5.3,12.5-4.9c0.5,0,1,0,1.4,0c4,0.6,8.1-0.6,11.3-3.1c0.9-0.7,2.1-1,3.2-0.6
	c2.8,0.7,5.4,2.1,7.4,4.1c1.1,0.9,1.8,2.3,2,3.8c0.2,4.5,1.3,8.8,1.2,13.3c-0.1,2.9-0.9,5.7-2.4,8.1c-1.2,1.9-2.4,3.8-3.5,5.7
	c-1.9,3.3-0.9,5.7,2.7,7.1c1.3,0.5,2.7,1,4.1,1.3c2.5,0.5,4.7,2.1,6.1,4.3c2.3,3.8,5.8,5.8,9.5,7.8c1.7,0.9,3.4,1.8,5.1,2.6
	c1.7,0.9,3.2,2.2,4.4,3.7c1,1.1,0.9,2.3,0.3,3.5c-0.9,1.5-2,2.9-3.3,4.1c-1.2,1.1-2.1,2.4-2.9,3.8c-1.5,3.3-0.4,6.3,1,9.1
	c0.7,1.4,1.6,2.8,2.6,4c5.9,7.3,9.3,15.9,11.8,24.9c1,3.7,1.5,7.5,3,11c2.1,4.6,4.8,9,8.1,12.9c1.7,1.9,3,4.1,4,6.5
	c0.3,0.6,0.1,1.3-0.4,1.7c-0.4,0.2-0.9,0.3-1.3,0.2c-1.8-0.6-3.6-1.3-5.4-2c-4.4-2.3-9.1-3.9-14-4.8c-3-0.5-5.9-1.2-8.8-2
	c-2.8-0.8-5.7-0.7-8.4,0.2c-0.7,0.3-1.6,0.2-2.3,0.5c-2.2,1-3.8,0.4-5.6-1.2c-3.5-2.8-7.4-5-11.7-6.3c-13.3-4.5-26.7-8.6-40.2-12.5
	c-2.5-0.6-4.9-1.5-7.1-2.7c-3.2-1.8-4.7-4.6-5.8-7.9c-0.5-1.4-0.8-2.8-1-4.2c-0.3-1.6-0.9-3.1-1.9-4.3c-4.5-6.6-9-13.2-13.5-19.7
	c-0.5-0.8-1.1-1.5-1.8-2.3c-0.9-1.4-2.7-1.9-4.3-1.4c-3.3,1.1-6.3-0.2-9.2-1.3c-2.2-1-4.3-2.2-6.2-3.6c-1.7-1.2-3-3-3.5-5
	c-2.3-8.6-6.5-16.7-12.1-23.7c-1.8-2.5-4-4.6-6.4-6.4c-6.5-4.3-10.1-10.5-12.1-17.8c-1.6-5.8-2.8-11.8-4.1-17.6
	c-0.5-1.9-1.3-3.6-2.3-5.2c-0.9-1.3-2.2-2.1-3.7-2.5c-3.7-0.7-6.6-3.6-7.3-7.4C2,492,1,489.3,0.2,486.5c-0.6-2.2,0-3.5,2.3-3.9
	c3.4-0.7,6.8-1.7,10.4-1.3C13.7,481.4,14.5,481.3,15.3,481.4L15.3,481.4z"/>
<path class="st1" d="M512.5,601.1c0.7-0.6,1.5-1.2,2.2-1.8c8-7.3,19.8-8.6,29.8-2.5c0.8,0.5,1.6,1.1,2.3,1.7
	c0.5,0.4,1.2,0.4,1.6-0.1c0,0,0,0,0,0c0.3-0.3,0.7-0.6,1.2-0.8c0.9-0.4,1.9,0,2.2,0.9c0.1,0.2,0.1,0.4,0.1,0.7
	c0.2,2.9,0.8,5.7,1.9,8.4c2,4.4,2.4,9.4,1.3,14.1c-1.2,6.2-4.1,11.7-7.4,17.1c-3.1,5-6.6,9.9-10.2,14.5c-0.8,1-1.2,1.8,0.2,2.8
	c1.1,0.8,0.9,2,0.7,3.1c-0.4,2.2,0.1,4.4,1.5,6.2c3,4.3,2.2,10.1-1.8,13.4c-2,1.5-3.3,3.9-3.4,6.5c0,0.8-0.1,1.6-0.3,2.4
	c-0.2,0.8-1,1.3-1.8,1.2c-0.8,0-1.6-0.6-1.7-1.4c-0.1-0.5-0.1-0.9-0.1-1.4c0.6-2.9-0.2-4.4-3.4-5.4c-4.1-1.3-6.3-4.7-6.3-9.2
	c-0.2-4.1,2.1-8,5.8-9.7c1-0.4,2.1-0.8,3.2-1.1c0.5-1.2-0.5-1.7-1.1-2.4c-3.4-3.8-6.4-8-9.5-12c-3.5-4.7-6.7-9.7-9.6-14.9
	c-0.5-1.5-1-3-1.5-4.5c-2.6-8.8-2-17.2,3.7-24.8C512.3,601.7,512.4,601.4,512.5,601.1z"/>
<path class="st1" d="M745,367.1c-0.4-0.7-1.3-1-2-0.7c-1,0.4-2,1-3,1.4c-0.9,0.5-2,0.2-2.5-0.7c-0.5-0.8-0.3-2,0.5-2.5
	c0,0,0,0,0.1,0c2.6-1.3,2.1-2.9,1.2-5c-3.4-7.8,0.3-16.9,8.1-20.2c0.4-0.2,0.7-0.3,1.1-0.4c7.6-2.4,14.7,0.4,18.5,6.3
	c3.2,5,3.4,13.9-1.9,19l-2.7,2.6c-3.2,1.7-6.9,2.5-10.5,2.3C749.3,368.9,747.3,367.6,745,367.1z"/>
<path class="st2" d="M529.7,703c0-1.7,0-3.5,0.1-5.2c0-0.6,0.1-1.3,0.4-1.8c0.3-0.8,1.1-1.2,1.9-1c0.6,0.2,1.1,0.6,1.4,1.1
	c0.2,1.4,0.4,2.8,0.4,4.2c-0.1,0.5-0.2,0.9-0.3,1.4C532.7,703.9,532.3,704,529.7,703z"/>
<path class="st3" d="M12.4,1.5c-0.1,0.8-0.7,1.5-1.5,1.6C10,3.2,9.2,2.5,9.2,1.7c0-0.1,0-0.3,0-0.4C9.2,0.5,9.9-0.1,10.7,0
	c0,0,0.1,0,0.1,0C11.7,0,12.3,0.7,12.4,1.5z"/>
<path class="st4" d="M115.8,302.8c2.5-0.5,5,0.6,6.4,2.8c0.4,0.5,0.5,1.2,0.2,1.8c-0.5,1-1.1,1.9-1.8,2.8c-1.6,1.5-3.6,2.6-5.8,3.1
	c-3.5,1-6.9-2.9-6.4-5.8c0.5-2.4,2.4-4.2,4.8-4.7C114,302.7,114.9,302.7,115.8,302.8z"/>
<path class="st5" d="M660.8,360.3c-2.1,0.4-4.3-0.6-6.7-1c-0.7-0.1-1.2-0.6-1.2-1.3c-0.1-0.8,0.3-1.6,1-2c0.2-0.2,0.5-0.3,0.9-0.4
	c2.8,0,5.7-0.1,8.5,0.1c1.3,0,2.5,0.9,2.8,2.2c0.1,1.3-1.1,2.2-3,2.3C662.4,360.3,661.8,360.3,660.8,360.3z"/>
<path class="st5" d="M457.6,272.2c-0.2,0.4-0.4,0.7-0.6,1c-0.5,0.6-1.4,0.8-2.2,0.5c-3-1.5-5.9-3-8.8-4.5c-0.3-0.2-0.5-0.4-0.7-0.7
	c-0.6-0.5-0.7-1.5-0.3-2.1c0.4-0.7,1.2-1,2-1c0.2,0,0.3,0,0.5,0.1c2.9,1.5,5.9,3,8.8,4.6C457.1,270.5,457.6,271.3,457.6,272.2z"/>
<path class="st6" d="M180.9,260.6c0.3,0,0.6,0.1,0.9,0.2c2.8,1.4,5.7,2.8,8.4,4.3c1.3,0.8,1.7,1.9,1.3,2.7c-0.6,1.1-1.8,1.5-3.3,0.8
	c-2.4-1.1-4.8-2.3-7.2-3.6c-0.7-0.4-1.3-0.9-1.8-1.5c-0.5-0.4-0.6-1.2-0.3-1.7C179.4,261.1,180.1,260.7,180.9,260.6z"/>
<path class="st7" d="M647.6,335.5c-0.3,0.7-0.7,1.3-1.3,1.4c-0.6,0.1-1.2,0.1-1.8,0c-2.5-0.5-4.8-1.5-7.4-1.6
	c-1.1-0.1-2.1-0.7-2.7-1.7c-0.4-0.5-0.5-1.2-0.2-1.8c0.3-0.6,0.8-1,1.5-1.1c0.3-0.1,0.7-0.1,1,0c2.6,0.6,5.2,1.2,7.8,1.9
	c1.1,0.2,2.1,0.8,2.8,1.6C647.4,334.7,647.5,335.1,647.6,335.5z"/>
<path class="st5" d="M266.7,297.6c-0.1,1.1-1.2,2.2-2.2,1.9c-3.3-1.1-6.7-1.9-9.7-3.8c-1-0.6-1.4-1.6-0.9-2.4c0.5-0.9,1.5-1.3,2.4-1
	c3,1,6,2,9,3C266.3,295.7,266.9,296.7,266.7,297.6z"/>
<path class="st6" d="M475.8,281c-0.3,0.4-0.6,0.9-1,1.1c-0.5,0.3-1.2,0.4-1.8,0.3c-3.2-1.5-6.3-3-9.4-4.6c-0.8-0.4-1.2-1.4-0.8-2.2
	c0-0.1,0.1-0.1,0.1-0.2c0.4-0.9,1.4-1.3,2.3-0.9c0,0,0.1,0,0.1,0.1c2.6,1.1,5.3,2.2,7.8,3.4c0.8,0.5,1.5,1.1,2.1,1.8
	C475.6,280.1,475.8,280.5,475.8,281z"/>
<path class="st6" d="M364.4,326c-0.3,1-1.3,1.6-2.3,1.6c-1.2-0.2-2.5-0.6-3.7-0.9c-1.7-0.4-3.4-0.8-5-1.3c-0.7-0.3-1.4-0.7-2.1-1.2
	c-0.6-0.3-0.8-1.1-0.6-1.7c0.3-0.5,0.8-1,1.3-1.3c0.3-0.2,0.6-0.2,0.9-0.1c2.9,0.8,5.8,1.5,8.8,2c1,0.2,1.8,0.8,2.2,1.7
	C364.2,325.2,364.4,325.6,364.4,326z"/>
<path class="st6" d="M501.7,290.3c0.5,0,1,0.1,1.5,0.2c2.7,1,5.3,2,8,3c0.8,0.3,1.3,1,1.3,1.8c0.2,1.3-1.1,2.7-2.3,2.2
	c-3-1.1-5.9-2.2-8.8-3.4c-0.4-0.2-0.8-0.4-1.2-0.7c-0.7-0.5-0.9-1.5-0.3-2.2c0.2-0.2,0.4-0.4,0.6-0.5
	C500.9,290.5,501.3,290.4,501.7,290.3z"/>
<path class="st7" d="M616,326.1c0.2,0,0.3,0,0.5,0c3.4,0.9,6.8,1.8,10.1,2.7c0.6,0.2,1,0.8,1,1.4c0,0.8-0.5,1.6-1.2,1.9
	c-0.4,0.2-0.9,0.3-1.4,0.2c-2.9-0.6-5.9-1.3-8.8-2c-0.5-0.1-0.9-0.4-1.2-0.8c-0.6-0.6-0.7-1.5-0.4-2.2
	C614.9,326.8,615.4,326.3,616,326.1z"/>
<path class="st6" d="M433.3,337.2c2.3,1.3,4.9,0.8,7.4,1.3c2.1,0.4,3.5,1.7,3.4,2.8c-0.1,1.4-1.8,2-4.4,1.3c-2.3-0.7-4.8-0.1-7-1.3
	c-0.6-0.2-1.2-0.5-1.7-0.8c-0.3-0.3-0.6-0.7-0.6-1.2c-0.1-0.7,0.3-1.3,1-1.5C431.9,337.5,432.6,337.3,433.3,337.2z"/>
<path class="st8" d="M626.8,286.2c-0.3,0.3-0.5,0.8-0.9,1c-0.9,0.4-1.9,0.3-2.7-0.3c-2.4-2.3-4.8-4.6-7.1-6.9
	c-0.6-0.5-0.6-1.5-0.1-2c0,0,0,0,0.1-0.1c0.5-0.6,1.3-0.9,2.1-0.7c0.3,0,0.6,0.2,0.8,0.4c2.5,2.4,5,4.9,7.4,7.3
	C626.7,285,626.6,285.6,626.8,286.2z"/>
<path class="st9" d="M279.9,143.4c0.1,0.9-1.4,2.1-2.4,1.7c-0.6-0.2-1.1-0.5-1.6-0.9c-2.4-1.9-3.8-4.6-5.8-6.9
	c-0.3-0.5-0.4-1.2-0.4-1.8c-0.1-0.7,0.3-1.3,1-1.5c0.5-0.1,0.9-0.1,1.4,0.1c0.4,0.2,0.8,0.5,1.1,0.8c2.2,2.5,4.3,5,6.5,7.6
	C279.8,142.8,279.9,143.1,279.9,143.4z"/>
<path class="st7" d="M285.6,149.3c0.4,0,0.8,0.2,1.1,0.4c2.2,2.1,4.4,4.2,6.4,6.4c0.7,1,0.6,2.3-0.4,3.1c-0.2,0.2-0.5,0.3-0.8,0.4
	c-0.8,0.3-1.6,0-2.2-0.6c-2.1-2.4-4.2-4.7-6.2-7.1c-0.4-0.5-0.5-1.2-0.2-1.8C283.7,149.4,284.3,149.1,285.6,149.3z"/>
<path class="st7" d="M298.7,162.6c0.6,0.2,1.2,0.2,1.5,0.5c2.5,2.4,5,4.8,7.4,7.3c0.6,0.6,0.6,1.5,0.1,2.2c-0.4,0.5-1.1,0.7-1.7,0.5
	c-0.5,0-0.9-0.1-1.3-0.4c-2.5-2.4-5-4.9-7.4-7.4c-0.5-0.5-0.4-1.3,0.1-1.7C297.7,163.3,298.2,162.9,298.7,162.6z"/>
<path class="st7" d="M500.8,350.5c-2.1-1-4.5-0.6-6.9-0.8c-0.8-0.1-1.6-0.3-2.3-0.6c-0.9-0.5-1.2-1.5-0.9-2.5c0.3-0.8,1-1.5,1.8-1.3
	c2.8,0.8,5.7,0.5,8.6,0.6c0.2,0,0.3,0,0.5,0.1c1.3,0.1,2.3,1.2,2.3,2.5c0,0,0,0.1,0,0.1C503.6,350,502.5,350.7,500.8,350.5z"/>
<path class="st6" d="M404.8,243.2c0.1,0.6-0.9,1.7-1.5,1.6c-0.5,0-0.9-0.1-1.4-0.3c-2.7-1.5-5.5-3.1-8.2-4.7c-1-0.6-1.4-1.8-0.9-2.9
	c0.1-0.1,0.2-0.3,0.3-0.4c0.4-0.5,1.1-1,1.6-0.7c3.3,2.1,7.3,3.2,9.7,6.5C404.7,242.6,404.7,242.9,404.8,243.2z"/>
<path class="st6" d="M103.3,216.2c-0.3-0.1-0.8,0-1.1-0.3c-2.5-2-4.9-4-7.3-6.1c-0.4-0.5-0.7-1.1-0.7-1.7c-0.1-0.8,0.4-1.6,1.2-1.9
	c0.4-0.2,0.9-0.2,1.3,0c2.9,2.2,6,4.2,8.3,7.1c0.4,0.5,0.5,1.2,0.2,1.8C104.7,215.8,104,216.2,103.3,216.2z"/>
<path class="st6" d="M559.5,355.6c-2,0.3-4.7-1-7.5-1.3c-0.6-0.1-1-1.4-0.7-2c0.3-0.8,1-1.3,1.8-1.4c1.1-0.2,2.2-0.2,3.3,0
	c2,0.5,4,0.8,6.1,0.8c0.6,0,1.2,0.2,1.8,0.6c0.4,0.3,0.6,0.7,0.7,1.1c0.1,0.6-0.2,1.3-0.8,1.6C563,355.8,561.7,355.5,559.5,355.6z"
	/>
<path class="st8" d="M75.7,186.9c0,0.9-0.8,1.5-1.6,1.5c-0.1,0-0.3,0-0.4-0.1c-0.3-0.1-0.6-0.3-0.8-0.4c-2.7-2.3-5-4.9-6.9-7.9
	c-0.6-0.8-0.5-1.8,0.3-2.4c0,0,0.1,0,0.1-0.1c0.9-0.6,2-0.7,2.6,0.1c1.8,2.6,4.2,4.7,6.3,7.1C75.7,185.4,75.8,186.1,75.7,186.9z"/>
<path class="st6" d="M387.7,232.2c0.1,1.1-0.8,2-1.8,2c-0.2,0-0.5,0-0.7-0.1c-3.2-1.6-6.2-3.7-9-6c-0.6-0.5-0.7-1.4-0.2-2
	c0,0,0.1-0.1,0.1-0.1c0.5-0.7,1.3-1,2.1-0.8c0.5,0.1,0.9,0.3,1.3,0.6c2.3,1.4,4.6,2.8,6.8,4.3C387,230.4,387.6,231.3,387.7,232.2z"
	/>
<path class="st7" d="M659.2,308.4c0,0.9-0.6,1.6-1.5,1.8c-0.6,0.2-1.2,0.1-1.8-0.2c-2.7-1.6-5.4-3.3-8-5.1c-0.9-0.6-1.2-1.9-0.6-2.8
	c0.1-0.2,0.3-0.4,0.5-0.5c0.3-0.3,1-0.6,1.3-0.5c3.3,1.8,6.5,3.8,9.5,6.1C658.9,307.6,659.1,308,659.2,308.4z"/>
<path class="st6" d="M90,201.6c-0.1,0.6-0.6,1.1-1.3,1.2c-0.9,0.2-1.9,0-2.7-0.7c-2.3-2.2-4.5-4.5-6.7-6.7c-0.6-0.6-0.6-1.5,0-2.1
	c0,0,0,0,0,0c0.5-0.7,1.3-1,2.1-0.7c0.6,0.2,1.1,0.5,1.6,0.9c2,2,4,4,6.1,6C89.8,200,90.1,200.8,90,201.6z"/>
<path class="st7" d="M246.5,102.4c0.4,0.1,0.8,0.2,1.1,0.4c0.7,0.6,1.4,1.3,2,2c1.4,1.9,2.7,4,4,5.9c0.2,0.3,0.3,0.5,0.4,0.8
	c0.3,1-0.1,2-1,2.5c-0.9,0.5-1.5,0.1-2.1-0.4c-0.4-0.3-0.7-0.7-1-1.1c-1.6-2.2-3.1-4.4-4.7-6.6c-0.3-0.4-0.4-0.9-0.5-1.3
	C244.8,103.5,245.5,102.6,246.5,102.4z"/>
<path class="st6" d="M259,118.5c0.5,0.2,1,0.5,1.4,0.9c2,2.5,3.9,5,5.8,7.6c0.6,0.6,0.6,1.6,0,2.2c-0.8,0.9-2.3,1.1-3,0.2
	c-2.1-2.8-4.7-5.2-6.4-8.3c-0.3-0.6-0.2-1.3,0.3-1.7C257.6,118.8,258.3,118.5,259,118.5z"/>
<path class="st6" d="M543.1,162.7c0.5,0.1,0.9,0.4,1.1,0.9c1.3,3.3,2.5,6.5,3.7,9.8c0.1,0.3,0,0.6-0.1,0.9c-0.3,0.5-0.8,1-1.3,1.3
	c-0.6,0.2-1.3,0-1.7-0.6c-1.2-1.7-2.1-3.6-2.6-5.6c-0.5-1.5-1.1-3-1.5-4.5C540.5,163.9,541.6,162.7,543.1,162.7z"/>
<path class="st6" d="M322.9,185.5c0.2-0.4,0.1,0-0.1,0.2c-0.7,0.8-1.8,1.2-2.5,0.6c-2.5-2.2-5.5-3.8-7.6-6.4c-0.8-0.9-0.7-2.2,0.2-3
	c0.5-0.5,1.2-0.8,1.7-0.4c2.7,2.4,6,4.2,8.3,7.1C323,183.9,323.4,184.3,322.9,185.5z"/>
<path class="st7" d="M229.1,283.6c-0.1,0.9-0.8,1.5-1.6,1.7c-0.6,0-1.2-0.1-1.8-0.3c-2.7-0.9-5.3-2-7.8-3.4
	c-0.7-0.3-1.3-0.9-1.6-1.6c-0.3-0.8,0-1.7,0.8-2c0.1-0.1,0.2-0.1,0.4-0.1c0.5-0.1,0.9-0.1,1.4,0c3.1,1.3,6.1,2.6,9.1,3.9
	C228.6,282.2,229,282.8,229.1,283.6z"/>
<path class="st7" d="M520,297.3c0.1,0,0.3,0,0.5,0c3.1,1,6.3,2.1,9.3,3.2c0.4,0.2,0.8,0.5,1.1,0.9c0.7,0.5,0.8,1.4,0.4,2.1
	c-0.4,0.7-1.2,1.1-2,1.1c-0.2,0-0.3,0-0.5-0.1c-3.1-1.2-6.2-2.3-9.2-3.6c-0.9-0.3-1.4-1.3-1.1-2.2c0.1-0.3,0.3-0.6,0.6-0.8
	C519.4,297.6,519.7,297.4,520,297.3z"/>
<path class="st7" d="M428.8,256c0.3,0,0.6,0,0.9,0.1c3.2,1.3,6.2,3.1,9,5.1c0.3,0.3,0.6,0.7,0.7,1.2c0.2,0.8-0.2,1.6-1,1.8
	c0,0,0,0-0.1,0c-0.5,0.1-0.9,0.1-1.4,0c-3.3-1.2-6.3-2.8-9.1-4.9c-0.8-0.7-0.8-1.8-0.2-2.6c0.1-0.1,0.2-0.2,0.3-0.3
	C428.3,256.3,428.5,256.1,428.8,256z"/>
<path class="st6" d="M632,289.7c0.5,0,0.9,0,1.1,0.1c3,1.8,5.8,3.9,8.4,6.2c0.3,0.4,0.5,0.8,0.6,1.3c0.1,0.8-0.2,1.6-0.9,2
	c-0.5,0.4-1.3,0.4-1.8,0c-2.7-2-5.3-4-8-6.1c-0.7-0.5-0.9-1.4-0.5-2.2C631.2,290.5,631.6,290.1,632,289.7z"/>
<path class="st6" d="M453.2,340.3c2.3,1.1,5.3,0.6,8.1,1.2c0.3,0.1,0.6,0.2,0.9,0.4c1,0.3,1.5,1.3,1.3,2.3c-0.3,1-1.1,1.9-2.1,1.6
	c-2.6-0.8-5.4-0.5-8-1.1c-0.5-0.1-0.9-0.4-1.4-0.5c-1-0.3-1.8-0.7-1.6-2S451.6,340.3,453.2,340.3z"/>
<path class="st7" d="M354.8,209.5c0,1-0.9,1.9-1.9,1.9c-0.5,0-0.9-0.1-1.4-0.3c-2.6-1.8-5.2-3.7-7.7-5.6c-0.8-0.4-1.2-1.5-0.7-2.3
	c0-0.1,0.1-0.1,0.1-0.2c0.6-1,2-1.3,3-0.6c0,0,0,0,0,0c2.6,1.8,5.2,3.7,7.7,5.6C354.5,208.3,354.8,208.9,354.8,209.5z"/>
<path class="st10" d="M171.8,260.2c-0.3,0-0.6-0.1-0.9-0.2c-2.9-1.6-5.8-3.2-8.7-4.9c-0.3-0.2-0.5-0.4-0.6-0.7
	c-0.4-0.5-0.4-1.2-0.1-1.8c0.3-0.4,0.7-0.6,1.2-0.7c0.5-0.1,0.9-0.1,1.4,0.1c2.8,1.4,5.7,2.8,8.4,4.3c0.5,0.4,0.9,0.9,1,1.5
	c0.2,1.1-0.5,2.1-1.6,2.3C171.9,260.2,171.9,260.2,171.8,260.2z"/>
<path class="st7" d="M322.8,317.1c-1.2,0.1-2.4-0.1-3.5-0.6c-1.9-0.6-3.9-1.1-5.9-1.7c-1.1-0.4-1.6-1.6-1.3-2.7
	c0.4-1,1.5-1.6,2.6-1.2c0,0,0.1,0,0.1,0c2.6,0.7,5.1,1.5,7.7,2.2c0.6,0.1,1.2,0.4,1.8,0.7c0.6,0.3,0.9,0.9,0.8,1.6
	c-0.1,0.6-0.5,1.2-1.1,1.4C323.6,317,323.2,317,322.8,317.1z"/>
<path class="st7" d="M210.1,275.4c-0.1,1.4-1.3,2.5-2.3,2c-2.9-1.2-5.8-2.5-8.7-3.8c-0.4-0.2-0.8-0.5-1.1-0.9
	c-0.4-0.5-0.8-1-0.5-1.7c0.3-0.8,1-1.3,1.8-1.4c0.3,0,0.6,0.1,0.9,0.2c3.2,0.9,6.1,2.6,9.1,4.2C209.8,274.3,210.1,274.8,210.1,275.4
	z"/>
<path class="st7" d="M333.3,316.3c1.2,0.3,2.7,0.6,4.2,1c2,0.5,3.9,1.1,5.8,1.8c0.8,0.3,1.3,1.1,1.1,1.9c-0.1,1-1.1,1.9-1.9,1.7
	c-3.5-0.9-7.1-1.4-10.5-2.8c-0.7-0.4-1-1.3-0.8-2.1C331.4,316.8,332,316.3,333.3,316.3z"/>
<path class="st8" d="M703.5,348.6c-2.7-1-5.7-0.4-8.3-1.6c-0.4-0.2-1-0.2-1.3-0.4c-0.7-0.5-0.9-1.3-0.7-2.1c0.1-0.6,0.6-1.1,1.3-1.2
	c0.6-0.1,1.3-0.2,1.9-0.1c2.8,0.5,5.5,1.2,8.3,1.8c1,0.2,1.8,0.7,1.6,1.9c-0.1,1.2-1.1,2-2.3,1.9
	C703.9,348.7,703.7,348.6,703.5,348.6z"/>
<path class="st11" d="M582.9,517.5c-1.1-0.1-2.1-1.3-1.9-2c0.2-0.6,0.4-1.2,0.7-1.8c1.4-2.7,2.8-5.3,4.3-8c0.4-0.7,1.2-1.1,2-0.8
	c1,0.3,1.6,1.2,1.3,2.2c-1.3,3.6-3.1,6.9-5.4,9.9C583.8,517.3,583.2,517.4,582.9,517.5z"/>
<path class="st7" d="M145.3,241.4c0.3,0,0.6,0.1,0.9,0.2c2.7,1.6,5.4,3.3,8.1,4.9c0.3,0.2,0.5,0.4,0.6,0.7c0.4,0.5,0.4,1.2,0.2,1.8
	c-0.3,0.6-0.9,0.9-1.6,0.8c-0.5,0-1,0-1.4-0.2c-2.6-1.5-5.2-3.1-7.8-4.6c-0.2-0.2-0.5-0.4-0.6-0.7c-0.5-0.4-0.6-1.2-0.3-1.8
	C143.8,241.9,144.5,241.4,145.3,241.4z"/>
<path class="st11" d="M564.5,562.5c-0.7,2.5-2,5.6-3.2,8.7c-0.1,0.3-0.4,0.5-0.6,0.7c-0.5,0.4-1.2,0.5-1.8,0.3
	c-0.6-0.2-1.1-0.7-1.1-1.4c-0.1-0.6,0-1.3,0.2-1.9c1-2.7,1.9-5.4,3-8.1c0.3-1.1,1.5-1.8,2.6-1.5c0,0,0,0,0,0
	C564.5,559.8,564.9,560.8,564.5,562.5z"/>
<path class="st12" d="M558,580.4c-0.1,0.5-0.2,1.3-0.4,2c-0.8,2.4-1.5,4.9-2.4,7.3c-0.3,1.1-1.4,1.9-2.5,1.6
	c-1.1-0.4-1.6-1.6-1.3-2.7c0.9-2.9,1.8-5.8,2.8-8.6c0.1-0.3,0.3-0.6,0.5-0.8c0.4-0.7,1.3-1,2.1-0.8
	C557.6,578.5,557.8,579.3,558,580.4z"/>
<path class="st6" d="M555.7,192c0,0.8-0.5,1.5-1.3,1.8c-0.6,0.3-1.3,0.1-1.7-0.4c-0.6-0.5-1.1-1.1-1.5-1.8c-1-2.3-2-4.6-2.9-7
	c-0.3-0.9-0.2-1.9,0.4-2.7c0.5-0.8,2-1.1,2.4-0.3c1.6,3.3,3.1,6.6,4.6,9.9C555.7,191.7,555.7,191.8,555.7,192z"/>
<path class="st7" d="M394.4,330.5c2.3,0.5,5,1,7.6,1.5c0.5,0.1,0.9,0.4,1.3,0.7c0.5,0.4,0.8,1,0.6,1.7c-0.2,0.9-0.8,1.7-1.5,1.6
	c-3.4-0.5-6.9-1.2-10.2-1.9c-0.5-0.1-0.9-0.8-1.3-1.3c-0.3-0.8,0.1-1.7,0.8-2C392.5,330.6,393.3,330.6,394.4,330.5z"/>
<path class="st7" d="M419.6,339.3c-2.5-0.4-5.3-0.8-8.1-1.3c-0.8-0.1-1.4-0.9-1.3-1.8c0.1-0.8,0.7-1.5,1.5-1.6
	c1.3-0.2,2.5-0.2,3.8-0.1c2.2,0.4,4.3,1,6.6,1.1c0.4,0,0.8,0.4,1.2,0.7c0.6,0.6,0.7,1.6,0,2.3c-0.1,0.1-0.1,0.1-0.2,0.2
	C422.2,339.4,421.1,339.2,419.6,339.3z"/>
<path class="st6" d="M328.8,189.5c0.9-0.1,1.7,0.1,2.4,0.6c2.2,1.8,4.4,3.7,6.6,5.5c0.3,0.3,0.6,0.7,0.8,1.2c0.4,0.8,0,1.7-0.7,2
	c-0.1,0.1-0.3,0.1-0.5,0.1c-0.5,0.1-1,0.1-1.4-0.1c-3.3-1.7-6.1-4.1-8.3-7c-0.4-0.5-0.4-1.3,0.1-1.8
	C328,189.8,328.5,189.7,328.8,189.5z"/>
<path class="st7" d="M360.6,213.6c0.5,0.1,0.9,0.2,1.4,0.4c2.8,1.8,5.6,3.6,8.3,5.6c0.8,0.4,1.1,1.5,0.7,2.3c0,0.1-0.1,0.1-0.1,0.2
	c-0.5,0.9-1.6,1.2-2.5,0.7c-3-2-6.4-3.5-8.8-6.5c-0.4-0.5-0.4-1.2,0-1.8C359.9,214.2,360.2,213.9,360.6,213.6z"/>
<path class="st7" d="M574.7,226.6c0.1,0.7-0.3,1.4-1,1.8c-0.4,0.2-0.9,0.2-1.3,0c-0.6-0.3-1.1-0.7-1.5-1.2c-2-2.4-3.7-5.1-5-8
	c-0.4-0.7-0.2-1.6,0.4-2.1c0.7-0.7,1.6-0.6,2.5,0.3c0.7,0.6,1.3,1.3,1.9,2.1c1.2,1.9,2.3,3.8,3.4,5.7
	C574.4,225.6,574.5,226.1,574.7,226.6z"/>
<path class="st7" d="M121.6,227.2c-0.1,0.6-1.2,1.5-1.8,1.3c-0.6-0.1-1.2-0.4-1.8-0.7c-2.6-1.8-5.2-3.7-7.7-5.5
	c-0.6-0.4-0.8-1.1-0.6-1.7c0.2-0.8,1-1.3,1.8-1.3c0.6,0,1.2,0.1,1.8,0.4c2.7,1.6,5.3,3.5,7.6,5.7
	C121.4,225.9,121.7,226.6,121.6,227.2z"/>
<path class="st7" d="M422,252.7c0,0.7-0.3,1.3-0.9,1.6c-0.7,0.5-1.6,0.5-2.3,0.1c-2.8-1.6-5.5-3.1-8.3-4.8c-0.5-0.4-0.7-1.1-0.7-1.7
	c0-1,0.9-2,1.8-1.6c3.6,1.3,6.9,3.2,9.9,5.6C421.9,252.1,421.9,252.5,422,252.7z"/>
<path class="st13" d="M717.4,346.9c2.2-0.4,4.8,0.7,7.4,1.2c0.8,0.1,1.4,0.8,1.5,1.6c-0.1,1-0.8,1.8-1.8,1.9c-0.9,0.1-1.9,0.1-2.8,0
	c-2-0.5-4-0.9-6-1c-0.8,0-1.6-0.4-2-1.1c-0.4-0.4-0.7-1-0.8-1.6c0.1-1,1-1.1,1.8-1.1S716.1,346.9,717.4,346.9z"/>
<path class="st7" d="M602.5,263.7c1.2-0.2,1.8-0.1,2.3,0.4c2.4,2.4,4.7,4.7,7,7.1c0.6,0.6,0.6,1.5,0.1,2.2c-0.4,0.5-1.1,0.7-1.7,0.6
	c-0.6-0.1-1.2-0.3-1.7-0.7c-2.1-2-4.1-4-6-6.1c-0.6-0.7-0.8-1.8-0.4-2.7C602.2,264.2,602.3,263.9,602.5,263.7z"/>
<path class="st7" d="M483.1,282.7c0.4,0,0.8,0.1,1.2,0.2c3,1,5.9,2.3,8.6,3.9c1.1,0.6,1.4,1.6,0.9,2.4c-0.4,0.9-1.5,1.3-2.4,1
	c-3.2-1.4-6.6-2.3-9.5-4.2c-0.6-0.3-0.8-1-0.7-1.6C481.5,283.4,482.2,282.8,483.1,282.7z"/>
<path class="st13" d="M578.2,356.4c-1.6,0-3.2,0.1-4.7,0c-0.8-0.1-1.5-0.5-1.9-1.3c-0.5-0.8-0.2-1.7,0.5-2.2
	c0.1-0.1,0.2-0.1,0.3-0.1c0.5-0.1,0.9-0.2,1.4-0.2c2.8,0,5.7,0,8.5,0c0.3,0,0.6,0,0.9,0.1c1,0.2,1.8,0.6,1.9,1.8
	c0,1-0.8,1.8-1.8,1.9c-0.6,0.1-1.3,0.1-1.9,0.1c-1.1,0-2.2,0-3.3,0V356.4z"/>
<path class="st10" d="M619,358.4c-1.7,0-3.5,0.1-5.2,0c-1,0-1.9-0.7-2-1.7c0-1,0.7-1.8,1.7-1.9c3.3-0.1,6.6,0,9.9,0
	c0.5,0.1,0.9,0.2,1.3,0.5c0.7,0.4,1,1.2,0.8,2c-0.1,0.6-0.7,1.1-1.4,1.1C622.4,358.4,620.7,358.4,619,358.4L619,358.4z"/>
<path class="st13" d="M245.3,292.2c-0.6,0-1.1-0.1-1.7-0.3c-2.7-1-5.4-2-8-3.1c-0.6-0.2-1-0.8-1-1.5c0-0.8,0.5-1.6,1.4-1.7
	c0.8-0.2,1.6-0.2,2.3,0c2.7,0.9,5.4,2,8,3.1c0.9,0.4,1.4,1.4,1.1,2.4C247.1,292.1,246.3,292.1,245.3,292.2z"/>
<path class="st14" d="M671.8,411.3c-1-0.1-1.7-1-1.6-1.9c0-0.2,0.1-0.4,0.2-0.6c0.3-0.5,0.8-1,1.2-1.4c2.1-1.7,4.3-3.3,6.4-4.9
	c0.4-0.3,0.8-0.5,1.3-0.6c0.6-0.2,1.3-0.1,1.8,0.4c0.6,0.6,0.8,1.4,0.4,2.2c0,0.2-0.1,0.3-0.2,0.4c-2.8,2.1-5.5,4.3-8.3,6.4
	C672.7,411.4,672.1,411.3,671.8,411.3z"/>
<path class="st15" d="M721.9,377.6c-1.4,0.1-2.4-0.9-2.1-1.9c0.1-0.6,0.4-1.2,0.8-1.6c2.8-1.7,5.8-3.3,8.7-4.9
	c0.5-0.1,0.9-0.1,1.4,0c0.9,0.3,1.5,1.3,1.2,2.2c0,0.2-0.1,0.3-0.2,0.4c-0.4,0.5-0.9,0.9-1.4,1.2c-2.3,1.4-4.7,2.7-7,4
	C722.9,377.3,722.4,377.5,721.9,377.6z"/>
<path class="st16" d="M704.6,388.2c-1.5-0.1-2.3-1.7-1.7-2.6c0.3-0.5,0.7-1,1.3-1.4c2.3-1.5,4.5-2.9,6.8-4.4
	c0.7-0.4,1.5-0.6,2.3-0.5c0.6,0.1,1.2,0.6,1.4,1.1c0.3,0.6,0.2,1.3-0.3,1.7c-1.8,1.3-3.6,2.5-5.5,3.8c-0.9,0.6-1.9,1.2-2.8,1.8
	C705.5,388,705.1,388.1,704.6,388.2z"/>
<path class="st15" d="M697.9,392.1c0,0.6-0.3,1.2-0.8,1.6c-2.6,1.8-5.2,3.7-7.8,5.4c-0.8,0.6-1.9,0.5-2.6-0.2c0,0,0,0,0,0
	c-0.7-0.9-0.6-2.2,0.3-2.9c0,0,0.1-0.1,0.1-0.1c2.7-2,5.5-3.9,8.3-5.6c0.9-0.4,1.9-0.1,2.4,0.8C697.9,391.4,698,391.8,697.9,392.1z"
	/>
<path class="st15" d="M640,435.9c0.1-0.5,0.1-1.1,0.4-1.4c2.3-2.7,4.8-5.1,7.5-7.3c0.7-0.5,1.6-0.5,2.2,0.1c0.8,0.6,1,1.7,0.4,2.5
	c0,0,0,0,0,0c-2.3,2.7-4.8,5.1-7.6,7.2c-0.6,0.5-1.6,0.5-2.2-0.1C640.4,436.7,640.2,436.4,640,435.9z"/>
<path class="st16" d="M614.9,466.8c-0.8,0-1.5-0.6-1.7-1.4c-0.1-0.8,0.1-1.6,0.6-2.2c1.9-2.3,3.9-4.6,5.8-6.9
	c0.2-0.2,0.5-0.4,0.8-0.6c0.6-0.3,1.3-0.3,1.8,0c0.7,0.4,1,1.3,0.8,2.1c0,0.2,0,0.3-0.1,0.5c-2.1,3-4.5,5.7-7.1,8.3
	C615.6,466.8,615.2,466.8,614.9,466.8z"/>
<path class="st17" d="M610.5,472.9c0,0.4-0.1,0.8-0.2,1.2c-1.9,2.7-3.8,5.5-5.7,8.1c-0.4,0.4-1,0.7-1.6,0.8c-1,0.2-2.2-1.3-1.8-2.2
	c1.7-3.4,3.9-6.5,6.5-9.3c0.5-0.5,1.2-0.6,1.7-0.2C610.1,471.5,610.5,472.1,610.5,472.9z"/>
<path class="st13" d="M302.1,311.4c-2.9-0.5-5.8-1.4-8.5-2.6c-0.5-0.3-1-0.8-1.3-1.4c-0.4-0.5-0.4-1.3,0.1-1.8
	c0.3-0.3,0.7-0.6,1.2-0.7c0.3,0,0.6,0,0.9,0.1c2.8,0.8,5.5,1.6,8.2,2.4c0.6,0.2,1.2,0.5,1.7,0.9c0.5,0.4,0.7,1.1,0.6,1.7
	c-0.1,0.7-0.6,1.2-1.3,1.2C303.3,311.4,302.8,311.4,302.1,311.4z"/>
<path class="st7" d="M559.8,310.5l8.1,2.3c0.1,0.1,0.3,0.2,0.4,0.3c1.1,0.7,1.8,1.9,1.4,2.8c-0.5,1.1-1.8,1.5-2.8,1.1
	c-2.7-0.9-5.5-1.8-8.2-2.7c-0.2,0-0.3-0.1-0.5-0.2c-0.9-0.4-1.5-1.3-1.3-2.3C557,310.8,557.9,310.4,559.8,310.5z"/>
<path class="st17" d="M578.4,522.7c1.1,0,2.3,1.1,2,1.9c-1.3,3.6-2.6,7.2-4.9,10.3c-0.2,0.3-0.9,0.4-1.3,0.4c-0.9,0-2.1-1-1.8-1.8
	c1.1-3.6,2.8-7.1,4.9-10.3C577.6,522.8,578.2,522.8,578.4,522.7z"/>
<path class="st16" d="M566.5,553.8c-1.1-0.1-2-1.1-1.9-2.3c0-0.1,0-0.2,0.1-0.3c1.2-3.1,2.5-6.1,3.8-9.2c0.1-0.1,0.2-0.3,0.3-0.4
	c0.6-0.8,1.7-1,2.5-0.6c0.7,0.4,1.1,1.2,0.8,2c-1.1,3.5-2.5,6.8-4.3,10C567.6,553.5,566.8,553.7,566.5,553.8z"/>
<path class="st7" d="M665.9,311.6c0.5,0.1,0.9,0.2,1.4,0.4c2.8,1.5,5.5,3.1,8.3,4.7c0.6,0.3,0.9,0.9,0.8,1.6
	c-0.1,0.8-0.7,1.5-1.5,1.6c-0.8,0.2-1.6,0.1-2.3-0.2c-2.4-1.2-4.7-2.5-7-3.9c-1.1-0.5-1.5-1.9-0.9-2.9c0.1-0.1,0.1-0.2,0.2-0.3
	C665.1,312.1,665.5,311.8,665.9,311.6z"/>
<path class="st6" d="M693.8,327.6c-0.2,0.2-0.4,0.8-0.8,0.9c-0.6,0.2-1.2,0.2-1.9,0.1c-2.6-0.7-5.1-1.8-7.4-3.2
	c-0.4-0.3-0.8-0.6-1.1-0.9c-0.7-0.7-1.3-1.5-0.8-2.5c0.4-0.9,1.5-1.2,2.4-0.8c0,0,0.1,0,0.1,0.1c2.9,1.3,5.8,2.7,8.6,4.2
	C693.7,325.8,694.1,326.7,693.8,327.6z"/>
<path class="st7" d="M380.8,331.5c-3-0.2-6-0.9-8.8-1.9c-0.8-0.1-1.4-0.9-1.3-1.7c0.1-1.2,1-2.1,2.2-2c0,0,0,0,0,0
	c2.2,0.4,4.3,0.9,6.5,1.4c0.9,0.1,1.9,0.3,2.8,0.6c0.6,0.3,1,0.7,1.4,1.2c0.5,0.7,0.2,1.6-0.5,2.1c-0.1,0.1-0.3,0.1-0.4,0.2
	c-0.2,0-0.3,0.1-0.5,0.1L380.8,331.5z"/>
<path class="st18" d="M598.5,357.5c-1.9-0.2-3.8,0.3-5.6-0.4c-0.8-0.2-1.3-1-1.2-1.8c0.1-0.6,0.6-1.1,1.2-1.4
	c0.1-0.1,0.3-0.1,0.5-0.2c3.5-0.3,6.9-0.3,10.4,0c0.2,0,0.3,0.1,0.5,0.2c0.8,0.3,1.2,1,1.2,1.9c-0.1,0.6-0.5,1.2-1.2,1.4
	C602.3,357.8,600.4,357.4,598.5,357.5z"/>
<path class="st18" d="M639.1,355.6c1.6,0,3.2-0.1,4.7,0c1,0,1.8,0.8,1.8,1.8c0,1-0.8,1.8-1.8,1.8l0,0c-3.2,0.1-6.3,0.1-9.5,0.1
	c-0.3,0-0.6-0.1-0.9-0.2c-0.8-0.3-1.4-0.8-1.4-1.7c0-0.8,0.5-1.6,1.4-1.7c1.9-0.2,3.8-0.3,5.7-0.4L639.1,355.6z"/>
<path class="st7" d="M547.8,310.4c-0.5,0-1,0-1.5-0.2c-2.3-0.7-4.5-1.4-6.8-2.3c-1.7-0.6-2.2-1.7-1.6-2.9s1.3-1.3,2.8-0.9
	c2.7,0.8,5.5,1.6,8.2,2.5c1,0.3,1.8,0.8,1.8,2S549.5,310.4,547.8,310.4z"/>
<path class="st18" d="M720.5,356.6c1.6,0,3.2-0.1,4.7,0c1,0,1.8,0.7,1.9,1.7c0,1-0.8,1.8-1.8,1.9c-3.3,0.1-6.7,0.1-10,0
	c-1,0-1.9-0.7-1.9-1.7c0-1,0.8-1.8,1.8-1.9C717,356.5,718.7,356.6,720.5,356.6L720.5,356.6z"/>
<path class="st7" d="M657,335.4c2.5,0.6,5.5,1.3,8.6,2.1c0.8,0.2,1.4,0.9,1.3,1.8c-0.2,1-1,1.7-2,1.7c-0.9,0-1.9-0.1-2.8-0.4
	c-2.3-0.6-4.6-1-6.9-1.5c-1.2-0.3-1.5-1.1-1.3-2.2s1-1.5,2-1.5L657,335.4z"/>
<path class="st13" d="M558.3,199.2c0.3,0.1,0.8,0.2,1,0.6c1.7,2.9,3.3,5.8,4.9,8.8c0.2,0.5,0.2,0.9,0.1,1.4
	c-0.1,0.9-0.9,1.5-1.8,1.4c-0.1,0-0.2,0-0.3-0.1c-0.9-0.4-1.7-1-2.1-1.9c-1.4-2.5-2.7-5.1-3.9-7.7c-0.4-1,0.2-2.1,1.2-2.5
	C557.7,199.2,558,199.2,558.3,199.2z"/>
<path class="st10" d="M283.2,305.6c-2.9-0.8-6.5-1.5-9.6-3.5c-0.6-0.3-0.9-1-0.6-1.7c0.3-0.6,0.7-1,1.3-1.3c0.6-0.2,1.2-0.1,1.8,0.1
	c2.6,0.8,5.1,1.7,7.7,2.6c0.3,0.1,0.6,0.2,0.9,0.4c0.9,0.4,1.3,1.4,1.1,2.4C285.5,305.3,284.9,305.6,283.2,305.6z"/>
<path class="st14" d="M666,416c-0.1,0.4-0.2,0.7-0.5,1c-2.5,2.2-5,4.4-7.6,6.5c-0.5,0.3-1.2,0.4-1.8,0.3c-0.9-0.2-1.5-1.1-1.4-2
	c0,0,0-0.1,0-0.1c0.1-0.3,0.2-0.6,0.5-0.8c2.5-2.2,5-4.4,7.6-6.5c0.6-0.3,1.2-0.4,1.8-0.3C665.3,414.1,666.1,415.1,666,416z"/>
<path class="st7" d="M683.7,345c-2.8-0.8-6.2-0.9-9.2-2.2c-0.8-0.2-1.3-1-1.2-1.9c0.2-0.8,0.8-1.4,1.6-1.5c0.5-0.1,0.9-0.1,1.4,0
	c2.8,0.6,5.5,1.2,8.3,1.9c1.4,0.3,1.9,1.2,1.7,2.4S685.1,344.9,683.7,345z"/>
<path class="st13" d="M608.3,325.9c-0.3,0.9-0.9,1.7-1.7,1.6c-3.6-0.4-7.1-1.4-10.5-2.8c-0.7-0.4-1.1-1.2-0.8-2
	c0.2-0.8,0.9-1.6,1.7-1.4c3.4,0.8,6.9,1.2,10,2.8C607.8,324.4,608.3,325.1,608.3,325.9z"/>
<path class="st13" d="M590.1,249c0.8-0.2,1.6,0.1,2.2,0.7c1.6,2.6,4,4.5,6,6.8c0.6,0.6,0.6,1.6,0,2.2c-0.5,0.6-1.4,0.9-2.2,0.7
	c-0.3-0.1-0.6-0.2-0.8-0.4c-2.6-2.1-4.8-4.7-6.5-7.6c-0.5-0.7-0.2-1.7,0.5-2.1C589.6,249.1,589.8,249,590.1,249z"/>
<path class="st13" d="M578.2,233c0.4,0.1,0.7,0.3,1,0.5c2.5,2.1,4.1,4.9,6,7.4c0.5,0.8,0.6,1.9,0.1,2.8c-0.2,0.7-1,1-1.7,0.8
	c-0.1,0-0.2-0.1-0.3-0.1c-2.9-2.5-5.3-5.6-7-9c-0.3-0.9,0.1-1.9,1-2.2C577.6,233,577.9,233,578.2,233z"/>
<path class="st10" d="M516.5,347.9c2,0.1,4.1-0.4,6.1,0.6c0.9,0.5,1.6,1.1,1.4,2.2c-0.2,1.2-1.3,1.9-2.5,1.7c-2.6-0.9-5.3-0.7-8-0.8
	c-0.6-0.1-1.2-0.3-1.8-0.6c-0.7-0.4-1.1-1.2-0.9-2c0.1-0.6,0.7-1.1,1.3-1.1C513.7,347.9,515.1,347.9,516.5,347.9z"/>
<path class="st19" d="M679.5,356.6c1.8,0,3.5,0,5.3,0c0.8,0,1.5,0.7,1.5,1.6c0.2,0.9-0.4,1.8-1.3,2c-0.1,0-0.2,0-0.3,0
	c-3.2,0.1-6.4,0.1-9.6,0c-0.6-0.1-1.2-0.4-1.6-0.9c-0.5-0.4-0.6-1.2-0.3-1.8c0.2-0.4,0.7-0.8,1-0.9
	C676,356.6,677.7,356.7,679.5,356.6L679.5,356.6z"/>
<path class="st10" d="M699.9,360.3c-1.8,0-3.5,0-5.3,0c-0.7,0-1.2-0.5-1.3-1.1c-0.2-0.8,0.2-1.6,0.9-2c0.2-0.2,0.5-0.3,0.9-0.4
	c3.3,0,6.7,0,10,0c0.7,0,1.1,0.6,1.3,1.3c0.3,0.9-0.2,2-1.2,2.3c0,0,0,0,0,0c-0.2,0-0.3,0.1-0.5,0.1L699.9,360.3L699.9,360.3z"/>
<path class="st13" d="M730.5,340.9c0.2,0.9-0.4,1.8-1.3,2c-0.1,0-0.2,0-0.3,0c-0.5,0-0.9,0-1.4-0.1c-2.7-0.9-5.4-1.8-8-2.8
	c-0.3-0.1-0.6-0.3-0.8-0.5c-0.6-0.6-0.7-1.5-0.4-2.2c0.2-0.6,0.8-1,1.4-1c0.5-0.1,1,0,1.4,0.1c2.7,0.9,5.4,1.8,8.1,2.8
	C729.9,339.5,730.4,340.1,730.5,340.9z"/>
<path class="st13" d="M585.9,322c-3-0.5-6-1.4-8.8-2.5c-0.7-0.4-1.1-1.2-0.9-2c0.2-1,0.9-1.2,1.8-1.2c0.5,0,1,0,1.4,0
	c2.8,0.7,5.5,1.4,8.3,2.1c0.8,0.2,1.4,0.9,1.4,1.7c-0.1,1-0.9,1.8-1.9,1.8C586.8,321.9,586.5,322,585.9,322z"/>
<path class="st14" d="M626.8,451.7c-0.5-0.5-0.8-1.2-0.7-1.9c0.1-0.6,0.4-1.2,0.8-1.7c1.9-2.1,3.9-4.1,5.9-6.1
	c0.3-0.3,0.7-0.6,1.2-0.8c0.9-0.4,1.9-0.1,2.4,0.8c0.2,0.4,0.3,1,0.1,1.4c-0.1,0.3-0.2,0.6-0.4,0.8c-2,2.2-4.1,4.4-6.2,6.6
	C629.2,451.4,628.5,451.7,626.8,451.7z"/>
<path class="st13" d="M541.4,154c-0.1,1.4-0.1,2.2-1,2.5c-0.9,0.3-2-0.1-2.4-1c-1.2-2.9-2-6-2.3-9.2c0-0.6,0.2-1.3,0.5-1.8
	c0.3-0.4,0.7-0.7,1.1-0.8c0.6-0.1,1.3,0.2,1.6,0.7c0.8,0.9,0.5,2.1,0.9,3.2C540.4,150,541,152.3,541.4,154z"/>
<path class="st18" d="M474.6,343c2.4,0.6,4.9,1.1,7.4,1.3c0.5,0,1,0.7,1.4,1.1c0.5,0.7,0.3,1.6-0.4,2.1c-0.1,0.1-0.2,0.1-0.4,0.2
	c-3.8,0.5-7.6,0-11.1-1.3c-0.6-0.3-1-0.9-0.8-1.6c0.1-0.6,0.5-1.2,1.1-1.4C472.7,343.2,473.6,343.1,474.6,343z"/>
<path class="st14" d="M599.5,489.3c0,0.4-0.1,0.8-0.3,1.2c-1.6,2.8-3.2,5.5-4.8,8.2c-0.6,0.9-1.9,1.2-2.9,0.6
	c-0.7-0.4-1-1.3-0.7-2.1c1.7-3,3.5-6,5.4-9c0.5-0.7,1.4-1,2.1-0.6C598.9,488,599.4,488.6,599.5,489.3z"/>
<path class="st7" d="M709.2,336.3c-2.6-1-5.9-1.7-8.6-3.7c-0.7-0.5-0.9-1.4-0.5-2.1c0.3-0.6,0.9-0.9,1.6-0.8c0.8,0,1.6,0.1,2.3,0.3
	c2.1,0.8,4.1,1.6,6.1,2.5c0.6,0.3,1.1,0.6,1.5,1.1c0.5,0.5,0.6,1.1,0.4,1.8c-0.2,0.7-0.8,0.9-1.4,1
	C710.1,336.3,709.6,336.3,709.2,336.3z"/>
<path class="st18" d="M138.1,238c-0.2,0.7-0.5,1.2-1.2,1.3c-0.6,0.1-1.3,0.1-1.9-0.1c-2.8-1.4-5.6-2.9-7.7-5.4
	c-0.3-0.4-0.4-0.8-0.5-1.3c-0.1-0.8,0.5-1.5,1.3-1.6c0,0,0,0,0.1,0c2,0.2,9,4.7,9.8,6.3C138,237.4,138.1,237.7,138.1,238z"/>
<path class="st19" d="M537.8,353.6c-1.4,0-2.8,0-4.3,0c-0.8,0-1.6-0.4-2.1-1c-0.5-0.5-0.6-1.2-0.3-1.8c0.2-0.4,0.6-0.9,1-0.9
	c3.5-0.3,6.9-0.3,10.4,0.1c0.5,0.1,1,0.7,1.4,1.2c0.4,0.7,0.2,1.6-0.5,2.1c-0.1,0.1-0.3,0.1-0.4,0.2
	C541.3,353.6,539.6,353.5,537.8,353.6L537.8,353.6z"/>
</svg>
