<svg xmlns="http://www.w3.org/2000/svg" viewBox="0 0 826.92 671.77"><defs><style>.cls-1{fill:none;}.cls-2{fill:#e0deed;}.cls-3{fill:#f26862;}.cls-4{fill:#fff;}</style></defs><title>Layer 2 (4)</title><g id="Layer_2" data-name="Layer 2"><g id="Layer_1-2" data-name="Layer 1"><g id="Layer_2-2" data-name="Layer 2"><g id="Layer_1-2-2" data-name="Layer 1-2"><rect class="cls-1" x="0.01" width="826.82" height="671.66"/><path class="cls-2" d="M225.89,51.18a7.32,7.32,0,0,0-1.3,1.12c-3.19,4-4.72,3.88-6.7-.86-2.82-6.78-4.54-13.74-1.72-21,2.08-5.39,4.74-7.17,10.24-5.61s9.52-.38,13.15-4.31c5-5.41,10.07-10.68,12-18.21C251.84,1.2,254.42,0,255.91,0c2.74.06,5.45,1,8.18,1.59,5.81,1.19,5.79,1.18,5.38,7.25a35.21,35.21,0,0,0-.2,6.41c.33,2.81,2.28,3.83,5,3.13a8.2,8.2,0,0,0,3.35-1.57A14.58,14.58,0,0,1,289,12.65c1.47.11,3.13-1.36,4.58-2.3A54.75,54.75,0,0,0,298,6.74c.25,2.73.5,4.55.58,6.38.4,9.2,9.47,19.46,18.65,20.83,2.62.39,4.08,1.28,4.38,4.17.42,4.17,3.22,7,6.25,9.64,4.45,3.87,8.66,7.8,8,14.63-.27,2.8,2.15,3.21,4.31,2.71a25.44,25.44,0,0,0,4.52-1.94c4.27-1.9,9.5.74,10,5.41.38,3.83,1.68,6.71,5,8.82,1.16.73,2.45,2.35,2.46,3.57,0,3.55,2.21,5.66,4,8.28,1.6,2.35,2.29,5.42,2.9,8.28.35,1.66-.32,3.51-.4,5.29-.32,7.6.74,9.17,7.81,11.75.59.22,1.35.3,1.74.71,7.09,7.63,16.86,7.13,26,8.51a4.91,4.91,0,0,1,4.48,3.9c1.28,4.13,3.72,5.3,7.8,3.89a9.49,9.49,0,0,0,2.72-1.31c3.53-2.7,7.2-2.49,10.59-.11,9.52,6.68,19.61,4.68,29.61,1.94,5.18-1.4,6.08-4,3.75-8.83-2.63-5.47-2.4-6.63,2.82-9.74,2.43-1.45,2.58-3.48,2.56-5.84,0-4.92,1-5.69,5.56-4.5s4.87.62,6.08-3.83a132.89,132.89,0,0,1,5.31-15,7.24,7.24,0,0,1,6-4.62c4.11-.68,8.1-2,12.18-2.93a18.45,18.45,0,0,0,11.6-7.8,14.15,14.15,0,0,1,8-5.07c8.32-1.73,12.17-7.07,13.87-14.73.72-3.21,1.16-6.53,2.32-9.58,1.1-2.89,2.36-6.31,4.64-8.06,6.49-5,9.62-12,13-18.92.64-1.34,1.35-2.64,2.11-4.11,6.2,4.29,12.36,7.72,15.82,14.74,2.35,4.79,6.58,8.63,9.77,13A11.41,11.41,0,0,1,587,41.45c.52,4.9,3.33,8.22,6.43,11.72s5.27,7.63,7.94,11.44c1.79,2.55,3.64,5.07,5.62,7.47,1.36,1.64,3.31,2.85,4.45,4.61,2.79,4.34,5.36,8.57,9.88,11.67,2.4,1.65,3.17,5.6,4.85,8.4,2.06,3.43,3.83,7.23,6.58,10,5.1,5.15,7.53,10.48,7.43,18.13-.08,7-.37,14.92,5.23,21.06,1,1.32,1.1,3.88,1.1,5.88-.09,5.65,2,10.24,5.54,14.55,5.38,6.54,10.44,13.35,15.65,20,.78,1,1.68,1.89,2.51,2.85,2.21,2.53,4.75,4.85,6.54,7.66,1.89,3,4.12,4.65,7.65,4.69,6.92.08,11.15,4.47,14.36,9.8.88,1.47.18,4.08-.24,6.07-.24,1.14-1.38,2.08-2.12,3.12-3.83,5.39-3.66,7.59.6,12.8s9.23,9,16.56,9.51c3,.21,5.83,3.09,8.72,4.77,1,.61,2,1.6,3.11,1.83,4.07.84,8.21,1.38,12.3,2.14,4.86.91,9.63.89,14.11-1.42,5.48-2.82,11-4.21,17.14-2.06,1.78.62,4,.09,5.78.09,1.74,2.79,3.33,5.64,5.21,8.29a10.56,10.56,0,0,0,8.55,4.76,32.47,32.47,0,0,1,11.46,3.12c1.83.87,3.32,3.51,3.93,5.64a11.81,11.81,0,0,0,6.39,7.55c8.1,4.26,12.28,11.07,12.59,20.15.17,4.87.27,9.6,3.8,13.57.61.68,0,2.46-.09,3.74-1.2-.33-2.89-.27-3.52-1.06a31.74,31.74,0,0,1-4.37-7.06C815,298.45,808,295.3,799.43,294.38a24.23,24.23,0,0,1-7.53-1.93c-2.74-1.29-5-.85-7.6.23-2.27.94-4.81,1.2-7.21,1.82-1.66.43-3.56.59-4.89,1.54-2.7,1.92-5.16,1.76-7.73,0-1.15-.77-2.2-1.72-3.36-2.49-6-3.94-9.93-3.7-14.56,1.25-.88.94-1,2.77-1.13,4.21-.53,5.63-3.27,8.47-8.76,9.17a13.11,13.11,0,0,0-3.7,1.51c-.56.27-1,.9-1.52,1.11-7.12,2.68-14.17,5.59-21.42,7.89-8.47,2.69-15.9,12.72-15.31,21.59.17,2.67-.27,4.4-3.32,5.44-2.38.81-4.37,2.93-6.34,4.68a2.61,2.61,0,0,0,0,2.46,77.69,77.69,0,0,0,6.37,8.92c2.26,2.6,2.73,5.24-.26,7-6.09,3.52-6.65,8.21-4.47,14.21a6.84,6.84,0,0,1-1.65,7.72,3.91,3.91,0,0,0-.33,3.47c1.07,2.48,1.28,4.83-.73,6.67-3.11,2.84-2.58,5.76-.76,8.87.64,1.09,1.45,2.08,2.15,3.14,3.09,4.68,2.27,5.68-2.15,8.8-6.33,4.48-11.5,10.21-12.27,18.6a15.38,15.38,0,0,1-.72,3.68,55.7,55.7,0,0,1-3.14,8.39c-3.31,6.3-.67,10.5,4.36,14.18,4.19,3.07,8.3,6.26,12.37,9.49,2.51,2,3.3,4.23,1.18,7.23-.83,1.17-.72,3.07-.82,4.65a40.13,40.13,0,0,0,.35,4.78L680.4,489l4,10-1.23.91a69,69,0,0,1-6.32-5c-2.8-2.79-5.43-6.51-9.85-5-4.69,1.63-6.46,6.22-6.57,10.74-.17,6.69.67,13.4.77,20.1,0,2.68-.14,5.67-1.27,8-2.83,5.86-4.52,11.86-3.94,18.34.33,3.75-1.79,6.31-4.33,8a80.2,80.2,0,0,1-12.8,6.34c-2.61,1.08-4.6-.38-5-3.09s-1.25-6.16,2.76-6.76c5.81-.85,8.68-4.83,11.11-9.38,2.18-4.07.46-6.68-4.15-6.68a41.46,41.46,0,0,1-4.17-.1c-5.12-.54-5.92-1.91-4.58-6.92a6.83,6.83,0,0,0-.18-4c-1.34-3.49-5.12-5-10.32-4.56-3.75.36-5,2.71-6.12,6.13a43.09,43.09,0,0,0-2,13.29c0,3.35.06,6.4,2.16,9.39.9,1.27.51,3.87,0,5.66-1.87,6.51-4.19,12.89-6,19.4-1.21,4.28-3.65,6.66-8,7.5-5.23,1-5.56,1.27-4.72,6.56.5,3.11,1.5,6.63,3.5,8.9a12.49,12.49,0,0,1,2.94,11.94,13.51,13.51,0,0,0,1.68,10.88,12.46,12.46,0,0,1,1.48,6.18c.16,10,.07,20,.11,29.94,0,1.76.23,3.52.38,5.85-2.67,0-5.39.17-8.09,0-5.48-.44-9.83,1.5-13.54,5.5-3.94,4.23-9.15,5-14.62,4.62-4.3-.28-5.49-4.11-7.55-6.83-3.64-4.83-7.13-9.78-10.57-14.76-1.72-2.48-3.14-5.17-4.83-7.68-.55-.81-1.47-1.82-2.31-1.91-3.35-.34-4.08-2.42-4.15-5.26-.16-6.5-3.4-8.36-9.37-5.42-.91.44-1.77,1-2.71,1.37-4.33,1.82-7,1.22-9.35-2.79a11,11,0,0,0-6.84-5.52c-3.14-.85-3.55-3.1-2.83-6,1.66-6.59.81-8.84-5.14-12.09-5.77-3.16-11.88-5.69-17.59-8.94-6-3.41-10.81-8-12.16-15.25-.92-4.93.23-6.81,5.15-7.93,2.59-.6,4.33-1.4,3.52-4.49-.52-2,.26-3.08,2.36-3.4,7.49-1.13,15-2,22.42-3.67a27.93,27.93,0,0,0,10.88-5.28c4-3.26,3.87-8,1-12.36a11.83,11.83,0,0,1-2.25-5.45,6.87,6.87,0,0,0-5.11-6.77c-5.48-1.84-10-4.59-12.6-10.11-.76-1.59-3.3-2.25-4.74-3.62s-3.23-2.92-3.52-4.62c-1-5.87-.34-11.64,3.23-16.74,3-4.27,7.45-5.55,12.26-5.76A14.75,14.75,0,0,0,522,485.17c1.66-1.89,5.07-2.24,8.14-3.47a11.43,11.43,0,0,0-5.16-9.4c-12-8-19.8-19.86-29.17-30.28q-9-10-18.33-19.85c-3.63-3.86-6.23-3.94-9.52,0a9.34,9.34,0,0,1-8.66,3.56c-1.64-.15-3.3-.11-4.94-.31-4.85-.58-8.49,1-10.38,5.71-1.77,4.46-5.37,7-9.58,8.66a83.07,83.07,0,0,0-27.32,18,8,8,0,0,1-4.49,2.12c-10.67,1-19.24,5.67-24.91,14.74-5.55,8.86-13.85,13.47-23.29,16.64-12.2,4.11-18.71,13.06-21.64,25.12a12.49,12.49,0,0,1-.24,1.49c-.88,2.45-12.93,8.1-15.4,7.25-9.5-3.29-13.07-2-18.31,6.36a5,5,0,0,1-1.2,1.49c-4.54,3.14-7.91,6.79-7.94,12.9,0,1.24-2.66,3.18-4.36,3.57-6.58,1.5-10.45,5.22-12.6,11.66-2.06,6.17-8.7,12.66-14.22,15.2-3.51-7.33-7.43-14.06-5.43-23.2,1.33-6-.19-12.83-1.12-19.18-.26-1.78-2.81-3.37-4.55-4.76-3.61-2.89-7.43-5.7-7.4-10.86,0-2,.92-5.29,2-5.54,2.58-.62,5.54.08,8.29.53a19.47,19.47,0,0,1,4.41,1.68,2.79,2.79,0,0,1,1.45,1c1.7,3.6,3.36,2.06,5.5.3s4.84-3.15,8.06-5.18c.32-2-2.16-3.27-4-4.83s-4-2.41-5.45-4.09c-2-2.33-4.16-4.93-5-7.78a10.82,10.82,0,0,0-6.56-7.72c-3-1.29-6.06-2.6-9-4-5.21-2.54-6.62-8-3.2-12.27.47-.58,1.27-1.56,1.64-1.44,5,1.54,8-3.81,12.89-3.32,5.28.54,6.65-2.09,4.34-6.85-1.06-2.18-.23-3.44,1.75-4.12,3.11-1.07,4.63-3.17,4-6.38s-3.11-4.46-6.12-4.66c-4.3-.29-8.61-.59-12.91-.62a6.34,6.34,0,0,1-6-3.08c-3.3-5-6.68-5.79-12-3.14-1.47.73-2.86,1.62-4.29,2.43-5.54,3.16-9.8,1.77-12.35-4-.87-2-1.46-4.21-2.83-5.74s-3.6-3.43-5.69-3.81c-8.17-1.51-13.52-6-14.41-14.09-.51-4.62-3-6.87-6.92-7.06-11.68-.58-17.83-8.52-23.5-17.07-1.57-2.36-2.33-5.31-3.17-8.08-2.17-7.14-4.47-9.06-11.76-9.71a86,86,0,0,1-11.64-1.48c-1.89-.43-4.4-1.85-4.92-3.4s.72-4.3,2.09-5.47a13.63,13.63,0,0,1,7-3.16A68.05,68.05,0,0,1,160,358.83c7,2.26,10.28-.35,10-7.54-.25-6.5-.15-6.3,5.49-9.28a8.22,8.22,0,0,0,3.4-4.85c1-3.88,1-8,2-11.89,1.36-5.4-.34-9.73-3.78-13.64-1.69-1.92-3.73-2.14-6.22-1.37-5.25,1.62-7,.56-10.08-3.9a17.05,17.05,0,0,0-5.9-5.07c-10.84-5.83-21.74-11.49-30.87-20-4.55-4.21-8.41-8.75-9.77-15-.77-3.53-2.48-6.18-6.31-7.38-1-.31-2.16-2.88-1.87-4.09.89-3.75-.68-5.94-3-8.67C100,242.56,98,238.07,95.52,234c-.18-.31-.36-.87-.22-1.09,3.17-4.8,1.7-12.4,8.93-14.76,5.28-1.72,10.5-3.67,15.83-5.26,8.48-2.53,10.32-9,9.5-17.5a4.44,4.44,0,0,0-3.23-2.85c-5.76.07-8.61-3.51-11.14-7.85-2-3.42-3.44-7.37-8.85-6.8-2.38.25-3.39-3.06-2.19-6.07.81-2,2.75-3.9.38-6.15s-4.88-1.8-7.4-.59c-4.59,2.21-9.06,3-13.57-.21a3.62,3.62,0,0,0-2.51-.65c-5.61,1.16-8.64-2.61-11.82-6.06-2-2.14-3.71-4.5-5.68-6.65-1.67-1.84-2.8-1.31-3.31,1-.87,3.91-2.62,4.54-5.79,2.12a6,6,0,0,1-2.32-7.07,6.14,6.14,0,0,1,6.66-4.58c2.13.16,4.23,1.31,6.3,1.21s4.37-1.18,6.55-1.83c-.62-2-.79-4.34-2-6-4.1-5.82-9.34-9.38-17.08-8.23-3.57.53-4.41-.88-3-4.25a5.83,5.83,0,0,0-1.28-6.93c-2.94-3-2.66-6.47-.29-9.3C51.5,103.37,55.2,99,59.6,95.76A264.37,264.37,0,0,1,83.69,79.93c5-3,7.72-2,11.83,2.18,4,4,6.13,4.55,11.09,2.15,3.36-1.63,6.12-.84,8,2,2.81,4.38,6.78,6.47,11.62,7.85,3.1.89,6,2.77,8.78,4.43,4.13,2.42,8.34,4.07,13.29,3.64,3.85-.34,5.71,1.47,5.85,5.11l-6.89,1.2c-3.27.57-3.34,2.92-2.29,5.1.84,1.74,2.48,3.14,3.92,4.52C161.2,130,176.36,135.38,193,137c2.59.25,5.76-.95,8-2.45,6.27-4.15,16.41-3.76,21.76,1.48,3.81,3.72,7.46,7.59,11.22,11.36,3.94,4,8.29,7,14.28,6.93,1,0,2.27,1.2,3.12,2.13,1.18,1.29,1.89,3.05,3.15,4.24,2.85,2.69,6.15,1.67,7.32-2.08.11-.36.11-.76.19-1.13,1.84-7.92,3.17-8.5,10.63-5.28,1,.42,3.34-.12,3.69-.86a64.17,64.17,0,0,0,3-8.76c.33-1.06.16-2.5.82-3.18,1.64-1.72,1.75-3.3,1.09-5.51a5.17,5.17,0,0,1,1.16-4c1.88-2.47,4.81-4.32,4-8.1-.05-.22,0-.61.17-.71,4.91-3.31,1.1-5.4-1-8-1.23-1.54-1.62-3.76-2.89-5.26a95.24,95.24,0,0,0-9.6-10.18c-1.71-1.5-4.29-2.23-6.6-2.76a31.41,31.41,0,0,1-17-10.6c-1.42-1.63-4-2.24-6-3.33-3.66-2-7.6-3.59-9.08-8-.16-.48-.28-1.19-.62-1.35-4.41-2-3.08-5.73-3-9.19a10.2,10.2,0,0,0-1.1-4.26c-1.06-2.31-2.36-4.51-3.76-7.11M117.42,231.93c-1.64,0-2.39-.05-3.14,0-3.49.31-6,3.28-5.41,6.34a5.51,5.51,0,0,0,6.46,4.36h0a5.16,5.16,0,0,0,.77-.21,15.24,15.24,0,0,0,5.42-3.25c1-1,2.16-3,1.79-4.06-.46-1.29-2.35-2.21-3.79-3a4.07,4.07,0,0,0-2.1-.23"/><path class="cls-2" d="M203.29,585.57c-1.16-.43-2.33-.84-3.48-1.29-5.25-2.07-10.35-5.15-15.78-6-7.11-1.07-14.35-4.45-21.79-.88a4.11,4.11,0,0,1-3.78-.51c-6-6.43-14.42-7.78-22.07-10.47-10.7-3.76-21.68-6.74-32.57-9.94-7.72-2.28-10.85-6-11.73-13.86A11.67,11.67,0,0,0,90,538c-3.51-5.39-7.11-10.73-10.75-16A64,64,0,0,0,74,515c-.55-.61-2.17-.48-3.25-.34-6.57.86-11.82-2.2-16.83-5.75a6.55,6.55,0,0,1-2-3.51c-3.57-13.31-10.42-24.4-21.37-32.84-6.38-4.91-8.67-11.92-10.38-19.31-1.15-4.93-2.44-9.83-3.62-14.75-1.26-5.27-3.1-6.65-8.54-8-1.63-.41-3.37-2.56-4-4.3-1.68-4.56-2.79-9.33-4-13.44,2.84-.63,6.23-1.59,9.68-2.08a23.1,23.1,0,0,1,7.14.08c4.71.84,8.74.08,12.2-3.44a59.84,59.84,0,0,1,6.3-5.49c2.77-2.13,6-2.33,8.24.34a158.38,158.38,0,0,1,13.62,17.66c1.4,2.22.45,6,.22,9.11-.13,1.72-1.47,3.4-1.41,5.07.07,2.07.46,5.21,1.76,5.88,1.69.87,4.48.06,6.63-.6,1.16-.35,2-1.9,2.92-2.9,3.23-3.34,6.73-3.07,8.92,1a24.15,24.15,0,0,1,2,6.86c.74,3.84,2.91,5.73,6.78,5.81,2,0,4.19-.2,6,.41a13.28,13.28,0,0,1,5.91,3.46c3.51,4.2,6.77,4.85,11.16,1.35,2.48-2,4.87-4,7.26-6.12a15.31,15.31,0,0,1,12.26-4c4.13.48,7.82.1,11.34-2.89s12.68,2.56,13.21,7.91a99.36,99.36,0,0,1,.46,15.9c-.14,2.29-2,4.49-3.18,6.68-.83,1.55-2.06,2.91-2.7,4.51-1.34,3.34-.37,5.19,3.11,6.39,1.55.53,3.12,1,4.73,1.41,2.83.71,4.54,2.32,6.12,5s4.34,4.42,6.91,6.11,5.74,2.7,8.46,4.31c4.35,2.57,4.88,6.06,1,9.14-6.2,4.93-5.48,11.59-1.55,16.5A68.84,68.84,0,0,1,189.42,557c1.39,7.3,5,13.16,9.43,18.76a59,59,0,0,1,4.12,5.92,15,15,0,0,1,1.12,3.26Z"/><path class="cls-3" d="M535.64,67.15a2,2,0,0,1-2-1.63c-.61-3.2-.84-5-.85-5a2,2,0,0,1,4-.51s.22,1.74.81,4.81A2,2,0,0,1,536,67.16h0A2.17,2.17,0,0,1,535.64,67.15Z"/><path class="cls-3" d="M729.57,272.55a2,2,0,0,1-.6-.09c-3.09-1-6.27-2-9.45-3.14a2,2,0,1,1,1.32-3.78c3.15,1.11,6.28,2.15,9.32,3.1a2,2,0,0,1,1.31,2.51h0A2,2,0,0,1,729.57,272.55ZM710.9,266a2,2,0,0,1-.72-.13c-3.08-1.19-6.19-2.45-9.23-3.73a2,2,0,0,1,1.55-3.68c3,1.26,6.08,2.5,9.12,3.68a2,2,0,0,1-.72,3.86Zm-18.23-7.67a2,2,0,0,1-.83-.18c-3-1.38-6-2.82-9-4.27a2,2,0,1,1,1.77-3.59h0c2.91,1.44,5.89,2.86,8.87,4.22a2,2,0,0,1-.83,3.82Zm-17.73-8.75a2,2,0,0,1-.94-.23c-2.92-1.56-5.85-3.18-8.71-4.81a2,2,0,0,1,2-3.47c2.82,1.61,5.71,3.21,8.6,4.74a2,2,0,0,1-.94,3.77Zm-17.16-9.82a2,2,0,0,1-1-.3c-2.83-1.75-5.65-3.55-8.38-5.36a2,2,0,0,1,2.07-3.42l.14.09c2.69,1.78,5.48,3.56,8.27,5.28a2,2,0,0,1-1,3.71ZM641.3,228.83a2,2,0,0,1-1.16-.38c-2.71-1.93-5.4-3.92-8-5.91a2,2,0,0,1,2.43-3.18c2.57,2,5.22,3.93,7.89,5.84a2,2,0,0,1-1.16,3.63Zm-15.68-12a2,2,0,0,1-1.27-.46c-2.55-2.11-5.1-4.29-7.56-6.49a2,2,0,1,1,2.67-3c2.42,2.17,4.92,4.32,7.44,6.4a2,2,0,0,1,.29,2.81A2,2,0,0,1,625.62,216.83Zm-14.74-13.17a2,2,0,0,1-1.39-.56c-1.7-1.64-3.4-3.33-5-5l-2-2a2,2,0,0,1,2.89-2.77l1.94,2c1.63,1.67,3.3,3.33,5,4.94a2,2,0,0,1,0,2.83h0a2,2,0,0,1-1.39.54Zm-13.66-14.29a2,2,0,0,1-1.5-.68c-2.19-2.47-4.37-5-6.47-7.57a2,2,0,0,1,3.09-2.54c2.07,2.52,4.22,5,6.37,7.46a2,2,0,0,1-1.49,3.33ZM584.67,174.1a2,2,0,0,1-1.6-.79c-2-2.62-4-5.32-5.88-8a2,2,0,1,1,3.27-2.31h0c1.88,2.68,3.83,5.34,5.8,7.92a2,2,0,0,1-.38,2.8A2,2,0,0,1,584.67,174.1Zm-11.39-16.16a2,2,0,0,1-1.67-.91c-1.81-2.77-3.58-5.61-5.28-8.44a2,2,0,0,1,3.43-2.06c1.67,2.79,3.42,5.59,5.2,8.32a2,2,0,0,1-.59,2.77h0a2,2,0,0,1-1.09.32ZM563.12,141a2,2,0,0,1-1.76-1c-1.59-2.9-3.15-5.86-4.65-8.81a2,2,0,0,1,3.58-1.8c1.46,2.91,3,5.83,4.58,8.67a2,2,0,0,1-.78,2.72h0A2,2,0,0,1,563.12,141Zm-8.92-17.64a2,2,0,0,1-1.82-1.17c-1.38-3-2.73-6.07-4-9.11a2,2,0,1,1,3.65-1.64v.1q1.88,4.5,4,9a2,2,0,0,1-1,2.65h0a2,2,0,0,1-.87.17Zm-7.62-18.24a2,2,0,0,1-1.87-1.3c-1.17-3.11-2.29-6.27-3.33-9.39A2,2,0,0,1,545.1,93a1.72,1.72,0,0,1,.07.21c1,3.07,2.13,6.18,3.28,9.24a2,2,0,0,1-1.16,2.58h0a1.85,1.85,0,0,1-.7.13Zm-6.26-18.76a2,2,0,0,1-1.92-1.44c-.94-3.24-1.81-6.48-2.59-9.63a2,2,0,1,1,3.89-1c.76,3.09,1.61,6.27,2.54,9.46a2,2,0,0,1-1.36,2.48,1.81,1.81,0,0,1-.56.12Z"/><path class="cls-4" d="M533.24,618.33H533a2,2,0,0,1-1.77-2.21h0c.35-3.21.76-6.56,1.21-10a2,2,0,0,1,4,.53c-.44,3.36-.85,6.68-1.2,9.86A2,2,0,0,1,533.24,618.33Zm2.62-19.79h-.31a2,2,0,0,1-1.67-2.28c.5-3.28,1-6.61,1.61-9.89a2,2,0,0,1,3.94.68c-.56,3.26-1.1,6.56-1.6,9.82a2,2,0,0,1-2,1.67Zm3.39-19.71h-.38a2,2,0,0,1-1.58-2.34c.62-3.25,1.28-6.55,2-9.82a2,2,0,0,1,3.92.82c-.69,3.25-1.35,6.53-2,9.75A2,2,0,0,1,539.25,578.83Zm4.17-19.49a1.69,1.69,0,0,1-.45,0,2,2,0,0,1-1.5-2.39c.74-3.24,1.52-6.51,2.33-9.74a2,2,0,1,1,3.88,1c-.8,3.21-1.58,6.46-2.31,9.67A2,2,0,0,1,543.42,559.34ZM548.24,540a1.81,1.81,0,0,1-.52-.07,2,2,0,0,1-1.41-2.45c.86-3.2,1.76-6.45,2.69-9.65a2,2,0,0,1,3.84,1.11c-.92,3.18-1.82,6.4-2.67,9.58a2,2,0,0,1-2,1.48Zm5.49-19.15a2,2,0,0,1-.59-.09,2,2,0,0,1-1.32-2.5c1-3.17,2-6.38,3-9.54a2,2,0,1,1,3.8,1.26c-1,3.14-2.06,6.32-3,9.46a2,2,0,0,1-1.89,1.39Zm6.27-19a2.12,2.12,0,0,1-.66-.11,2,2,0,0,1-1.22-2.55h0c1.1-3.13,2.26-6.3,3.43-9.41a2,2,0,1,1,3.75,1.41h0c-1.17,3.09-2.31,6.23-3.41,9.34a2,2,0,0,1-1.89,1.3Zm7-18.67a2.11,2.11,0,0,1-.74-.14,2,2,0,0,1-1.11-2.6c1.24-3.11,2.53-6.22,3.83-9.26a2,2,0,1,1,3.68,1.57h0c-1.29,3-2.57,6.1-3.8,9.18A2,2,0,0,1,567,483.2Zm7.88-18.33a2,2,0,0,1-.83-.18,2,2,0,0,1-1-2.64c1.38-3,2.81-6.11,4.24-9.08a2,2,0,0,1,3.69,1.53.72.72,0,0,1-.09.2c-1.42,2.95-2.83,6-4.2,9a2,2,0,0,1-1.81,1.15Zm8.66-18a2,2,0,0,1-.91-.22,2,2,0,0,1-.87-2.69c1.52-3,3.1-6,4.68-8.87A2,2,0,1,1,590,437h0c-1.56,2.88-3.12,5.83-4.63,8.78a2,2,0,0,1-1.78,1.14Zm9.53-17.52a2,2,0,0,1-2-2,2,2,0,0,1,.27-1c1.67-2.9,3.39-5.8,5.12-8.62a2,2,0,0,1,3.41,2.09c-1.71,2.79-3.42,5.66-5.07,8.53A2,2,0,0,1,593.07,429.33Zm10.49-17a2,2,0,0,1-1.66-3.11c1.84-2.72,3.79-5.49,5.8-8.21a2,2,0,0,1,3.38,2.14l-.09.13a.36.36,0,0,1-.07.1c-2,2.68-3.9,5.4-5.71,8.08a2,2,0,0,1-1.66,1Zm11.86-16a2,2,0,0,1-1.25-.44,2,2,0,0,1-.31-2.81c2-2.57,4.21-5.17,6.41-7.73a2,2,0,0,1,3.28,2.28,1.75,1.75,0,0,1-.28.33c-2.17,2.52-4.29,5.08-6.32,7.62a2,2,0,0,1-1.53.79Zm13-15.12a2,2,0,0,1-2-2,1.93,1.93,0,0,1,.53-1.37c2.23-2.42,4.56-4.87,6.92-7.28a2,2,0,1,1,3,2.66l-.14.14c-2.32,2.38-4.62,4.8-6.82,7.19a2,2,0,0,1-1.49.7Zm14-14.26a2,2,0,0,1-1.38-3.44h0c2.37-2.28,4.83-4.59,7.32-6.86a2,2,0,1,1,2.69,3h0c-2.46,2.24-4.9,4.52-7.24,6.78a2,2,0,0,1-1.43.52Zm14.76-13.43a2,2,0,0,1-1.31-3.52c2.49-2.15,5.08-4.32,7.67-6.45a2,2,0,0,1,2.56,3.08h0c-2.57,2.11-5.13,4.26-7.6,6.39a2,2,0,0,1-1.34.49Zm15.42-12.66a2,2,0,0,1-1.23-3.58h0c2.61-2,5.29-4.09,8-6.08a2,2,0,1,1,2.39,3.21h0c-2.65,2-5.31,4-7.9,6a2,2,0,0,1-1.3.45Zm16-11.93a2,2,0,0,1-1.16-3.63h0c2.71-1.93,5.48-3.85,8.23-5.73a2,2,0,1,1,2.25,3.31h0c-2.73,1.86-5.48,3.77-8.16,5.68a2,2,0,0,1-1.2.37Zm16.5-11.23A2,2,0,0,1,704,314c2.8-1.82,5.65-3.63,8.47-5.37a2,2,0,1,1,2.37,3.23l-.27.16c-2.79,1.74-5.62,3.53-8.39,5.33a2,2,0,0,1-1.13.32Zm17-10.51a2,2,0,0,1-1-3.72c2.92-1.73,5.84-3.41,8.7-5a2,2,0,1,1,2,3.5c-2.83,1.58-5.72,3.24-8.61,5a2,2,0,0,1-1.16.22Z"/><path class="cls-4" d="M531.94,633.09h-.1a2,2,0,0,1-1.9-2.09h0c0-.07.09-1.81.35-5a2,2,0,0,1,4,.32h0c-.26,3.17-.35,4.9-.35,4.92A2,2,0,0,1,531.94,633.09Z"/><path class="cls-4" d="M715.71,289.83a2,2,0,0,1,0-4h10.13a2,2,0,0,1,0,4Zm-10.15,0h0l-10.14-.08a2,2,0,0,1,0-4h0l10.14.06a2,2,0,0,1,0,4Zm-20.3-.16h0l-10.15-.16a2,2,0,0,1,0-4h0l10.13.15a2,2,0,0,1,0,4ZM665,289.32h0l-10.15-.24a2,2,0,0,1-2-2V287a2,2,0,0,1,2-1.95h0l10.14.24a2,2,0,0,1,0,4Zm-20.29-.49h-.06l-10.15-.33a2,2,0,0,1,.14-4l10.13.33a2,2,0,0,1-.06,4Zm-20.26-.7h-.08l-10.14-.42a2,2,0,0,1,.08-4h.09l10.13.42a2,2,0,0,1-.08,4Zm-20.27-.89h-.1l-10.14-.51a2,2,0,0,1,.21-4l10.13.51a2,2,0,0,1-.1,4Zm-20.26-1.07h-.12c-3.35-.19-6.73-.4-10.13-.61a2,2,0,1,1,.25-4l10.11.61a2,2,0,0,1-.11,4Zm-20.27-1.34h-.14l-10.13-.72a2,2,0,1,1,.3-4l10.1.72a2,2,0,0,1-.13,4Zm-20.2-1.46h-.16c-3.36-.26-6.73-.54-10.12-.82a2,2,0,0,1,.33-4c3.38.29,6.75.56,10.1.83a2,2,0,0,1-.15,4Zm-20.22-1.71H523q-5-.45-10.11-.94a2,2,0,1,1,.38-4h0c3.37.32,6.74.64,10.09.94a2,2,0,1,1-.18,4Zm-20.17-2h-.21c-3.33-.34-6.7-.7-10.09-1.07a2,2,0,1,1,.44-4c3.33.37,6.69.73,10.06,1.07a2,2,0,0,1-.2,4Zm-20.15-2.21h-.23c-3.37-.39-6.73-.8-10.1-1.22a2,2,0,1,1,.5-4c3.35.42,6.71.83,10.06,1.22a2,2,0,0,1-.23,4ZM462.73,275h-.31c-3.37-.45-6.74-.91-10.09-1.38a2,2,0,0,1,.56-4c3.33.47,6.69.92,10.06,1.37a2,2,0,1,1-.26,4h0Zm-20.11-2.83h-.3c-3.33-.5-6.67-1-10-1.55a2,2,0,0,1,.63-4c3.32.53,6.66,1,10,1.55a2,2,0,1,1-.29,4Zm-20-3.2h-.34c-3.33-.57-6.67-1.15-10-1.75a2,2,0,0,1,.71-3.94c3.33.6,6.67,1.18,10,1.75a2,2,0,1,1-.33,4Zm-20-3.61h-.38l-10-2a2,2,0,1,1,.81-3.92h0c3.28.68,6.59,1.33,9.92,2a2,2,0,0,1-.38,4h0Zm-19.86-4.08a2.1,2.1,0,0,1-.43,0h-.14c-3.3-.72-6.55-1.45-9.77-2.18a2,2,0,0,1,.89-3.9c3.21.73,6.45,1.46,9.73,2.17h.14a2,2,0,0,1-.42,4ZM363,256.76a1.76,1.76,0,0,1-.46-.06c-3.33-.78-6.62-1.58-9.87-2.37a2,2,0,0,1,1-3.89c3.25.8,6.52,1.59,9.84,2.37a2,2,0,0,1-.46,3.95Zm-19.69-4.84a2,2,0,0,1-.49-.06q-5-1.26-9.83-2.55a2,2,0,0,1,1-3.87q4.85,1.29,9.79,2.55a2,2,0,0,1-.49,3.93Zm-19.6-5.18a1.88,1.88,0,0,1-.53-.07q-5-1.36-9.77-2.74a2,2,0,0,1,.84-3.91l.25.07q4.81,1.36,9.74,2.72a2,2,0,0,1-.53,3.93Zm-19.49-5.56a1.83,1.83,0,0,1-.57-.08q-4.92-1.46-9.72-2.93a2,2,0,1,1,1-3.88l.19.06q4.78,1.47,9.69,2.92a2,2,0,0,1-.57,3.91Zm-19.38-6a2.1,2.1,0,0,1-.61-.09c-3.26-1.05-6.48-2.09-9.66-3.15a2,2,0,0,1,1.05-3.86l.21.07c3.16,1,6.37,2.09,9.62,3.12a2,2,0,0,1-.61,3.91Zm-19.27-6.35a2.06,2.06,0,0,1-.65-.11q-4.86-1.68-9.59-3.37a2,2,0,0,1,1.35-3.76q4.69,1.68,9.54,3.35a2,2,0,0,1-.65,3.89ZM246.48,222a1.85,1.85,0,0,1-.7-.13c-3.18-1.18-6.38-2.4-9.5-3.61a2,2,0,1,1,1.45-3.73c3.1,1.21,6.28,2.41,9.45,3.59a2,2,0,0,1-.7,3.88Zm-18.9-7.33a2.12,2.12,0,0,1-.75-.14c-3.16-1.27-6.32-2.57-9.4-3.87a2,2,0,0,1,1.23-3.81,2.07,2.07,0,0,1,.34.15c3.06,1.29,6.2,2.58,9.35,3.85a2,2,0,0,1-.75,3.85Zm-18.69-7.84a2,2,0,0,1-.8-.17c-3.11-1.36-6.23-2.76-9.28-4.15a2,2,0,0,1,1.66-3.64h0c3,1.38,6.13,2.77,9.22,4.12a2,2,0,0,1-.8,3.84Zm-18.47-8.4a2,2,0,0,1-.86-.2c-3.05-1.4-6.14-2.95-9.14-4.4a2,2,0,0,1,1.78-3.58c3,1.49,6.05,3,9.08,4.42a2,2,0,0,1-.86,3.81Zm-18.14-9a2,2,0,0,1-.92-.23c-3-1.58-6.06-3.19-9-4.78a2,2,0,0,1,1.92-3.51c2.9,1.58,5.89,3.18,8.91,4.75a2,2,0,0,1-.93,3.77Zm-17.79-9.71a2,2,0,0,1-1-.27c-3-1.69-5.91-3.42-8.78-5.15a2,2,0,1,1,2.06-3.43h0c2.85,1.72,5.78,3.43,8.71,5.11a2,2,0,0,1,.75,2.73h0a2,2,0,0,1-1.75,1Zm-17.36-10.46a2,2,0,0,1-1.07-.31c-2.88-1.83-5.76-3.7-8.53-5.56a2,2,0,0,1,2-3.44l.18.12c2.75,1.84,5.6,3.69,8.45,5.5a2,2,0,0,1-1.07,3.69ZM120.32,158a2,2,0,0,1-1.15-.37c-2.81-2-5.58-4-8.24-6a2,2,0,0,1,2.41-3.2c2.63,2,5.36,4,8.14,5.94a2,2,0,0,1-1.16,3.64Zm-16.19-12.19a2,2,0,0,1-1.25-.45c-2.69-2.15-5.33-4.35-7.85-6.52a2,2,0,0,1,2.21-3.34l.13.1a1.61,1.61,0,0,1,.28.24c2.48,2.14,5.08,4.31,7.74,6.44a2,2,0,0,1-1.26,3.56ZM88.79,132.52a2,2,0,0,1-1.37-.53c-2.54-2.36-5-4.76-7.33-7.12a2,2,0,0,1,2.85-2.81c2.28,2.32,4.71,4.68,7.21,7a2,2,0,0,1-1.36,3.46ZM74.58,118.08a2,2,0,0,1-1.5-.67c-2.35-2.65-4.57-5.29-6.59-7.86a2,2,0,0,1,3.15-2.47c2,2.5,4.13,5.08,6.43,7.67a2,2,0,0,1-1.49,3.33Z"/><path class="cls-4" d="M62.18,102.14a2,2,0,0,1-1.68-.91,49.6,49.6,0,0,1-2.67-4.49A2,2,0,0,1,61.41,95a46.93,46.93,0,0,0,2.44,4.09,2,2,0,0,1-.59,2.77h0A2.05,2.05,0,0,1,62.18,102.14Z"/><path class="cls-4" d="M242,26.83a2,2,0,0,1-1.73-1c-1.68-2.86-2.46-4.42-2.49-4.49a2,2,0,0,1,3.43-2.06h0l.09.17.06.11s.76,1.52,2.36,4.25a2,2,0,0,1-.71,2.74h0A2.13,2.13,0,0,1,242,26.83Z"/><path class="cls-4" d="M725,281.1h-.3c-2.93-.44-6.25-1-9.94-1.54a2,2,0,0,1,.61-4h0c3.67.59,7,1.1,9.9,1.53a2,2,0,0,1-.29,4Zm-19.83-3.17h-.34c-3.12-.53-6.43-1.11-9.9-1.73a2,2,0,1,1,.45-4h.25c3.46.61,6.76,1.19,9.87,1.72a2,2,0,0,1-.33,4ZM685.4,274.4H685q-4.78-.9-9.87-1.89a2,2,0,0,1,.77-3.93h0c3.38.67,6.66,1.29,9.84,1.89a2,2,0,1,1-.37,4Zm-19.7-3.87h-.4c-3.21-.66-6.49-1.34-9.84-2.06a2,2,0,1,1,.76-3.93h.08c3.34.71,6.61,1.4,9.8,2a2,2,0,1,1-.4,4Zm-19.62-4.19a1.62,1.62,0,0,1-.44,0q-4.82-1.06-9.8-2.22a2,2,0,1,1,.51-4h.16l.23.05,9.77,2.21a2,2,0,0,1-.43,3.95Zm-19.54-4.51a1.83,1.83,0,0,1-.47-.05q-4.83-1.15-9.76-2.39a2,2,0,1,1,1-3.88c3.27.82,6.52,1.61,9.72,2.38a2,2,0,0,1-.46,3.94ZM607.09,257a1.68,1.68,0,0,1-.5-.07c-3.21-.83-6.46-1.68-9.72-2.56a2,2,0,0,1,1-3.86q4.88,1.31,9.68,2.55a2,2,0,0,1-.5,3.94Zm-19.38-5.21a1.89,1.89,0,0,1-.53-.08q-4.81-1.34-9.67-2.74a2,2,0,0,1,1.11-3.85h0q4.85,1.41,9.63,2.74a2,2,0,0,1-.54,3.93Zm-19.29-5.59a1.9,1.9,0,0,1-.58-.09q-4.79-1.44-9.61-2.94a2,2,0,0,1,1.19-3.82q4.8,1.5,9.57,2.93a2,2,0,0,1-.57,3.92Zm-19.16-6a1.87,1.87,0,0,1-.62-.1q-4.75-1.54-9.54-3.15a2,2,0,1,1,1.28-3.8q4.75,1.6,9.5,3.15a2,2,0,0,1-.62,3.9Zm-19-6.41a1.87,1.87,0,0,1-.66-.11q-4.74-1.67-9.47-3.38a2,2,0,0,1,1.37-3.76h0c3.14,1.14,6.28,2.27,9.42,3.36a2,2,0,0,1-.66,3.89Zm-18.84-6.85a1.94,1.94,0,0,1-.71-.13c-3.17-1.21-6.33-2.43-9.39-3.64a2,2,0,0,1,1.44-3.73h0c3,1.2,6.18,2.42,9.34,3.62a2,2,0,0,1-.71,3.87Zm-18.68-7.38a2,2,0,0,1-.76-.15c-3.11-1.28-6.23-2.6-9.27-3.9a2,2,0,0,1,1.58-3.68c3,1.3,6.12,2.61,9.22,3.88a2,2,0,0,1-.77,3.85Zm-18.42-7.92a2.06,2.06,0,0,1-.81-.17c-3.08-1.39-6.15-2.8-9.13-4.2a2,2,0,0,1,1.35-3.77h0l.16.07.18.08c3,1.39,6,2.79,9.07,4.17a2,2,0,0,1-.82,3.82Zm-18.12-8.51a1.9,1.9,0,0,1-.88-.21c-3-1.46-5.95-3-8.86-4.46l-.12-.06a2,2,0,0,1,1.82-3.57l.15.08c2.87,1.48,5.83,3,8.78,4.42a2,2,0,0,1-.89,3.8ZM438.42,194a2,2,0,0,1-.94-.23q-4.49-2.39-8.84-4.78a2,2,0,0,1,1.92-3.51q4.35,2.38,8.8,4.76a2,2,0,0,1-.94,3.76Zm-17.58-9.64a2,2,0,0,1-1-.26c-2.9-1.64-5.84-3.33-8.71-5a2,2,0,0,1,1.73-3.61l.27.16c2.86,1.67,5.78,3.34,8.67,5a2,2,0,0,1,.75,2.73h0a2,2,0,0,1-1.75,1Zm-17.31-10.11a2,2,0,0,1-1-.28c-2.87-1.73-5.76-3.5-8.57-5.25a2,2,0,0,1,2.11-3.4h0c2.8,1.74,5.67,3.5,8.52,5.22a2,2,0,0,1-1.07,3.71Zm-17-10.58a2,2,0,0,1-1.08-.32c-2.81-1.8-5.64-3.65-8.42-5.49a2,2,0,0,1,2.21-3.34h0c2.76,1.83,5.58,3.67,8.37,5.46a2,2,0,0,1-1.08,3.69Zm-16.79-11.08a2.06,2.06,0,0,1-1.13-.35c-2.78-1.91-5.55-3.84-8.25-5.75a2,2,0,1,1,2.31-3.27c2.68,1.9,5.44,3.82,8.2,5.72a2,2,0,0,1-1.13,3.65ZM353.42,141a2,2,0,0,1-1.18-.38c-2.7-2-5.42-4-8.06-6a2,2,0,0,1,2.42-3.18c2.63,2,5.32,4,8,6a2,2,0,0,1-1.18,3.54Zm-16-12.1a2,2,0,0,1-1.24-.43c-2.63-2.07-5.27-4.18-7.85-6.29a2,2,0,0,1,2.53-3.1h0c2.56,2.09,5.18,4.19,7.79,6.25a2,2,0,0,1-1.23,3.57Zm-15.54-12.67a2,2,0,0,1-1.29-.48c-2.56-2.17-5.13-4.38-7.62-6.57a2,2,0,0,1,2.65-3h0c2.47,2.17,5,4.37,7.56,6.52a2,2,0,0,1,.24,2.82h0a2,2,0,0,1-1.54.71Zm-15-13.25a2,2,0,0,1-1.35-.52c-2.48-2.28-5-4.59-7.35-6.87a2,2,0,0,1,2.76-2.9h0c2.37,2.27,4.83,4.56,7.29,6.82a2,2,0,0,1,.11,2.83h0A2,2,0,0,1,306.88,102.93ZM292.42,89.08a2,2,0,0,1-1.41-.59c-2.4-2.38-4.77-4.8-7.06-7.18a2,2,0,0,1,2.75-2.9.8.8,0,0,1,.13.13c2.27,2.36,4.62,4.75,7,7.12a2,2,0,0,1-1.41,3.42Zm-14-14.49a2,2,0,0,1-1.47-.65c-2.3-2.5-4.55-5-6.71-7.51a2,2,0,1,1,3-2.63c2.13,2.46,4.37,5,6.64,7.44a2,2,0,0,1-.13,2.83h0a2,2,0,0,1-1.35.52ZM265.27,59.46a2,2,0,0,1-1.54-.73c-2.17-2.63-4.29-5.28-6.3-7.88a2,2,0,0,1,3.16-2.45c2,2.57,4.08,5.19,6.22,7.79a2,2,0,0,1-.28,2.82A2,2,0,0,1,265.27,59.46ZM253,43.6a2,2,0,0,1-1.62-.83c-2-2.82-4-5.62-5.76-8.3A2,2,0,0,1,249,32.26c1.75,2.64,3.66,5.39,5.66,8.17a2,2,0,0,1-.45,2.79A2,2,0,0,1,253,43.6Z"/></g></g></g></g></svg>