<?xml version="1.0" encoding="utf-8"?>
<!-- Generator: Adobe Illustrator 22.1.0, SVG Export Plug-In . SVG Version: 6.00 Build 0)  -->
<svg version="1.1" id="Layer_1" xmlns="http://www.w3.org/2000/svg" xmlns:xlink="http://www.w3.org/1999/xlink" x="0px" y="0px"
	 viewBox="0 0 826.8 671.7" style="enable-background:new 0 0 826.8 671.7;" xml:space="preserve">
<style type="text/css">
	.st0{fill:none;}
	.st1{fill:#9BD9E1;}
	.st2{fill:#F26862;}
	.st3{fill:#FFFFFF;}
</style>
<rect x="-86.6" y="-164.2" class="st0" width="1000" height="1000"/>
<rect x="-86.6" y="-164.2" class="st0" width="1000" height="1000"/>
<rect x="-86.6" y="-164.2" class="st0" width="1000" height="1000"/>
<rect class="st0" width="826.8" height="671.7"/>
<g>
	<path class="st1" d="M225.9,51.2c-0.5,0.3-0.9,0.7-1.3,1.1c-3.2,4-4.7,3.9-6.7-0.9c-2.8-6.8-4.5-13.7-1.7-21
		c2.1-5.4,4.8-7.2,10.3-5.6s9.5-0.4,13.1-4.3c5-5.4,10.1-10.7,12-18.2c0.3-1.1,2.9-2.3,4.4-2.3c2.7,0.1,5.5,1,8.2,1.6
		c5.8,1.2,5.8,1.2,5.4,7.3c-0.3,2.1-0.3,4.3-0.2,6.4c0.3,2.8,2.3,3.8,5,3.1c1.2-0.3,2.4-0.8,3.4-1.6c3-3,7.2-4.5,11.4-4.2
		c1.5,0.1,3.1-1.4,4.6-2.3s2.5-2,4.4-3.6c0.3,2.7,0.5,4.6,0.6,6.4c0.4,9.2,9.5,19.5,18.6,20.8c2.6,0.4,4.1,1.3,4.4,4.2
		c0.4,4.2,3.2,7,6.3,9.6c4.5,3.9,8.7,7.8,8,14.6c-0.3,2.8,2.1,3.2,4.3,2.7c1.6-0.5,3.1-1.2,4.5-1.9c4.3-1.9,9.5,0.7,10,5.4
		c0.4,3.8,1.7,6.7,5,8.8c1.1,0.7,2.5,2.4,2.5,3.6c0,3.6,2.2,5.7,4,8.3c1.6,2.4,2.3,5.4,2.9,8.3c0.4,1.7-0.3,3.5-0.4,5.3
		c-0.3,7.6,0.7,9.2,7.8,11.8c0.6,0.2,1.4,0.3,1.7,0.7c7.1,7.6,16.9,7.1,26,8.5c2.2,0.2,4,1.7,4.5,3.9c1.3,4.1,3.7,5.3,7.8,3.9
		c1-0.3,1.9-0.7,2.7-1.3c3.5-2.7,7.2-2.5,10.6-0.1c9.5,6.7,19.6,4.6,29.6,1.9c5.2-1.4,6.1-4,3.8-8.8c-2.6-5.5-2.4-6.6,2.8-9.7
		c2.4-1.5,2.6-3.5,2.6-5.8c0-4.9,1-5.7,5.6-4.5s4.9,0.6,6.1-3.8c1.5-5.1,3.2-10.1,5.3-15c1-2.5,3.3-4.3,6-4.6
		c4.1-0.7,8.1-2,12.2-2.9c4.7-1,8.9-3.8,11.6-7.8c2-2.6,4.8-4.3,8-5.1c8.3-1.7,12.2-7.1,13.9-14.7c0.7-3.2,1.2-6.5,2.3-9.6
		c1.1-2.9,2.4-6.3,4.6-8.1c6.5-5,9.6-12,13-18.9c0.6-1.3,1.3-2.6,2.1-4.1c6.2,4.3,12.4,7.7,15.8,14.7c2.3,4.8,6.6,8.6,9.8,13
		c1.1,1.5,1.9,3.3,2.2,5.2c0.5,4.9,3.3,8.2,6.4,11.7s5.3,7.6,7.9,11.4c1.8,2.6,3.6,5.1,5.6,7.5c1.4,1.6,3.3,2.9,4.4,4.6
		c2.8,4.3,5.4,8.6,9.9,11.7c2.4,1.6,3.2,5.6,4.8,8.4c2.1,3.4,3.8,7.2,6.6,10c5.1,5.1,7.5,10.5,7.4,18.1c-0.1,7-0.4,14.9,5.2,21.1
		c1,1.3,1.1,3.9,1.1,5.9c-0.1,5.6,2,10.2,5.5,14.5c5.4,6.5,10.4,13.4,15.7,20c0.8,1,1.7,1.9,2.5,2.9c2.2,2.5,4.8,4.9,6.5,7.7
		c1.9,3,4.1,4.6,7.7,4.7c6.9,0.1,11.2,4.5,14.4,9.8c0.9,1.5,0.2,4.1-0.2,6.1c-0.2,1.1-1.4,2.1-2.1,3.1c-3.8,5.4-3.7,7.6,0.6,12.8
		s9.2,9,16.6,9.5c3,0.2,5.8,3.1,8.7,4.8c1,0.6,2,1.6,3.1,1.8c4.1,0.8,8.2,1.4,12.3,2.1c4.9,0.9,9.6,0.9,14.1-1.4
		c5.5-2.8,11-4.2,17.1-2.1c1.8,0.6,4,0.1,5.8,0.1c1.7,2.8,3.3,5.6,5.2,8.3c1.9,2.9,5.1,4.7,8.5,4.8c4,0.3,7.9,1.4,11.5,3.1
		c1.8,0.9,3.3,3.5,3.9,5.6c0.9,3.3,3.3,6.1,6.4,7.5c8.1,4.3,12.3,11.1,12.6,20.2c0.2,4.9,0.3,9.6,3.8,13.6c0.6,0.7,0,2.5-0.1,3.7
		c-1.2-0.3-2.9-0.3-3.5-1.1c-1.8-2.2-3.2-4.5-4.4-7.1c-3.7-8.5-10.6-11.6-19.2-12.5c-2.6-0.2-5.1-0.9-7.5-1.9
		c-2.7-1.3-5-0.9-7.6,0.2c-2.3,0.9-4.8,1.2-7.2,1.8c-1.7,0.4-3.6,0.6-4.9,1.5c-2.7,1.9-5.2,1.8-7.7,0c-1.2-0.8-2.2-1.7-3.4-2.5
		c-6-3.9-9.9-3.7-14.6,1.3c-0.9,0.9-1,2.8-1.1,4.2c-0.5,5.6-3.3,8.5-8.8,9.2c-1.3,0.3-2.6,0.8-3.7,1.5c-0.6,0.3-1,0.9-1.5,1.1
		c-7.1,2.7-14.2,5.6-21.4,7.9c-8.5,2.7-15.9,12.7-15.3,21.6c0.2,2.7-0.3,4.4-3.3,5.4c-2.4,0.8-4.4,2.9-6.3,4.7
		c-0.4,0.8-0.4,1.7,0,2.5c1.9,3.1,4,6.1,6.4,8.9c2.3,2.6,2.7,5.2-0.3,7c-6.1,3.5-6.7,8.2-4.5,14.2c1.1,2.7,0.5,5.8-1.7,7.7
		c-0.7,1-0.8,2.3-0.3,3.5c1.1,2.5,1.3,4.8-0.7,6.7c-3.1,2.8-2.6,5.8-0.8,8.9c0.6,1.1,1.5,2.1,2.2,3.1c3.1,4.7,2.3,5.7-2.2,8.8
		c-6.3,4.5-11.5,10.2-12.3,18.6c-0.1,1.3-0.3,2.5-0.7,3.7c-0.8,2.9-1.9,5.7-3.1,8.4c-3.3,6.3-0.7,10.5,4.3,14.2
		c4.2,3.1,8.3,6.3,12.4,9.5c2.5,2,3.3,4.2,1.2,7.2c-0.8,1.2-0.7,3.1-0.8,4.7c0,1.6,0.1,3.2,0.3,4.8l-4.1-3.7c1.5,3.8,2.7,6.8,4,10
		l-1.2,0.9c-2.2-1.5-4.3-3.2-6.3-5c-2.8-2.8-5.4-6.5-9.8-5c-4.7,1.6-6.5,6.2-6.6,10.7c-0.2,6.7,0.7,13.4,0.8,20.1
		c0,2.7-0.1,5.7-1.3,8c-2.8,5.9-4.5,11.9-3.9,18.3c0.3,3.8-1.8,6.3-4.3,8c-4.1,2.5-8.4,4.6-12.8,6.3c-2.6,1.1-4.6-0.4-5-3.1
		s-1.3-6.2,2.8-6.8c5.8-0.8,8.7-4.8,11.1-9.4c2.2-4.1,0.5-6.7-4.2-6.7c-1.4,0-2.8,0-4.2-0.1c-5.1-0.5-5.9-1.9-4.6-6.9
		c0.3-1.3,0.3-2.7-0.2-4c-1.3-3.5-5.1-5-10.3-4.6c-3.8,0.4-5,2.7-6.1,6.1c-1.4,4.3-2,8.8-2,13.3c0,3.3,0.1,6.4,2.2,9.4
		c0.9,1.3,0.5,3.9,0,5.7c-1.9,6.5-4.2,12.9-6,19.4c-1.2,4.3-3.7,6.7-8,7.5c-5.2,1-5.6,1.3-4.7,6.6c0.5,3.1,1.5,6.6,3.5,8.9
		c3,3.2,4.1,7.7,2.9,11.9c-1,3.7-0.4,7.7,1.7,10.9c1,1.9,1.5,4,1.5,6.2c0.2,10,0.1,20,0.1,29.9c0,1.8,0.2,3.5,0.4,5.8
		c-2.7,0-5.4,0.2-8.1,0c-5.5-0.4-9.8,1.5-13.5,5.5c-3.9,4.2-9.2,5-14.6,4.6c-4.3-0.3-5.5-4.1-7.5-6.8c-3.6-4.8-7.1-9.8-10.6-14.8
		c-1.7-2.5-3.1-5.2-4.8-7.7c-0.6-0.8-1.5-1.8-2.3-1.9c-3.3-0.3-4.1-2.4-4.2-5.3c-0.2-6.5-3.4-8.4-9.4-5.4c-0.9,0.4-1.8,1-2.7,1.4
		c-4.3,1.8-7,1.2-9.3-2.8c-1.4-2.7-3.9-4.7-6.8-5.5c-3.1-0.8-3.6-3.1-2.8-6c1.7-6.6,0.8-8.8-5.1-12.1c-5.8-3.2-11.9-5.7-17.6-8.9
		c-6-3.4-10.8-8-12.2-15.3c-0.9-4.9,0.2-6.8,5.2-7.9c2.6-0.6,4.3-1.4,3.5-4.5c-0.5-2,0.3-3.1,2.3-3.4c7.5-1.1,15.1-2,22.4-3.7
		c4-0.9,7.7-2.7,11-5.3c4-3.3,3.9-8,1-12.4c-1.2-1.6-2-3.5-2.3-5.5c0.1-3.2-2.1-6-5.1-6.8c-5.5-1.8-10-4.6-12.6-10.1
		c-0.8-1.6-3.3-2.3-4.7-3.6s-3.2-2.9-3.5-4.6c-1-5.9-0.3-11.6,3.2-16.7c3-4.3,7.5-5.5,12.3-5.8c4.3,0,8.5-1.9,11.3-5.2
		c1.7-1.9,5.1-2.2,8.1-3.5c-0.1-3.8-2-7.3-5.2-9.4c-12-8-19.8-19.9-29.2-30.3c-6-6.7-12.1-13.3-18.3-19.8c-3.6-3.9-6.2-3.9-9.5,0
		c-2,2.6-5.3,4-8.7,3.6c-1.6-0.2-3.3-0.1-4.9-0.3c-4.8-0.6-8.5,1-10.4,5.7c-1.8,4.5-5.4,7-9.6,8.7c-10.2,4.1-19.5,10.3-27.3,18
		c-1.2,1.2-2.8,1.9-4.5,2.1c-10.7,1-19.2,5.7-24.9,14.7c-5.5,8.9-13.9,13.5-23.3,16.6c-12.2,4.1-18.7,13.1-21.6,25.1
		c-0.1,0.5-0.1,1-0.2,1.5c-0.9,2.5-12.9,8.1-15.4,7.3c-9.5-3.3-13.1-2-18.3,6.4c-0.3,0.6-0.7,1.1-1.2,1.5c-4.5,3.1-7.9,6.8-7.9,12.9
		c0,1.2-2.7,3.2-4.4,3.6c-6.6,1.5-10.5,5.2-12.6,11.7c-2.1,6.2-8.7,12.7-14.2,15.2c-3.5-7.3-7.4-14.1-5.4-23.2
		c1.3-6-0.2-12.8-1.1-19.2c-0.3-1.8-2.8-3.4-4.5-4.8c-3.6-2.9-7.4-5.7-7.4-10.9c0-2,0.9-5.3,2-5.5c2.6-0.6,5.5,0.1,8.3,0.5
		c1.5,0.4,3,0.9,4.4,1.7c0.6,0.2,1.1,0.5,1.5,1c1.7,3.6,3.4,2.1,5.5,0.3s4.8-3.2,8.1-5.2c0.3-2-2.2-3.3-4-4.8s-4-2.4-5.5-4.1
		c-2-2.3-4.2-4.9-5-7.8c-0.8-3.5-3.2-6.4-6.6-7.7c-3-1.3-6.1-2.6-9-4c-5.2-2.5-6.6-8-3.2-12.3c0.5-0.6,1.3-1.6,1.6-1.4
		c5,1.5,8-3.8,12.9-3.3c5.3,0.5,6.6-2.1,4.3-6.8c-1.1-2.2-0.2-3.4,1.8-4.1c3.1-1.1,4.6-3.2,4-6.4s-3.1-4.5-6.1-4.7
		c-4.3-0.3-8.6-0.6-12.9-0.6c-2.6,0-4.5-0.7-6-3.1c-3.3-5-6.7-5.8-12-3.1c-1.5,0.7-2.9,1.6-4.3,2.4c-5.5,3.2-9.8,1.8-12.4-4
		c-0.9-2-1.5-4.2-2.8-5.7s-3.6-3.4-5.7-3.8c-8.2-1.5-13.5-6-14.4-14.1c-0.5-4.6-3-6.9-6.9-7.1c-11.7-0.6-17.8-8.5-23.5-17.1
		c-1.6-2.4-2.3-5.3-3.2-8.1c-2.2-7.1-4.5-9.1-11.8-9.7c-3.9-0.2-7.8-0.7-11.6-1.5c-1.9-0.4-4.4-1.8-4.9-3.4s0.7-4.3,2.1-5.5
		c2-1.7,4.4-2.8,7-3.2c9.5-1.1,19.1-0.2,28.3,2.6c7,2.3,10.3-0.3,10-7.5c-0.3-6.5-0.1-6.3,5.5-9.3c1.7-1.1,2.9-2.9,3.4-4.8
		c1-3.9,1-8,2-11.9c1.4-5.4-0.3-9.7-3.8-13.6c-1.7-1.9-3.7-2.1-6.2-1.4c-5.3,1.6-7,0.6-10.1-3.9c-1.6-2.1-3.6-3.9-5.9-5.1
		c-10.8-5.8-21.7-11.5-30.9-20c-4.6-4.2-8.4-8.8-9.8-15c-0.8-3.5-2.5-6.2-6.3-7.4c-1-0.3-2.2-2.9-1.9-4.1c0.9-3.8-0.7-5.9-3-8.7
		c-3.1-3.6-5.1-8.1-7.6-12.2c-0.2-0.3-0.4-0.9-0.2-1.1c3.2-4.8,1.7-12.4,8.9-14.8c5.3-1.7,10.5-3.7,15.8-5.3
		c8.5-2.5,10.3-9,9.5-17.5c-0.1-1.1-2.1-2.9-3.2-2.9c-5.8,0.1-8.6-3.5-11.1-7.9c-2-3.4-3.4-7.4-8.9-6.8c-2.4,0.3-3.4-3.1-2.2-6.1
		c0.8-2,2.8-3.9,0.4-6.1s-4.9-1.8-7.4-0.6c-4.6,2.2-9.1,3-13.6-0.2c-0.7-0.5-1.6-0.7-2.5-0.6c-5.6,1.2-8.6-2.6-11.8-6.1
		c-2-2.1-3.7-4.5-5.7-6.6c-1.7-1.8-2.8-1.3-3.3,1c-0.9,3.9-2.6,4.5-5.8,2.1c-2.3-1.5-3.3-4.5-2.3-7.1c0.8-3,3.6-4.9,6.7-4.6
		c2.1,0.2,4.2,1.3,6.3,1.2s4.4-1.2,6.6-1.8c-0.6-2-0.8-4.3-2-6c-4.1-5.8-9.3-9.4-17.1-8.2c-3.6,0.5-4.4-0.9-3-4.3
		c1.2-2.3,0.7-5.2-1.3-6.9c-2.9-3-2.7-6.5-0.3-9.3c3.6-4.2,7.3-8.6,11.7-11.9c7.7-5.7,15.8-11,24.1-15.8c5.1-3,7.7-2,11.8,2.2
		c4,4,6.1,4.6,11.1,2.1c3.4-1.6,6.1-0.8,8,2c2.8,4.4,6.8,6.5,11.6,7.8c3.1,0.9,6,2.8,8.8,4.4c4.1,2.4,8.3,4.1,13.3,3.6
		c3.9-0.3,5.7,1.5,5.9,5.1l-6.9,1.2c-3.3,0.6-3.3,2.9-2.3,5.1c0.8,1.7,2.5,3.1,3.9,4.5c12.3,11.9,27.5,17.3,44.1,18.9
		c2.6,0.3,5.8-1,8-2.5c6.3-4.1,16.4-3.8,21.8,1.5c3.8,3.7,7.5,7.6,11.2,11.4c3.9,4,8.3,7,14.3,6.9c1,0,2.3,1.2,3.1,2.1
		c1.2,1.3,1.9,3,3.1,4.2c2.9,2.7,6.1,1.7,7.3-2.1c0.1-0.4,0.1-0.8,0.2-1.1c1.8-7.9,3.2-8.5,10.6-5.3c1,0.4,3.3-0.1,3.7-0.9
		c1.2-2.8,2.2-5.8,3-8.8c0.3-1.1,0.2-2.5,0.8-3.2c1.6-1.7,1.8-3.3,1.1-5.5c-0.3-1.1,0.4-3,1.2-4c1.9-2.5,4.8-4.3,4-8.1
		c0-0.2,0-0.6,0.2-0.7c4.9-3.3,1.1-5.4-0.9-8c-1.2-1.5-1.6-3.8-2.9-5.3c-2.9-3.6-6.2-7-9.6-10.2c-1.7-1.5-4.3-2.2-6.6-2.8
		c-6.7-1.6-12.7-5.3-17-10.6c-1.4-1.6-4-2.2-6-3.3c-3.7-2-7.6-3.6-9.1-8c-0.2-0.5-0.3-1.2-0.6-1.4c-4.4-2-3.1-5.7-3-9.2
		c0-1.5-0.4-2.9-1.1-4.3c-1.1-2.3-2.4-4.5-3.8-7.1 M117.4,231.9c-1.6,0-2.4,0-3.1,0c-3.5,0.3-6,3.3-5.4,6.3c0.6,3,3.5,4.9,6.5,4.4
		c0.3-0.1,0.5-0.1,0.8-0.2c2-0.7,3.9-1.8,5.4-3.3c1-1,2.2-3,1.8-4.1c-0.5-1.3-2.4-2.2-3.8-3C118.8,231.9,118.1,231.8,117.4,231.9"/>
	<path class="st1" d="M203.3,585.6c-1.2-0.4-2.3-0.8-3.5-1.3c-5.3-2.1-10.4-5.2-15.8-6c-7.1-1.1-14.4-4.5-21.8-0.9
		c-1.3,0.5-2.7,0.3-3.8-0.5c-6-6.4-14.4-7.8-22.1-10.5c-10.7-3.8-21.7-6.7-32.6-9.9c-7.7-2.3-10.9-6-11.7-13.9
		c-0.4-1.7-1.1-3.3-2.1-4.7c-3.5-5.4-7.1-10.7-10.8-16c-1.6-2.4-3.4-4.8-5.3-7c-0.6-0.6-2.2-0.5-3.3-0.3c-6.6,0.9-11.8-2.2-16.8-5.8
		c-1-0.9-1.7-2.2-2-3.5c-3.5-13.3-10.4-24.4-21.3-32.8c-6.4-4.9-8.7-11.9-10.4-19.3c-1.2-4.9-2.4-9.8-3.6-14.8
		c-1.3-5.3-3.1-6.7-8.5-8c-1.6-0.4-3.4-2.6-4-4.3c-1.7-4.6-2.8-9.3-4-13.4c2.8-0.6,6.2-1.6,9.7-2.1c2.4-0.3,4.8-0.3,7.1,0.1
		c4.7,0.8,8.7,0.1,12.2-3.4c2-2,4.1-3.8,6.3-5.5c2.8-2.1,6-2.3,8.2,0.3c5,5.6,9.5,11.5,13.6,17.7c1.4,2.2,0.4,6,0.2,9.1
		c-0.1,1.7-1.5,3.4-1.4,5.1c0.1,2.1,0.5,5.2,1.8,5.9c1.7,0.9,4.5,0.1,6.6-0.6c1.2-0.3,2-1.9,2.9-2.9c3.2-3.3,6.7-3.1,8.9,1
		c1,2.2,1.7,4.5,2,6.9c0.7,3.8,2.9,5.7,6.8,5.8c2,0,4.2-0.2,6,0.4c2.2,0.6,4.3,1.8,5.9,3.5c3.5,4.2,6.8,4.8,11.2,1.3
		c2.5-2,4.9-4,7.3-6.1c3.3-3.1,7.8-4.5,12.3-4c4.1,0.5,7.8,0.1,11.3-2.9s12.7,2.6,13.2,7.9c0.6,5.3,0.7,10.6,0.5,15.9
		c-0.1,2.3-2,4.5-3.2,6.7c-0.8,1.5-2.1,2.9-2.7,4.5c-1.3,3.3-0.4,5.2,3.1,6.4c1.6,0.5,3.1,1,4.7,1.4c2.8,0.7,4.5,2.3,6.1,5
		s4.4,4.4,6.9,6.1c2.6,1.7,5.7,2.7,8.5,4.3c4.4,2.6,4.9,6.1,1,9.1c-6.2,4.9-5.5,11.6-1.5,16.5c7.1,9,11.9,19.6,14,30.8
		c1.4,7.3,5,13.2,9.4,18.8c1.5,1.9,2.9,3.9,4.1,5.9c0.5,1,0.9,2.1,1.1,3.3L203.3,585.6z"/>
</g>
<path class="st2" d="M535.6,67.2c-1,0-1.8-0.7-2-1.6c-0.6-3.2-0.8-5-0.8-5c-0.1-1.1,0.6-2.1,1.7-2.3c1.1-0.1,2.1,0.6,2.3,1.7
	c0,0,0.2,1.7,0.8,4.8c0.2,1.1-0.5,2.1-1.6,2.3c0,0,0,0,0,0L535.6,67.2z"/>
<path class="st2" d="M729.6,272.5c-0.2,0-0.4,0-0.6-0.1c-3.1-1-6.3-2-9.5-3.1c-1-0.4-1.6-1.5-1.2-2.6c0.4-1,1.5-1.6,2.6-1.2
	c3.2,1.1,6.3,2.2,9.3,3.1c1.1,0.3,1.6,1.5,1.3,2.5c0,0,0,0,0,0C731.2,272,730.4,272.5,729.6,272.5z M710.9,266c-0.2,0-0.5,0-0.7-0.1
	c-3.1-1.2-6.2-2.4-9.2-3.7c-1-0.4-1.6-1.5-1.2-2.6c0.4-1,1.5-1.6,2.6-1.2c0,0,0.1,0,0.1,0.1c3,1.3,6.1,2.5,9.1,3.7
	c1,0.4,1.6,1.5,1.2,2.6C712.5,265.5,711.7,266,710.9,266L710.9,266z M692.7,258.3c-0.3,0-0.6-0.1-0.8-0.2c-3-1.4-6-2.8-9-4.3
	c-1-0.5-1.4-1.7-0.9-2.7c0.5-1,1.7-1.4,2.7-0.9l0,0c2.9,1.4,5.9,2.9,8.9,4.2c1,0.5,1.4,1.6,1,2.6
	C694.1,257.9,693.4,258.3,692.7,258.3L692.7,258.3z M674.9,249.6c-0.3,0-0.6-0.1-0.9-0.2c-2.9-1.6-5.8-3.2-8.7-4.8
	c-1-0.6-1.3-1.8-0.7-2.7c0.6-1,1.8-1.3,2.7-0.7c2.8,1.6,5.7,3.2,8.6,4.7c1,0.5,1.4,1.7,0.8,2.7C676.4,249.2,675.7,249.6,674.9,249.6
	L674.9,249.6z M657.8,239.8c-0.4,0-0.7-0.1-1.1-0.3c-2.8-1.8-5.7-3.5-8.4-5.4c-0.9-0.6-1.2-1.8-0.7-2.7s1.8-1.2,2.7-0.7
	c0,0,0.1,0.1,0.1,0.1c2.7,1.8,5.5,3.6,8.3,5.3c0.9,0.6,1.2,1.8,0.7,2.7C659.1,239.4,658.5,239.8,657.8,239.8L657.8,239.8z
	 M641.3,228.8c-0.4,0-0.8-0.1-1.2-0.4c-2.7-1.9-5.4-3.9-8-5.9c-0.9-0.7-1-1.9-0.4-2.8s1.9-1,2.8-0.4c2.6,2,5.2,3.9,7.9,5.8
	c0.9,0.6,1.1,1.9,0.5,2.8C642.5,228.5,641.9,228.8,641.3,228.8L641.3,228.8z M625.6,216.8c-0.5,0-0.9-0.2-1.3-0.5
	c-2.6-2.1-5.1-4.3-7.6-6.5c-0.8-0.7-0.9-2-0.2-2.8s2-0.9,2.8-0.2c2.4,2.2,4.9,4.3,7.4,6.4c0.9,0.7,1,2,0.3,2.8
	C626.8,216.6,626.2,216.8,625.6,216.8z M610.9,203.7c-0.5,0-1-0.2-1.4-0.6c-1.7-1.6-3.4-3.3-5-5l-2-2c-0.8-0.8-0.7-2.1,0.1-2.8
	c0.8-0.8,2.1-0.7,2.8,0.1l1.9,2c1.6,1.7,3.3,3.3,5,4.9c0.8,0.8,0.8,2,0,2.8c0,0,0,0,0,0C611.9,203.5,611.4,203.6,610.9,203.7
	L610.9,203.7z M597.2,189.4c-0.6,0-1.1-0.2-1.5-0.7c-2.2-2.5-4.4-5-6.5-7.6c-0.7-0.9-0.6-2.1,0.3-2.8c0.9-0.7,2.1-0.6,2.8,0.3
	c2.1,2.5,4.2,5,6.4,7.5c0.7,0.8,0.7,2.1-0.2,2.8C598.2,189.2,597.7,189.4,597.2,189.4L597.2,189.4z M584.7,174.1
	c-0.6,0-1.2-0.3-1.6-0.8c-2-2.6-4-5.3-5.9-8c-0.6-0.9-0.4-2.2,0.5-2.8s2.2-0.4,2.8,0.5c1.9,2.7,3.8,5.3,5.8,7.9
	c0.7,0.9,0.5,2.1-0.4,2.8C585.5,174,585.1,174.1,584.7,174.1L584.7,174.1z M573.3,157.9c-0.7,0-1.3-0.3-1.7-0.9
	c-1.8-2.8-3.6-5.6-5.3-8.4c-0.6-0.9-0.3-2.2,0.7-2.7s2.2-0.3,2.7,0.7c1.7,2.8,3.4,5.6,5.2,8.3c0.6,0.9,0.3,2.2-0.6,2.8c0,0,0,0,0,0
	C574,157.8,573.7,157.9,573.3,157.9L573.3,157.9z M563.1,141c-0.7,0-1.4-0.4-1.8-1c-1.6-2.9-3.2-5.9-4.7-8.8c-0.5-1-0.1-2.2,0.9-2.7
	c1-0.5,2.2-0.1,2.7,0.9c1.5,2.9,3,5.8,4.6,8.7c0.5,1,0.2,2.2-0.8,2.7C563.8,140.9,563.4,141,563.1,141z M554.2,123.4
	c-0.8,0-1.5-0.5-1.8-1.2c-1.4-3-2.7-6.1-4-9.1c-0.5-1,0-2.2,1-2.6c1-0.5,2.2,0,2.6,1c0,0,0,0.1,0,0.1c1.3,3,2.6,6,4,9
	c0.5,1,0,2.2-1,2.6c0,0,0,0,0,0C554.8,123.3,554.5,123.4,554.2,123.4L554.2,123.4z M546.6,105.1c-0.8,0-1.6-0.5-1.9-1.3
	c-1.2-3.1-2.3-6.3-3.3-9.4c-0.3-1,0.2-2.2,1.3-2.5c1-0.3,2.2,0.2,2.5,1.3l0,0c1,3.1,2.1,6.2,3.3,9.2c0.4,1-0.1,2.2-1.2,2.6
	c0,0,0,0,0,0C547,105.1,546.8,105.1,546.6,105.1L546.6,105.1z M540.3,86.4c-0.9,0-1.7-0.6-1.9-1.4c-0.9-3.3-1.8-6.5-2.6-9.6
	c-0.3-1.1,0.4-2.2,1.5-2.4c1.1-0.3,2.2,0.4,2.4,1.5c0.8,3.1,1.6,6.3,2.5,9.5c0.3,1.1-0.3,2.2-1.4,2.5
	C540.7,86.3,540.5,86.4,540.3,86.4L540.3,86.4z"/>
<path class="st2" d="M743.8,276.5c-0.1,0-0.3,0-0.4,0c-0.1,0-1.8-0.4-4.9-1.2c-1.1-0.3-1.7-1.4-1.3-2.5c0.3-1,1.3-1.6,2.3-1.4
	c3,0.8,4.7,1.2,4.8,1.2c1.1,0.1,1.9,1.1,1.8,2.2C745.9,275.9,744.9,276.7,743.8,276.5L743.8,276.5z"/>
<path class="st3" d="M739.4,297.5c-1.1,0-2-0.9-2-2c0-0.7,0.4-1.4,1.1-1.8c2.9-1.5,4.5-2.3,4.5-2.3c1-0.5,2.2,0,2.6,1
	c0.4,1,0,2.1-0.9,2.6c0,0-1.6,0.8-4.4,2.2C740,297.4,739.7,297.5,739.4,297.5z"/>
<path class="st3" d="M533.2,618.3H533c-1.1-0.1-1.9-1.1-1.8-2.2c0,0,0,0,0,0c0.3-3.2,0.8-6.6,1.2-10c0.1-1.1,1.2-1.9,2.3-1.7
	c1.1,0.1,1.9,1.2,1.7,2.3c-0.4,3.4-0.8,6.7-1.2,9.9C535.1,617.6,534.3,618.3,533.2,618.3z M535.8,598.5c-0.1,0-0.2,0-0.3,0
	c-1.1-0.2-1.8-1.2-1.7-2.3c0.5-3.3,1-6.6,1.6-9.9c0.2-1.1,1.3-1.8,2.4-1.6c1,0.2,1.7,1.2,1.6,2.2c-0.6,3.3-1.1,6.6-1.6,9.8
	C537.7,597.8,536.8,598.5,535.8,598.5z M539.2,578.8h-0.4c-1.1-0.2-1.8-1.3-1.6-2.3c0.6-3.3,1.3-6.5,2-9.8c0.2-1.1,1.3-1.8,2.4-1.5
	c1.1,0.2,1.8,1.3,1.5,2.4c-0.7,3.3-1.3,6.5-2,9.8C541,578.2,540.2,578.8,539.2,578.8z M543.4,559.3c-0.1,0-0.3,0-0.5,0
	c-1.1-0.2-1.7-1.3-1.5-2.4c0.7-3.2,1.5-6.5,2.3-9.7c0.3-1.1,1.4-1.7,2.4-1.4s1.7,1.4,1.4,2.4c-0.8,3.2-1.6,6.5-2.3,9.7
	C545.1,558.8,544.3,559.4,543.4,559.3z M548.2,540c-0.2,0-0.4,0-0.5-0.1c-1.1-0.3-1.7-1.4-1.4-2.5c0.9-3.2,1.8-6.5,2.7-9.7
	c0.3-1,1.5-1.6,2.5-1.3c1,0.3,1.6,1.4,1.3,2.4c-0.9,3.2-1.8,6.4-2.7,9.6C549.9,539.4,549.1,540,548.2,540L548.2,540z M553.7,520.8
	c-1.1,0-2-0.9-2-2c0-0.2,0-0.4,0.1-0.6c1-3.2,2-6.4,3.1-9.5c0.3-1.1,1.4-1.7,2.5-1.4c1.1,0.3,1.7,1.4,1.4,2.5c0,0.1,0,0.1-0.1,0.2
	c-1,3.1-2.1,6.3-3,9.5C555.4,520.3,554.6,520.8,553.7,520.8z M560,501.8c-0.2,0-0.4,0-0.7-0.1c-1-0.4-1.6-1.5-1.2-2.5
	c1.1-3.1,2.3-6.3,3.4-9.4c0.4-1,1.6-1.5,2.6-1.1c1,0.4,1.4,1.5,1.1,2.5c-1.2,3.1-2.3,6.2-3.4,9.3C561.6,501.3,560.8,501.8,560,501.8
	z M567,483.2c-0.3,0-0.5,0-0.7-0.1c-1-0.4-1.5-1.6-1.1-2.6c0,0,0,0,0,0c1.2-3.1,2.5-6.2,3.8-9.3c0.4-1,1.6-1.5,2.6-1.1
	c1,0.4,1.5,1.6,1.1,2.6l0,0c-1.3,3-2.6,6.1-3.8,9.2C568.6,482.7,567.8,483.2,567,483.2L567,483.2z M574.9,464.8
	c-0.3,0-0.6-0.1-0.8-0.2c-1-0.5-1.5-1.6-1-2.6c1.4-3,2.8-6.1,4.2-9.1c0.4-1,1.6-1.5,2.6-1.1c1,0.4,1.5,1.6,1.1,2.6
	c0,0.1-0.1,0.1-0.1,0.2c-1.4,3-2.8,6-4.2,9C576.4,464.4,575.6,464.8,574.9,464.8z M583.5,446.8c-0.3,0-0.6-0.1-0.9-0.2
	c-1-0.5-1.4-1.7-0.9-2.7c1.5-3,3.1-6,4.7-8.9c0.6-0.9,1.8-1.2,2.7-0.7c0.9,0.5,1.2,1.7,0.8,2.6c-1.6,2.9-3.1,5.8-4.6,8.8
	C585,446.4,584.3,446.9,583.5,446.8L583.5,446.8z M593.1,429.3c-1.1,0-2-0.9-2-2c0-0.4,0.1-0.7,0.3-1c1.7-2.9,3.4-5.8,5.1-8.6
	c0.6-0.9,1.8-1.2,2.8-0.6c0.9,0.6,1.2,1.8,0.6,2.7c-1.7,2.8-3.4,5.7-5.1,8.5C594.4,428.9,593.8,429.3,593.1,429.3L593.1,429.3z
	 M603.6,412.3c-1.1,0-2-0.9-2-2c0-0.4,0.1-0.8,0.3-1.1c1.8-2.7,3.8-5.5,5.8-8.2c0.6-0.9,1.9-1.1,2.8-0.5c0.9,0.6,1.1,1.9,0.5,2.8
	c0,0,0,0.1-0.1,0.1c-2,2.7-3.9,5.4-5.7,8.1C604.9,412,604.2,412.4,603.6,412.3L603.6,412.3z M615.4,396.4c-0.5,0-0.9-0.2-1.3-0.4
	c-0.9-0.7-1-1.9-0.3-2.8c2.1-2.6,4.2-5.2,6.4-7.7c0.6-0.9,1.9-1.1,2.8-0.5c0.9,0.6,1.1,1.9,0.5,2.8c-0.1,0.1-0.2,0.2-0.3,0.3
	c-2.2,2.5-4.3,5.1-6.3,7.6C616.6,396.1,616,396.3,615.4,396.4z M628.4,381.2c-1.1,0-2-0.9-2-2c0-0.5,0.2-1,0.5-1.4
	c2.2-2.4,4.6-4.9,6.9-7.3c0.7-0.8,2-0.9,2.8-0.2c0.8,0.7,0.9,2,0.2,2.8c0,0-0.1,0.1-0.1,0.1c-2.3,2.4-4.6,4.8-6.8,7.2
	C629.5,381,629,381.2,628.4,381.2z M642.4,367c-0.5,0-1.1-0.2-1.4-0.6c-0.8-0.8-0.7-2.1,0.1-2.8c0,0,0,0,0,0
	c2.4-2.3,4.8-4.6,7.3-6.9c0.8-0.7,2.1-0.7,2.8,0.2c0.7,0.8,0.7,2.1-0.2,2.8l0,0c-2.5,2.2-4.9,4.5-7.2,6.8
	C643.4,366.8,642.8,367,642.4,367L642.4,367z M657.1,353.5c-1.1,0-2-0.9-2-2c0-0.6,0.3-1.1,0.7-1.5c2.5-2.2,5.1-4.3,7.7-6.5
	c0.8-0.7,2.1-0.6,2.8,0.3c0.7,0.8,0.6,2.1-0.3,2.8c0,0,0,0,0,0c-2.6,2.1-5.1,4.3-7.6,6.4C658,353.4,657.6,353.5,657.1,353.5
	L657.1,353.5z M672.5,340.9c-0.6,0-1.2-0.3-1.6-0.8c-0.7-0.9-0.5-2.1,0.3-2.8c0,0,0,0,0,0c2.6-2,5.3-4.1,8-6.1
	c0.9-0.7,2.1-0.5,2.8,0.4c0.7,0.9,0.5,2.1-0.4,2.8c-2.7,2-5.3,4-7.9,6C673.4,340.7,673,340.9,672.5,340.9L672.5,340.9z M688.5,329
	c-0.6,0-1.3-0.3-1.6-0.8c-0.6-0.9-0.4-2.1,0.5-2.8c0,0,0,0,0,0c2.7-1.9,5.5-3.9,8.2-5.7c0.9-0.6,2.2-0.4,2.8,0.5
	c0.6,0.9,0.4,2.2-0.5,2.8l0,0c-2.7,1.8-5.5,3.8-8.2,5.7C689.4,328.8,688.9,329,688.5,329L688.5,329z M705.1,317.7c-1.1,0-2-0.9-2-2
	c0-0.7,0.3-1.3,0.9-1.7c2.8-1.8,5.6-3.6,8.5-5.4c0.9-0.6,2.1-0.4,2.8,0.5c0.6,0.9,0.4,2.1-0.5,2.8c-0.1,0-0.1,0.1-0.2,0.1
	c-2.8,1.7-5.6,3.5-8.4,5.3C705.8,317.6,705.4,317.7,705.1,317.7L705.1,317.7z M722.1,307.2c-0.7,0-1.4-0.4-1.7-1
	c-0.6-0.9-0.2-2.2,0.7-2.7c2.9-1.7,5.8-3.4,8.7-5c1-0.6,2.2-0.2,2.8,0.8c0.6,1,0.2,2.2-0.8,2.8c-2.8,1.6-5.7,3.2-8.6,5
	C722.8,307.2,722.4,307.2,722.1,307.2L722.1,307.2z"/>
<path class="st3" d="M531.9,633.1L531.9,633.1c-1.2-0.1-2-1-2-2.1c0-0.1,0.1-1.8,0.3-5c0.1-1.1,1.1-1.9,2.2-1.8
	c1.1,0.1,1.9,1.1,1.8,2.2l0,0c-0.3,3.2-0.3,4.9-0.3,4.9C533.9,632.3,533,633.1,531.9,633.1z"/>
<path class="st3" d="M736,289.7c-1.1,0-2-0.9-2-2c0-1.1,0.9-2,2-2l5-0.1l0,0c1.1,0,2,0.9,2,2c0,1.1-0.9,2-2,2L736,289.7L736,289.7z"
	/>
<path class="st3" d="M715.7,289.8c-1.1,0-2-0.9-2-2c0-1.1,0.9-2,2-2h10.1l0,0c1.1,0,2,0.9,2,2c0,1.1-0.9,2-2,2H715.7L715.7,289.8z
	 M705.6,289.8L705.6,289.8l-10.1-0.1c-1.1,0-2-0.9-2-2c0-1.1,0.9-2,2-2l0,0l10.1,0.1c1.1,0,2,0.9,2,2
	C707.6,288.9,706.7,289.8,705.6,289.8L705.6,289.8z M685.3,289.7L685.3,289.7l-10.2-0.2c-1.1,0-2-0.9-2-2c0-1.1,0.9-2,2-2l0,0
	l10.1,0.1c1.1,0,2,0.9,2,2C687.2,288.8,686.3,289.7,685.3,289.7L685.3,289.7z M665,289.3L665,289.3l-10.2-0.2c-1.1,0-2-0.9-2-2
	c0-1.1,0.9-2,2.1-2l10.1,0.2c1.1,0,2,0.9,2,2C667,288.4,666.1,289.3,665,289.3L665,289.3z M644.7,288.8L644.7,288.8l-10.2-0.3
	c-1.1,0-2-1-1.9-2.1c0-1.1,1-2,2.1-1.9l10.1,0.3c1.1,0,2,0.9,2,2C646.7,288,645.8,288.8,644.7,288.8z M624.4,288.1L624.4,288.1
	l-10.2-0.4c-1.1,0-2-1-1.9-2.1c0-1.1,1-2,2.1-1.9l0,0l10.1,0.4c1.1,0,2,0.9,2,2C626.4,287.3,625.5,288.2,624.4,288.1L624.4,288.1z
	 M604.1,287.2L604.1,287.2l-10.2-0.5c-1.1-0.1-2-1-1.9-2.1c0.1-1.1,1-2,2.1-1.9l10.1,0.5c1.1,0,2,0.9,2,2
	C606.1,286.4,605.2,287.3,604.1,287.2L604.1,287.2z M583.9,286.2h-0.1c-3.3-0.2-6.7-0.4-10.1-0.6c-1.1-0.1-1.9-1-1.9-2.1
	c0.1-1.1,1-1.9,2.1-1.9l10.1,0.6c1.1,0,2,1,1.9,2.1C585.9,285.3,585,286.2,583.9,286.2z M563.6,284.8h-0.1l-10.1-0.7
	c-1.1-0.1-1.9-1-1.8-2.1c0.1-1.1,1-1.9,2.2-1.9l10.1,0.7c1.1,0,2,1,1.9,2.1C565.6,284,564.7,284.9,563.6,284.8L563.6,284.8z
	 M543.4,283.4h-0.2c-3.4-0.3-6.7-0.5-10.1-0.8c-1.1-0.1-1.9-1.1-1.8-2.2c0.1-1.1,1.1-1.9,2.2-1.8c3.4,0.3,6.8,0.6,10.1,0.8
	c1.1,0,2,1,1.9,2.1C545.4,282.6,544.5,283.4,543.4,283.4L543.4,283.4z M523.2,281.7H523c-3.4-0.3-6.7-0.6-10.1-0.9
	c-1.1-0.1-1.9-1.1-1.8-2.2c0.1-1.1,1.1-1.9,2.2-1.8l0,0c3.4,0.3,6.7,0.6,10.1,0.9c1.1,0,2,1,1.9,2.1
	C525.2,280.9,524.3,281.7,523.2,281.7L523.2,281.7z M503,279.7h-0.2c-3.3-0.3-6.7-0.7-10.1-1.1c-1.1-0.1-1.9-1.1-1.8-2.2
	c0.1-1.1,1.1-1.9,2.2-1.8c3.3,0.4,6.7,0.7,10.1,1.1c1.1,0.1,2,1,1.9,2.1C505.1,278.9,504.1,279.8,503,279.7L503,279.7z M482.9,277.5
	h-0.2c-3.4-0.4-6.7-0.8-10.1-1.2c-1.1-0.1-1.9-1.1-1.8-2.3c0.1-1.1,1.1-1.9,2.3-1.8c3.3,0.4,6.7,0.8,10.1,1.2c1.1,0.1,1.9,1,1.9,2.1
	C484.9,276.7,484,277.6,482.9,277.5z M462.7,275h-0.3c-3.4-0.4-6.7-0.9-10.1-1.4c-1.1-0.2-1.9-1.2-1.7-2.3c0.2-1.1,1.2-1.9,2.3-1.7
	c3.3,0.5,6.7,0.9,10.1,1.4c1.1,0.1,1.9,1,1.9,2.1C464.7,274.2,463.8,275,462.7,275L462.7,275z M442.6,272.2h-0.3
	c-3.3-0.5-6.7-1-10-1.5c-1.1-0.2-1.8-1.2-1.6-2.3c0.2-1.1,1.2-1.8,2.3-1.7c3.3,0.5,6.7,1,10,1.5c1.1,0.1,1.9,1,1.9,2.1
	C444.7,271.4,443.8,272.3,442.6,272.2L442.6,272.2z M422.6,269c-0.1,0-0.2,0-0.3,0c-3.3-0.6-6.7-1.2-10-1.8
	c-1.1-0.2-1.8-1.2-1.6-2.3c0.2-1.1,1.2-1.8,2.3-1.6c3.3,0.6,6.7,1.2,10,1.8c1.1,0.1,1.9,1.1,1.8,2.2
	C424.7,268.3,423.8,269.1,422.6,269L422.6,269z M402.6,265.3c-0.1,0-0.3,0-0.4,0c-3.3-0.6-6.7-1.3-10-2c-1.1-0.2-1.8-1.3-1.6-2.4
	c0.2-1.1,1.3-1.8,2.4-1.6l0,0c3.3,0.7,6.6,1.3,9.9,2c1.1,0.1,1.9,1.1,1.8,2.2C404.7,264.7,403.7,265.5,402.6,265.3L402.6,265.3
	L402.6,265.3z M382.8,261.3c-0.1,0-0.3,0-0.4,0h-0.1c-3.3-0.7-6.5-1.4-9.8-2.2c-1.1-0.2-1.8-1.3-1.5-2.4c0.2-1.1,1.3-1.8,2.4-1.5
	c3.2,0.7,6.5,1.5,9.7,2.2h0.1c1.1,0.1,1.9,1.1,1.8,2.2C384.8,260.6,383.9,261.4,382.8,261.3L382.8,261.3z M363,256.8
	c-0.2,0-0.3,0-0.5-0.1c-3.3-0.8-6.6-1.6-9.9-2.4c-1.1-0.3-1.7-1.4-1.4-2.4s1.4-1.7,2.4-1.4c3.3,0.8,6.5,1.6,9.8,2.4
	c1.1,0.2,1.8,1.3,1.5,2.4C364.8,256.1,364,256.8,363,256.8L363,256.8z M343.3,251.9c-0.2,0-0.3,0-0.5-0.1c-3.3-0.8-6.6-1.7-9.8-2.5
	c-1.1-0.3-1.7-1.4-1.3-2.5c0.3-1,1.3-1.6,2.3-1.4c3.2,0.9,6.5,1.7,9.8,2.5c1.1,0.3,1.7,1.4,1.4,2.5
	C344.9,251.3,344.2,251.9,343.3,251.9L343.3,251.9z M323.7,246.7c-0.2,0-0.4,0-0.5-0.1c-3.3-0.9-6.6-1.8-9.8-2.7
	c-1.1-0.2-1.8-1.3-1.5-2.4s1.3-1.8,2.4-1.5c0.1,0,0.2,0,0.2,0.1c3.2,0.9,6.5,1.8,9.7,2.7c1.1,0.3,1.7,1.4,1.4,2.5
	C325.4,246.1,324.6,246.7,323.7,246.7z M304.2,241.2c-0.2,0-0.4,0-0.6-0.1c-3.3-1-6.5-1.9-9.7-2.9c-1.1-0.3-1.7-1.4-1.4-2.4
	s1.4-1.7,2.4-1.4c0.1,0,0.1,0,0.2,0.1c3.2,1,6.4,1.9,9.7,2.9c1.1,0.3,1.6,1.4,1.3,2.5C305.8,240.6,305.1,241.2,304.2,241.2
	L304.2,241.2z M284.8,235.2c-0.2,0-0.4,0-0.6-0.1c-3.3-1-6.5-2.1-9.7-3.1c-1.1-0.3-1.7-1.4-1.4-2.5s1.4-1.7,2.5-1.4
	c0.1,0,0.1,0,0.2,0.1c3.2,1,6.4,2.1,9.6,3.1c1.1,0.3,1.6,1.4,1.3,2.5C286.5,234.6,285.7,235.2,284.8,235.2L284.8,235.2z
	 M265.6,228.8c-0.2,0-0.4,0-0.6-0.1c-3.2-1.1-6.4-2.2-9.6-3.4c-1-0.4-1.5-1.6-1.1-2.6c0.4-0.9,1.4-1.4,2.4-1.1
	c3.1,1.1,6.3,2.2,9.5,3.4c1,0.4,1.6,1.5,1.2,2.5C267.2,228.3,266.4,228.8,265.6,228.8L265.6,228.8z M246.5,222c-0.2,0-0.5,0-0.7-0.1
	c-3.2-1.2-6.4-2.4-9.5-3.6c-1-0.4-1.5-1.6-1.1-2.6c0.4-1,1.6-1.5,2.6-1.1c3.1,1.2,6.3,2.4,9.5,3.6c1,0.4,1.6,1.5,1.2,2.6
	C248.1,221.5,247.3,222,246.5,222z M227.6,214.7c-0.3,0-0.5,0-0.8-0.1c-3.2-1.3-6.3-2.6-9.4-3.9c-1-0.4-1.5-1.6-1.1-2.6
	s1.6-1.5,2.6-1.1c3.1,1.3,6.2,2.6,9.4,3.9c1,0.4,1.5,1.6,1.1,2.6C229.1,214.2,228.4,214.7,227.6,214.7z M208.9,206.8
	c-0.3,0-0.5-0.1-0.8-0.2c-3.1-1.4-6.2-2.8-9.3-4.1c-1-0.5-1.4-1.6-1-2.6c0.5-1,1.6-1.4,2.6-1c3,1.4,6.1,2.8,9.2,4.1
	c1,0.4,1.5,1.6,1.1,2.6C210.4,206.4,209.7,206.8,208.9,206.8L208.9,206.8z M190.4,198.4c-0.3,0-0.6-0.1-0.9-0.2
	c-3-1.5-6.1-3-9.1-4.5c-1-0.5-1.3-1.7-0.8-2.7c0.5-0.9,1.6-1.3,2.6-0.9c3,1.5,6,3,9.1,4.4c1,0.5,1.4,1.7,1,2.7
	C191.9,198,191.2,198.4,190.4,198.4z M172.3,189.4c-0.3,0-0.6-0.1-0.9-0.2c-3-1.6-6.1-3.2-9-4.8c-1-0.5-1.3-1.7-0.8-2.7
	c0.5-1,1.7-1.3,2.7-0.8c2.9,1.6,5.9,3.2,8.9,4.8c1,0.5,1.4,1.7,0.9,2.7c0,0,0,0,0,0C173.7,189,173,189.4,172.3,189.4L172.3,189.4z
	 M154.5,179.7c-0.4,0-0.7-0.1-1-0.3c-3-1.7-5.9-3.4-8.8-5.1c-0.9-0.6-1.3-1.8-0.7-2.7s1.8-1.3,2.7-0.7l0,0c2.9,1.7,5.8,3.4,8.7,5.1
	c1,0.5,1.3,1.8,0.8,2.7C155.9,179.3,155.2,179.7,154.5,179.7L154.5,179.7z M137.1,169.3c-0.4,0-0.7-0.1-1.1-0.3
	c-2.9-1.8-5.8-3.7-8.5-5.6c-1-0.6-1.3-1.8-0.7-2.7c0.6-1,1.8-1.3,2.7-0.7c0.1,0,0.1,0.1,0.2,0.1c2.7,1.8,5.6,3.7,8.4,5.5
	c0.9,0.6,1.2,1.8,0.6,2.8C138.4,168.9,137.8,169.3,137.1,169.3L137.1,169.3z M120.3,157.9c-0.4,0-0.8-0.1-1.1-0.4
	c-2.8-2-5.6-4-8.2-6c-0.9-0.7-1.1-1.9-0.4-2.8c0.7-0.9,1.9-1.1,2.8-0.4c2.6,2,5.4,4,8.1,5.9c0.9,0.6,1.1,1.9,0.5,2.8
	C121.6,157.6,121,158,120.3,157.9L120.3,157.9z M104.1,145.8c-0.5,0-0.9-0.2-1.3-0.5c-2.7-2.1-5.3-4.3-7.8-6.5
	c-0.9-0.6-1.2-1.9-0.5-2.8s1.9-1.2,2.8-0.5c0.1,0.1,0.3,0.2,0.4,0.3c2.5,2.1,5.1,4.3,7.8,6.4c0.9,0.7,1,1.9,0.3,2.8
	C105.3,145.5,104.7,145.8,104.1,145.8L104.1,145.8z M88.8,132.5c-0.5,0-1-0.2-1.4-0.5c-2.6-2.4-5-4.8-7.3-7.1
	c-0.8-0.8-0.8-2.1,0-2.8c0.8-0.8,2.1-0.8,2.8,0c2.3,2.3,4.7,4.7,7.2,7c0.8,0.8,0.8,2,0.1,2.8C89.9,132.3,89.3,132.5,88.8,132.5
	L88.8,132.5z M74.6,118.1c-0.6,0-1.1-0.2-1.5-0.7c-2.4-2.6-4.6-5.3-6.6-7.9c-0.7-0.9-0.5-2.1,0.3-2.8s2.1-0.5,2.8,0.3
	c2,2.5,4.1,5.1,6.4,7.7c0.7,0.8,0.7,2.1-0.2,2.8C75.5,117.9,75.1,118.1,74.6,118.1L74.6,118.1z"/>
<path class="st3" d="M62.2,102.1c-0.7,0-1.3-0.3-1.7-0.9c-1-1.4-1.9-2.9-2.7-4.5c-0.5-1,0-2.2,1-2.7c1-0.4,2.1-0.1,2.6,0.9
	c0.7,1.4,1.6,2.8,2.4,4.1c0.6,0.9,0.3,2.2-0.6,2.8c0,0,0,0,0,0C62.9,102,62.6,102.1,62.2,102.1z"/>
<path class="st3" d="M242,26.8c-0.7,0-1.4-0.4-1.7-1c-1.7-2.9-2.5-4.4-2.5-4.5c-0.5-1-0.2-2.2,0.8-2.7c1-0.5,2.2-0.2,2.7,0.8
	c0,0,0,0.1,0.1,0.1c0,0,0.8,1.5,2.4,4.3c0.6,1,0.2,2.2-0.7,2.7c0,0,0,0,0,0C242.7,26.7,242.3,26.8,242,26.8z"/>
<path class="st3" d="M725,281.1h-0.3c-2.9-0.4-6.3-1-9.9-1.5c-1.1-0.2-1.8-1.2-1.7-2.3c0.2-1.1,1.2-1.8,2.3-1.7c0,0,0,0,0,0
	c3.7,0.6,7,1.1,9.9,1.5c1.1,0.1,1.9,1,1.9,2.1C727.1,280.4,726.1,281.2,725,281.1L725,281.1z M705.2,277.9h-0.3
	c-3.1-0.5-6.4-1.1-9.9-1.7c-1.1-0.1-1.9-1.1-1.8-2.2s1.1-1.9,2.2-1.8c0.1,0,0.2,0,0.3,0c3.5,0.6,6.8,1.2,9.9,1.7
	c1.1,0.1,1.9,1.1,1.8,2.2C707.3,277.3,706.3,278.1,705.2,277.9L705.2,277.9z M685.4,274.4c-0.1,0-0.2,0-0.4,0
	c-3.2-0.6-6.5-1.2-9.9-1.9c-1.1-0.2-1.8-1.3-1.6-2.4c0.2-1.1,1.3-1.8,2.4-1.6c3.4,0.7,6.7,1.3,9.8,1.9c1.1,0.1,1.9,1.1,1.8,2.2
	C687.5,273.8,686.5,274.6,685.4,274.4L685.4,274.4z M665.7,270.5c-0.1,0-0.3,0-0.4,0c-3.2-0.7-6.5-1.3-9.8-2.1
	c-1.1-0.3-1.7-1.3-1.5-2.4c0.2-1,1.3-1.7,2.3-1.5c3.3,0.7,6.6,1.4,9.8,2c1.1,0.1,1.9,1.1,1.8,2.2
	C667.8,269.9,666.8,270.7,665.7,270.5L665.7,270.5z M646.1,266.3c-0.1,0-0.3,0-0.4,0c-3.2-0.7-6.5-1.4-9.8-2.2
	c-1.1-0.2-1.8-1.2-1.6-2.3c0.2-1.1,1.2-1.8,2.3-1.6c0.1,0,0.2,0,0.2,0.1c3.3,0.8,6.6,1.5,9.8,2.2c1.1,0.2,1.8,1.3,1.5,2.4
	C647.8,265.7,647,266.3,646.1,266.3L646.1,266.3z M626.6,261.8c-0.2,0-0.3,0-0.5,0c-3.2-0.8-6.5-1.6-9.8-2.4
	c-1.1-0.3-1.7-1.4-1.4-2.4c0.3-1.1,1.4-1.7,2.4-1.4c3.3,0.8,6.5,1.6,9.7,2.4c1.1,0.3,1.7,1.4,1.5,2.4
	C628.3,261.2,627.5,261.8,626.6,261.8L626.6,261.8z M607.1,257c-0.2,0-0.3,0-0.5-0.1c-3.2-0.8-6.4-1.7-9.7-2.6
	c-1-0.4-1.6-1.5-1.2-2.5c0.3-0.9,1.3-1.5,2.2-1.3c3.3,0.9,6.5,1.7,9.7,2.5c1.1,0.3,1.7,1.4,1.5,2.4C608.8,256.4,608,257,607.1,257
	L607.1,257z M587.7,251.8c-0.2,0-0.4,0-0.5-0.1c-3.2-0.9-6.4-1.8-9.7-2.7c-1.1-0.3-1.7-1.4-1.4-2.5c0.3-1.1,1.4-1.7,2.5-1.4l0,0
	c3.2,0.9,6.4,1.9,9.6,2.7c1.1,0.3,1.7,1.4,1.4,2.5C589.4,251.2,588.6,251.8,587.7,251.8z M568.4,246.2c-0.2,0-0.4,0-0.6-0.1
	c-3.2-1-6.4-1.9-9.6-2.9c-1.1-0.3-1.6-1.5-1.3-2.5s1.5-1.6,2.5-1.3c3.2,1,6.4,2,9.6,2.9c1.1,0.3,1.7,1.4,1.4,2.5
	C570.1,245.6,569.3,246.2,568.4,246.2z M549.3,240.2c-0.2,0-0.4,0-0.6-0.1c-3.2-1-6.4-2.1-9.5-3.1c-1-0.4-1.6-1.5-1.3-2.5
	c0.4-1,1.5-1.6,2.5-1.3l0,0c3.2,1.1,6.3,2.1,9.5,3.1c1,0.3,1.6,1.5,1.3,2.5C550.9,239.6,550.1,240.2,549.3,240.2L549.3,240.2z
	 M530.3,233.8c-0.2,0-0.4,0-0.7-0.1c-3.2-1.1-6.3-2.2-9.5-3.4c-1-0.4-1.6-1.5-1.2-2.6s1.5-1.6,2.6-1.2c3.1,1.1,6.3,2.3,9.4,3.4
	c1,0.4,1.6,1.5,1.2,2.6C531.8,233.2,531.1,233.8,530.3,233.8L530.3,233.8z M511.4,226.9c-0.2,0-0.5,0-0.7-0.1
	c-3.2-1.2-6.3-2.4-9.4-3.6c-1-0.4-1.5-1.6-1.1-2.6c0.4-1,1.6-1.5,2.6-1.1c0,0,0,0,0,0c3,1.2,6.2,2.4,9.3,3.6c1,0.4,1.6,1.5,1.2,2.6
	C513,226.4,512.2,226.9,511.4,226.9L511.4,226.9z M492.7,219.5c-0.3,0-0.5-0.1-0.8-0.1c-3.1-1.3-6.2-2.6-9.3-3.9
	c-1-0.4-1.5-1.6-1-2.6s1.6-1.5,2.6-1c3,1.3,6.1,2.6,9.2,3.9c1,0.4,1.5,1.6,1.1,2.6C494.3,219.1,493.6,219.5,492.7,219.5L492.7,219.5
	z M474.3,211.6c-0.3,0-0.6-0.1-0.8-0.2c-3.1-1.4-6.2-2.8-9.1-4.2c-1-0.5-1.4-1.7-0.9-2.7c0.5-1,1.6-1.4,2.6-0.9c3,1.4,6,2.8,9.1,4.2
	c1,0.5,1.4,1.6,1,2.6C475.8,211.2,475.1,211.6,474.3,211.6z M456.2,203.1c-0.3,0-0.6-0.1-0.9-0.2c-3-1.5-6-3-8.9-4.5l-0.1-0.1
	c-1-0.5-1.4-1.7-0.8-2.7c0.5-1,1.7-1.4,2.7-0.8l0.1,0c2.9,1.5,5.8,3,8.8,4.4c1,0.5,1.4,1.7,0.9,2.7
	C457.7,202.7,457,203.1,456.2,203.1z M438.4,193.9c-0.3,0-0.7-0.1-0.9-0.2c-3-1.6-5.9-3.2-8.8-4.8c-1-0.5-1.3-1.7-0.8-2.7
	c0.5-1,1.7-1.3,2.7-0.8c2.9,1.6,5.8,3.2,8.8,4.8c1,0.5,1.3,1.7,0.8,2.7C439.8,193.5,439.1,193.9,438.4,193.9L438.4,193.9z
	 M420.8,184.3c-0.4,0-0.7-0.1-1-0.3c-2.9-1.6-5.8-3.3-8.7-5c-1-0.5-1.4-1.7-0.9-2.7c0.5-1,1.7-1.4,2.7-0.9c0.1,0,0.2,0.1,0.3,0.2
	c2.9,1.7,5.8,3.3,8.7,5c1,0.5,1.3,1.8,0.8,2.7C422.1,183.9,421.5,184.3,420.8,184.3L420.8,184.3z M403.5,174.2c-0.4,0-0.7-0.1-1-0.3
	c-2.9-1.7-5.8-3.5-8.6-5.3c-0.9-0.6-1.2-1.8-0.6-2.8c0.6-0.9,1.8-1.2,2.8-0.6l0,0c2.8,1.7,5.7,3.5,8.5,5.2c0.9,0.6,1.2,1.8,0.7,2.7
	C404.8,173.8,404.2,174.2,403.5,174.2L403.5,174.2z M386.5,163.6c-0.4,0-0.8-0.1-1.1-0.3c-2.8-1.8-5.6-3.6-8.4-5.5
	c-0.9-0.6-1.2-1.9-0.6-2.8s1.9-1.2,2.8-0.6l0,0c2.8,1.8,5.6,3.7,8.4,5.5c0.9,0.6,1.2,1.8,0.6,2.8
	C387.8,163.3,387.2,163.6,386.5,163.6z M369.7,152.5c-0.4,0-0.8-0.1-1.1-0.4c-2.8-1.9-5.5-3.8-8.3-5.8c-0.9-0.6-1.1-1.9-0.5-2.8
	c0.6-0.9,1.9-1.1,2.8-0.5c2.7,1.9,5.4,3.8,8.2,5.7c0.9,0.6,1.1,1.9,0.5,2.8C371,152.2,370.4,152.5,369.7,152.5z M353.4,140.9
	c-0.4,0-0.8-0.1-1.2-0.4c-2.7-2-5.4-4-8.1-6c-0.8-0.7-1-2-0.3-2.8c0.7-0.8,1.8-1,2.7-0.4c2.6,2,5.3,4,8,6c0.9,0.7,1,1.9,0.3,2.8
	C354.5,140.6,354,140.9,353.4,140.9z M337.4,128.8c-0.4,0-0.9-0.2-1.2-0.4c-2.6-2.1-5.3-4.2-7.9-6.3c-0.9-0.7-1-2-0.3-2.8
	c0.7-0.9,2-1,2.8-0.3c0,0,0,0,0,0c2.6,2.1,5.2,4.2,7.8,6.3c0.9,0.7,1,1.9,0.3,2.8C338.6,128.5,338,128.8,337.4,128.8z M321.9,116.2
	c-0.5,0-0.9-0.2-1.3-0.5c-2.6-2.2-5.1-4.4-7.6-6.6c-0.8-0.7-0.9-2-0.2-2.8c0.7-0.8,2-0.9,2.8-0.2l0,0c2.5,2.2,5,4.4,7.6,6.5
	c0.8,0.7,1,2,0.2,2.8C323,115.9,322.5,116.2,321.9,116.2L321.9,116.2z M306.9,102.9c-0.5,0-1-0.2-1.4-0.5c-2.5-2.3-5-4.6-7.4-6.9
	c-0.8-0.8-0.8-2-0.1-2.8c0.8-0.8,2-0.8,2.8-0.1l0,0c2.4,2.3,4.8,4.6,7.3,6.8c0.8,0.7,0.9,2,0.1,2.8
	C308,102.7,307.4,102.9,306.9,102.9L306.9,102.9z M292.4,89.1c-0.5,0-1-0.2-1.4-0.6c-2.4-2.4-4.8-4.8-7.1-7.2
	c-0.8-0.8-0.7-2.1,0.1-2.8c0.8-0.8,2.1-0.7,2.8,0.1c2.3,2.4,4.6,4.8,7,7.1c0.8,0.8,0.8,2,0,2.8C293.4,88.9,292.9,89.1,292.4,89.1
	L292.4,89.1z M278.4,74.6c-0.6,0-1.1-0.2-1.5-0.6c-2.3-2.5-4.5-5-6.7-7.5c-0.8-0.8-0.8-2,0-2.8s2-0.8,2.8,0c0.1,0.1,0.1,0.1,0.2,0.2
	c2.1,2.5,4.4,5,6.6,7.4c0.7,0.8,0.7,2.1-0.1,2.8c0,0,0,0,0,0C279.4,74.4,278.9,74.6,278.4,74.6z M265.3,59.5c-0.6,0-1.2-0.3-1.5-0.7
	c-2.1-2.6-4.3-5.3-6.3-7.9c-0.7-0.9-0.5-2.1,0.4-2.8c0.9-0.6,2.1-0.5,2.7,0.3c2,2.6,4.1,5.2,6.2,7.8c0.7,0.9,0.6,2.1-0.3,2.8
	C266.2,59.3,265.7,59.5,265.3,59.5L265.3,59.5z M253,43.6c-0.6,0-1.2-0.3-1.6-0.8c-2-2.8-4-5.6-5.8-8.3c-0.6-0.9-0.4-2.2,0.6-2.8
	c0.9-0.6,2.2-0.4,2.8,0.6c1.8,2.6,3.7,5.4,5.7,8.2c0.6,0.9,0.4,2.1-0.5,2.8C253.8,43.5,253.4,43.6,253,43.6z"/>
<path class="st3" d="M739.7,283.1h-0.2c0,0-1.7-0.2-5-0.7c-1.1-0.1-1.9-1.2-1.7-2.3c0.1-1.1,1.2-1.9,2.3-1.7
	c3.2,0.4,4.9,0.6,4.9,0.6c1.1,0.1,1.9,1,1.9,2.1C741.7,282.4,740.8,283.2,739.7,283.1L739.7,283.1z"/>
<path class="st2" d="M769.7,282.9c0,8.6-7,15.6-15.6,15.6c-8.6,0-15.6-7-15.6-15.6c0-8.6,7-15.6,15.6-15.6c0,0,0,0,0,0
	C762.7,267.3,769.7,274.3,769.7,282.9C769.7,282.9,769.7,282.9,769.7,282.9"/>
<path class="st2" d="M565,115c0,5.7-4.6,10.4-10.4,10.4c-5.7,0-10.4-4.6-10.4-10.4c0-5.7,4.6-10.4,10.4-10.4c0,0,0,0,0,0
	C560.4,104.6,565,109.3,565,115"/>
<path class="st2" d="M579,58.4c-0.2-2.4-0.8-4.7-1.8-6.9c-1-2.1-2.4-4.1-4-5.9c-5.7-6.6-14.5-9.7-23.1-8.2
	c-11,1.9-19.2,11.3-19.7,22.4c-0.1,2,0,4,0.2,6c0.4,2.4,1,4.8,1.9,7.1c1.6,3.8,3.5,7.4,5.8,10.7c2.5,3.8,5.3,7.3,8,10.9
	c2.6,3.5,5.4,6.9,8.5,10l0.1-0.1c2.3-2.8,4.7-5.4,6.8-8.3c3.5-4.6,6.9-9.2,9.9-14.1c2.4-3.8,4.3-7.8,5.8-12
	C578.7,66.4,579.2,62.4,579,58.4"/>
</svg>
